<?xml version="1.0" standalone="no"?>
<!DOCTYPE svg PUBLIC "-//W3C//DTD SVG 1.1//EN" "http://www.w3.org/Graphics/SVG/1.1/DTD/svg11.dtd" >
<svg>
<metadata>
Created by FontForge 20110222 at Sun May  4 21:24:17 2014
 By Orthosie Webhosting
Copyright (c) 2014 by Kimberly Geswein. All rights reserved.
</metadata>
<defs>
<font id="KGWhenOceansRiseRegular" horiz-adv-x="501" >
  <font-face 
    font-family="KGWhenOceansRiseRegular"
    font-weight="400"
    font-stretch="normal"
    units-per-em="1024"
    panose-1="2 0 5 6 0 0 0 2 0 3"
    ascent="819"
    descent="-205"
    x-height="479"
    cap-height="863"
    bbox="-221 -334.471 949.154 1015"
    underline-thickness="0"
    underline-position="0"
    unicode-range="U+0020-2212"
  />
<missing-glyph horiz-adv-x="251" 
 />
    <glyph glyph-name=".notdef" horiz-adv-x="251" 
 />
    <glyph glyph-name=".null" horiz-adv-x="0" 
 />
    <glyph glyph-name="nonmarkingreturn" horiz-adv-x="251" 
 />
    <glyph glyph-name="space" unicode=" " horiz-adv-x="251" 
 />
    <glyph glyph-name="space" unicode="&#xa0;" horiz-adv-x="251" 
 />
    <glyph glyph-name="exclam" unicode="!" horiz-adv-x="146" 
d="M35 748q2 13 11.5 20t20.5 7t20 -6.5t10 -19.5q-5 -42 -7 -96.5t-2.5 -114t0.5 -119.5t3.5 -112t5.5 -92t7 -59q0 -13 -10 -20.5t-21.5 -8t-21 5.5t-9.5 19q-2 35 -1 186.5t-6 409.5zM80 61q18 0 27.5 -11t9.5 -24t-9 -24t-28 -11q-18 0 -27 11t-9 24t9 24t27 11z" />
    <glyph glyph-name="quotedbl" unicode="&#x22;" horiz-adv-x="260" 
d="M60 426q8 19 11 34.5t2 32t-6.5 35t-15.5 42.5q-7 17 -1.5 27.5t15 13.5t20 -1t13.5 -16q4 -13 10.5 -32t10.5 -42.5t2 -51t-15 -57.5q-4 -9 -13.5 -12t-18.5 -1t-14 9.5t0 18.5zM164 432q8 19 11 34.5t2 32t-6.5 35t-15.5 42.5q-7 17 -1.5 27.5t15 13.5t20 -1t13.5 -16
q4 -13 10.5 -32t10.5 -42.5t2 -51t-15 -57.5q-4 -9 -13.5 -12t-18.5 -1t-14 9.5t0 18.5z" />
    <glyph glyph-name="numbersign" unicode="#" horiz-adv-x="583" 
d="M88 253q-14 1 -20.5 10.5t-6.5 20.5t6.5 20t19.5 11q23 -1 46.5 -1t46.5 2q4 26 6.5 51t4.5 48q-24 -3 -50 -5.5t-56 -6.5q-14 1 -21 10t-7 20t6.5 20.5t19.5 11.5q28 -1 56 -0.5t56 2.5q2 38 3 68.5t-1 52.5q2 13 12.5 20t22 7t20.5 -6.5t7 -19.5q-1 -9 -2 -19
t-2.5 -23.5t-4 -31.5t-5.5 -44q26 2 51.5 4.5t49.5 5.5q2 37 2.5 67.5t-0.5 51.5q2 13 12.5 20t22 7.5t20.5 -6t7 -19.5q-2 -18 -5 -41.5t-9 -71.5q36 5 65.5 11.5t49.5 12.5q13 1 20 -8.5t8 -21t-5 -21.5t-19 -11q-10 -2 -20 -3t-24 -2.5t-33 -3t-47 -4.5q-2 -21 -5 -46.5
t-6 -55.5q42 6 76.5 13t57.5 14q13 1 20.5 -8.5t8.5 -21t-5 -21.5t-19 -11q-11 -2 -22 -3t-27 -2.5t-39 -4t-56 -5.5q-3 -26 -5.5 -54.5t-5.5 -60.5q-4 -14 -15 -20t-22 -5.5t-19 7.5t-6 20q12 51 21 107q-21 -2 -46 -5t-54 -6q-2 -25 -4.5 -52t-5.5 -58q-4 -14 -14.5 -20
t-21.5 -6t-19 7t-7 20q6 26 10.5 51.5t9.5 51.5q-20 -2 -40 -5t-43 -5zM342 432q-21 -2 -46.5 -4.5t-55.5 -6.5q-2 -21 -5 -46.5t-6 -55.5q26 2 51.5 4.5t49.5 5.5q8 55 12 103z" />
    <glyph glyph-name="dollar" unicode="$" horiz-adv-x="508" 
d="M314 -21q-2 -14 -12 -20.5t-21 -6.5t-20.5 6.5t-10.5 19.5q1 5 1 11.5t1 12.5q-39 10 -74.5 34t-65 60.5t-51 86.5t-32.5 113q-2 12 3 20t12.5 11.5t17 2.5t16.5 -6q8 -6 10 -19q4 -48 18.5 -88.5t36.5 -72t50.5 -53.5t61.5 -33q2 67 1.5 157.5t-2.5 187.5
q-33 25 -64.5 51t-56 56.5t-39.5 67t-14 82.5q1 33 11 65t29 58.5t47 45t66 24.5q-2 13 -3 20q0 13 10 20t21.5 8t21 -5t9.5 -19v-9t1 -14q44 -6 74.5 -32t48.5 -64t24 -84t1 -92q-1 -9 -9.5 -14t-17.5 -5t-16.5 5t-7.5 14q2 42 -2.5 79t-15.5 66.5t-30.5 49.5t-47.5 26
q2 -63 4 -162t5 -215q37 -27 72.5 -55t61.5 -62t38.5 -75.5t2.5 -95.5q-6 -30 -20 -56.5t-35.5 -46t-49 -30.5t-60.5 -11q0 -4 0.5 -7.5t0.5 -7.5zM424 153q4 36 -4 65.5t-25 55t-40.5 48t-50.5 43.5l4 -162t4 -157h11q22 0 39.5 8.5t30.5 23.5t20.5 34.5t10.5 40.5z
M135 661q-1 -33 8 -60.5t25.5 -51.5t38 -45t46.5 -40q-3 100 -7 189.5t-9 148.5q-25 -6 -44 -20t-32 -33t-19.5 -42t-6.5 -46z" />
    <glyph glyph-name="percent" unicode="%" horiz-adv-x="609" 
d="M108 24q-9 -10 -21 -10.5t-22 5.5t-14 16.5t2 22.5q20 24 50 68.5t65.5 101t74.5 121.5t77.5 130t74 127.5t63.5 113.5t47.5 87.5t24.5 50.5q7 11 19.5 12t22.5 -5t14.5 -16t-2.5 -21q-6 -10 -31 -53t-63.5 -108t-86.5 -146t-98.5 -167t-101.5 -171.5t-95 -158.5zM453 8
q-23 4 -39 23.5t-26 47.5t-12.5 61t1.5 65q6 42 19 76t30 57.5t36.5 35.5t37.5 10q19 -3 36.5 -14.5t29 -36.5t16 -66t-2.5 -103q-9 -85 -45 -124.5t-81 -31.5zM492 325q-26 -3 -43 -41t-23 -89q-2 -16 -2 -37.5t4 -41.5t13 -34.5t24 -17.5q14 -2 25 6t19 23t14 36.5t9 46.5
q4 29 4 56.5t-5 48.5t-14.5 33t-24.5 11zM121 463q-23 4 -39 23.5t-26 47.5t-12.5 61t1.5 65q6 42 19 76t30 57.5t36.5 35.5t37.5 10q19 -3 36.5 -14.5t29 -36.5t16 -66t-2.5 -103q-9 -85 -45 -124.5t-81 -31.5zM160 780q-26 -3 -43 -41t-23 -89q-2 -16 -2 -37.5t4 -41.5
t13 -34.5t24 -17.5q14 -2 25 6t19 23t14 36.5t9 46.5q4 29 4 56.5t-5 48.5t-14.5 33t-24.5 11z" />
    <glyph glyph-name="ampersand" unicode="&#x26;" horiz-adv-x="520" 
d="M332 378q9 2 14.5 -5.5t7.5 -17.5t0 -19t-9 -9q-42 -19 -90 -43.5t-87 -49t-62.5 -48t-17.5 -39.5q7 -19 26.5 -23.5t45.5 2t56 21.5t59.5 33.5t55 38.5t43.5 38q19 18 34.5 21.5t26.5 -2.5t16 -18t2 -25q-5 -30 -8 -47t-5.5 -29t-5 -23t-6 -28t-8 -43.5t-11.5 -70.5
q-2 -9 -11 -12.5t-19 -1.5t-17 9t-4 19q14 55 24.5 105t19.5 103q-26 -24 -60 -49.5t-70.5 -46t-73 -34t-68 -15t-54.5 12.5t-32 48q-6 22 1.5 43.5t23.5 40.5t37.5 35t42.5 28.5t38.5 21t25.5 12.5q-16 -3 -41.5 -5t-49.5 2.5t-41.5 18.5t-17.5 41q0 39 30 65t73.5 41.5
t92 22.5t86.5 7q-6 35 -11 60.5t-10.5 48.5t-10.5 46.5t-11 55.5q-2 9 5 15.5t15.5 9t16 0t7.5 -10.5q5 -27 10 -50.5t10.5 -49t12 -54t13.5 -64.5q6 -31 -10.5 -43.5t-45.5 -13.5q-56 -2 -98.5 -10.5t-70.5 -20.5t-41 -25.5t-10 -24.5q1 -6 12.5 -12t37 -8t66.5 3t100 22z
" />
    <glyph glyph-name="quotesingle" unicode="'" horiz-adv-x="182" 
d="M60 426q8 19 11 34.5t2 32t-6.5 35t-15.5 42.5q-7 17 -1.5 27.5t15 13.5t20 -1t13.5 -16q4 -13 10.5 -32t10.5 -42.5t2 -51t-15 -57.5q-4 -9 -13.5 -12t-18.5 -1t-14 9.5t0 18.5z" />
    <glyph glyph-name="parenleft" unicode="(" horiz-adv-x="254" 
d="M161 -45q5 -8 1 -17t-12.5 -14.5t-17.5 -6.5t-13 6q-27 46 -44 99.5t-26 109.5t-11 112.5t0 109.5q3 48 11 116t24.5 139.5t43 138t65.5 111.5q10 11 20 10.5t17 -7.5t9.5 -16t-2.5 -15q-40 -46 -65.5 -111t-41 -132t-22.5 -128.5t-9 -101.5q-3 -50 0 -106.5t12 -111.5
t24.5 -103t36.5 -82z" />
    <glyph glyph-name="parenright" unicode=")" horiz-adv-x="250" 
d="M92 -45q21 34 36.5 82t24.5 103t12 111.5t0 106.5q-2 40 -9 101.5t-22.5 128.5t-41 132t-65.5 111q-5 6 -2.5 15t9.5 16t17 7.5t20 -10.5q39 -45 65.5 -111.5t43 -138t24.5 -139.5t11 -116q2 -53 0 -109.5t-11 -112.5t-26 -109.5t-44 -99.5q-4 -7 -13 -6t-17.5 6.5
t-12.5 14.5t1 17z" />
    <glyph glyph-name="asterisk" unicode="*" horiz-adv-x="472" 
d="M354 430q13 5 23.5 0t16.5 -14.5t4.5 -20.5t-12.5 -18q-33 -14 -58.5 -27.5t-43.5 -24.5q41 -8 70 -8t57 -1q13 -3 17.5 -14.5t3 -23t-9.5 -19.5t-21 -5q-11 2 -20 5t-22 7t-33.5 9.5t-53.5 12.5q17 -27 31 -42.5t33 -35.5q6 -12 1.5 -23t-14 -18t-20.5 -6.5t-17 11.5
q-9 18 -15.5 30.5t-11 22.5t-8.5 18t-9 16l-7 -35t-4.5 -28t-2.5 -25t-2 -25q-3 -13 -14.5 -17.5t-23 -2.5t-19 10t-4.5 21q2 10 5.5 18t8.5 19t11 29.5t14 51.5q-27 -18 -43 -34.5t-36 -33.5q-11 -7 -22 -2.5t-17.5 14t-6.5 21t12 17.5q8 6 14 9t14.5 7t22 11.5t37.5 21.5
q-26 5 -56.5 10.5t-71.5 14.5q-12 5 -15 14.5t1.5 18.5t14 15t22.5 3q35 -13 61 -22t55 -16q-9 13 -25.5 33t-39.5 55q-5 13 0 24t14.5 16.5t20.5 4.5t18 -12q15 -33 25.5 -58.5t21.5 -44.5q6 26 10.5 56.5t14.5 74.5q6 13 17 17t21.5 2t18 -10.5t4.5 -21.5
q-14 -35 -26.5 -64.5t-19.5 -58.5q17 10 41.5 29.5t47.5 41.5z" />
    <glyph glyph-name="plus" unicode="+" horiz-adv-x="584" 
d="M256 544q3 13 13 20t21 7t19.5 -7t8.5 -20q-7 -47 -10 -93.5t-5 -91.5q63 2 114 6t83 10q13 0 20 -10t8 -21.5t-5 -21t-19 -9.5q-12 -1 -26 -1h-35.5h-55h-84.5q0 -63 3 -114t8 -82q0 -13 -10 -20t-21.5 -7.5t-21 5.5t-9.5 19v25.5t0.5 35t1 54.5t1.5 83q-37 0 -81.5 -1
t-100.5 -2q-14 2 -20.5 12t-6.5 21t6.5 20t19.5 9q46 -6 92 -8.5t91 -2.5q1 37 1 82.5v102.5z" />
    <glyph glyph-name="comma" unicode="," horiz-adv-x="133" 
d="M39 -60q8 19 11 34.5t2 32t-6.5 35t-15.5 42.5q-7 17 -1.5 27.5t15 13.5t20 -1t13.5 -16q4 -13 10.5 -32t10.5 -42.5t2 -51t-15 -57.5q-4 -9 -13.5 -12t-18.5 -1t-14 9.5t0 18.5z" />
    <glyph glyph-name="hyphen" unicode="-" horiz-adv-x="557" 
d="M68 305q-14 2 -20.5 12t-6.5 21t6.5 20t19.5 9q63 -8 126.5 -10t121 -0.5t104.5 6t76 9.5q13 0 20 -10t8 -21.5t-5 -21t-19 -9.5q-17 -1 -38.5 -1h-66t-121.5 -0.5t-205 -3.5z" />
    <glyph glyph-name="period" unicode="." horiz-adv-x="152" 
d="M71 1q-18 0 -27.5 11t-9.5 24t9 24t28 11q18 0 27 -11t9 -24t-9 -24t-27 -11z" />
    <glyph glyph-name="slash" unicode="/" horiz-adv-x="372" 
d="M67 8q-7 -12 -18.5 -14.5t-22 2t-17 14t-2.5 21.5q15 28 35 74.5t43 104.5t47 124t47.5 132t45 129t38 114.5t27.5 88t14 51.5q5 12 17 15.5t23 -0.5t17.5 -13t1.5 -21q-4 -11 -19 -54t-38 -107.5t-52 -145.5t-60.5 -169t-64 -177t-62.5 -169z" />
    <glyph glyph-name="zero" unicode="0" horiz-adv-x="471" 
d="M223 -1q-62 4 -103.5 41.5t-65.5 96.5t-31.5 134.5t-0.5 155.5q7 84 28.5 166t55 145t76.5 100t92 32q51 -6 88 -51t60.5 -114t32 -153.5t2.5 -169.5q-5 -78 -23 -148.5t-48 -123.5t-71 -83.5t-92 -27.5zM260 814q-34 1 -65 -36.5t-55.5 -95.5t-41 -127.5t-21.5 -133.5
q-5 -61 -2.5 -123.5t18 -115t47.5 -88.5t85 -44q36 -6 67 21.5t54.5 75.5t39 109.5t21.5 124.5q6 72 -1 148t-26 139t-49 104t-71 42z" />
    <glyph glyph-name="one" unicode="1" horiz-adv-x="147" 
d="M109 19q-2 -14 -12 -20.5t-21 -6.5t-20.5 6.5t-10.5 19.5q5 42 6.5 113t0.5 155t-3.5 172.5t-6 165t-7.5 132.5t-8 76q0 13 10 20t21.5 8t21 -5t9.5 -19q1 -11 2 -52.5t2.5 -104t3.5 -141t3.5 -165.5t4 -178t4.5 -176z" />
    <glyph glyph-name="two" unicode="2" horiz-adv-x="521" 
d="M32 68q32 29 73.5 77.5t84.5 108.5t83.5 127t69.5 133.5t42.5 128t3.5 109.5q-9 41 -43.5 54.5t-79.5 -2.5t-94 -62t-86 -122q-5 -9 -16 -9.5t-21.5 5t-16.5 15t0 19.5q54 91 117.5 141t121.5 66.5t102.5 2.5t60.5 -51q25 -56 18.5 -123t-32.5 -138.5t-67 -142.5
t-86 -135.5t-89.5 -118.5t-76.5 -90q28 2 77.5 10.5t103.5 20t103.5 25t78.5 26.5q15 7 26.5 -0.5t16 -20.5t0 -26.5t-21.5 -17.5q-41 -11 -99 -25t-119.5 -26.5t-119.5 -21t-98 -8.5q-10 0 -18 7.5t-11.5 18t-1 23t13.5 22.5z" />
    <glyph glyph-name="three" unicode="3" horiz-adv-x="526" 
d="M35 112q-11 13 -9 27t9.5 21.5t18 7t18.5 -15.5q10 -21 30.5 -39.5t46 -32t54.5 -20.5t58 -5q45 3 82 21.5t63 49.5t40 73.5t13 93.5q-1 38 -19.5 63.5t-46 40.5t-61.5 21t-67.5 5.5t-62 -6t-45.5 -13.5q-9 -5 -18.5 2.5t-15 19t-4 23t15.5 15.5q8 3 28.5 15t47.5 31
t56 45.5t53.5 57.5t41.5 66t20 73q2 26 -12.5 41.5t-35.5 20.5q-33 7 -69.5 0.5t-72 -22t-67 -37t-55.5 -44.5q-12 -11 -21 -9.5t-13.5 9.5t-4 19t5.5 17q38 45 83.5 70.5t89 37.5t79.5 13.5t55 -1.5q16 -3 32.5 -9.5t29.5 -18t21 -29t8 -42.5q-1 -40 -18 -83.5t-45 -84.5
t-62.5 -75t-70.5 -55q63 9 113.5 -3t86 -38t54 -62.5t18.5 -76.5q-1 -54 -16 -103.5t-46 -88.5t-77.5 -64t-109.5 -31q-58 -5 -119.5 23t-107.5 86z" />
    <glyph glyph-name="four" unicode="4" horiz-adv-x="531" 
d="M489 414q13 -2 20 -11.5t7 -20.5t-6.5 -20t-19.5 -10q-15 2 -30 3t-29 2q2 -82 4 -166t4 -164q-2 -14 -12 -20.5t-21 -6.5t-20.5 6.5t-10.5 19.5q3 25 4.5 61t2 79.5t0.5 93t-1 100.5q-86 4 -160.5 0t-123.5 -12q-27 -4 -43.5 3.5t-13.5 40.5q6 60 7 120.5t-1 114.5
t-6.5 98.5t-9.5 72.5q0 13 10 20t21.5 8t21 -5t9.5 -19q1 -17 1 -37.5t0.5 -61.5t1.5 -111t4 -185q13 0 32.5 0.5t51.5 0.5t79.5 0.5t117.5 2.5q-2 72 -4.5 142t-5.5 128.5t-6.5 100.5t-6.5 58q0 13 10 20t21.5 8t21 -5t9.5 -19q1 -11 2 -49.5t2 -96t2.5 -131.5t3.5 -155
q14 0 29 0.5t31 1.5z" />
    <glyph glyph-name="five" unicode="5" horiz-adv-x="527" 
d="M36 43q-9 6 -10.5 17.5t2.5 21.5t13 14.5t21 -4.5q43 -31 90.5 -36t89.5 12q43 18 80.5 53t66 77.5t45 87.5t16.5 83q0 49 -19 77t-49.5 40.5t-69 11.5t-78 -10.5t-75.5 -25.5t-61 -32q-11 -7 -21 -7.5t-18 3.5t-13 11t-4 15q4 43 3.5 92.5t-3.5 96.5t-7 87t-8 64
q-4 27 3 43t40 13q61 -5 118 -5t107 3.5t90.5 9t68.5 10.5q13 0 20.5 -9.5t8.5 -21.5t-5 -21.5t-19 -9.5q-11 -1 -21.5 -1.5t-26.5 -1t-40 -1.5t-61.5 -2.5t-92 -3.5t-131.5 -4q1 -26 2 -100t4 -199q33 20 77 34.5t90.5 20.5t91 0.5t79 -25.5t54.5 -57t17 -95
q-2 -45 -20.5 -97t-50 -100.5t-74 -89t-91.5 -62.5q-53 -23 -111 -20.5t-118 43.5z" />
    <glyph glyph-name="six" unicode="6" horiz-adv-x="482" 
d="M201 -1q-41 -2 -72.5 16t-54.5 48.5t-36.5 68t-17.5 74.5q-10 91 -0.5 184t34.5 181q26 92 65.5 167.5t83.5 119.5q12 12 24 12t20.5 -6t11 -16t-4.5 -17q-17 -17 -37.5 -43t-42 -61t-41 -78t-34.5 -95q-20 -69 -30 -151.5t-3 -178.5q2 -30 12 -63t26.5 -59t39.5 -41.5
t52 -11.5q-1 40 2.5 90.5t12 103t22.5 102.5t34.5 89t47.5 61.5t61 21.5q26 -1 46 -19t31.5 -49t13.5 -72t-8 -88q-11 -52 -37 -103t-61.5 -91.5t-76.5 -67t-83 -28.5zM369 457q-18 2 -34 -19t-30 -56t-25 -79.5t-19 -89t-12 -84.5t-3 -66q19 4 43 24t46.5 49t42 66t29.5 76
q9 36 11.5 67.5t-2.5 55.5t-17 39t-30 17z" />
    <glyph glyph-name="seven" unicode="7" horiz-adv-x="524" 
d="M250 18q-6 -12 -18 -15t-22.5 1t-17 13.5t-2.5 21.5q16 33 38.5 92.5t47 132.5t49.5 153t47.5 155t40.5 138.5t28 103.5q-69 -11 -133 -23.5t-116.5 -24t-89.5 -20.5t-52 -14q-13 -2 -21.5 7t-10.5 20.5t2.5 21.5t17.5 12q30 0 69 7t89.5 17.5t115 24t146.5 26.5
q17 4 27 0.5t15 -11t4.5 -18t-4.5 -20.5q-3 -11 -15.5 -52t-31 -103t-42.5 -140.5t-50.5 -163.5t-55 -173t-55.5 -169z" />
    <glyph glyph-name="eight" unicode="8" horiz-adv-x="473" 
d="M220 2q-63 0 -106 26t-66 67.5t-25.5 93t14.5 103.5t53 99.5t92 79.5q-38 20 -70 59t-48 87q-21 64 -12 111.5t37 79t69.5 46.5t85.5 15q43 0 82.5 -16t64.5 -46.5t29.5 -76t-21.5 -105.5q-18 -42 -51 -79.5t-79 -63.5q67 -29 109 -76t60 -100.5t12.5 -107.5t-33 -97.5
t-77.5 -71t-120 -27.5zM226 55q63 1 102 26t55.5 63t12.5 83.5t-25 88.5t-58 78t-86 51q-40 -19 -72 -56t-51.5 -80.5t-24 -89t8.5 -82.5t46.5 -60t91.5 -22zM349 636q19 45 15.5 79t-21.5 57t-45.5 34.5t-57.5 11.5t-59.5 -11.5t-49 -34t-26 -56t8.5 -78.5
q7 -22 19.5 -43.5t27.5 -39.5t32 -31t34 -17q38 23 71.5 56.5t50.5 72.5z" />
    <glyph glyph-name="nine" unicode="9" horiz-adv-x="490" 
d="M466 27q-2 -14 -12 -20.5t-21 -6.5t-20.5 6.5t-10.5 19.5q3 32 3.5 83t0 112.5t-2 129.5t-2.5 134q-49 -62 -106 -96.5t-102 -38.5q-44 -3 -74.5 13t-49.5 44t-27.5 65t-7.5 75.5t9.5 75t24.5 63.5q32 56 70.5 93t80 56.5t84.5 21.5t85 -12q2 12 12 19t21.5 8.5t20 -4
t8.5 -17.5q0 -11 1 -53t2 -105t2.5 -143t3 -167.5t3.5 -179t4 -176.5zM192 407q22 2 50 13.5t57 32.5t55.5 50t46.5 65q-1 64 -3 112t-4 89q-29 31 -68 35.5t-79 -12t-76 -50t-59 -78.5q-21 -41 -27 -88t3 -86t34.5 -63t69.5 -20z" />
    <glyph glyph-name="colon" unicode=":" horiz-adv-x="155" 
d="M77 403q-18 0 -27.5 11t-9.5 24t9 24t28 11q18 0 27 -11t9 -24t-9 -24t-27 -11zM83 169q-18 0 -27.5 11t-9.5 24t9 24t28 11q18 0 27 -11t9 -24t-9 -24t-27 -11z" />
    <glyph glyph-name="semicolon" unicode=";" horiz-adv-x="159" 
d="M73 204q-18 0 -27.5 11t-9.5 24t9 24t28 11q18 0 27 -11t9 -24t-9 -24t-27 -11zM61 -58q8 19 11 34.5t2 32t-6.5 35t-15.5 42.5q-7 17 -1.5 27.5t15 13.5t20 -1t13.5 -16q4 -13 10.5 -32t10.5 -42.5t2 -51t-15 -57.5q-4 -9 -13.5 -12t-18.5 -1t-14 9.5t0 18.5z" />
    <glyph glyph-name="less" unicode="&#x3c;" horiz-adv-x="355" 
d="M60 357q68 22 114.5 45.5t88.5 49.5q10 6 19.5 2t15 -13t4.5 -20.5t-13 -19.5q-47 -26 -90.5 -44.5t-85.5 -42.5q15 -5 30 -11t35 -13.5t47 -17t67 -21.5q18 -5 23 -17.5t1 -23.5t-16 -17t-29 2q-27 12 -51 22t-48 19.5t-51 18.5t-60 19q-16 5 -25 16.5t-10 24t7.5 24.5
t26.5 18z" />
    <glyph glyph-name="equal" unicode="=" horiz-adv-x="583" 
d="M68 366q-14 2 -20.5 12t-6.5 21t6.5 20t19.5 9q63 -8 126.5 -10t121 -0.5t104.5 6t76 9.5q13 0 20 -10t8 -21.5t-5 -21t-19 -9.5q-17 -1 -38.5 -1h-66t-121.5 -0.5t-205 -3.5zM70 216q-14 2 -20.5 12t-6.5 21t6.5 20t19.5 9q63 -8 126.5 -10t121 -0.5t104.5 6t76 9.5
q13 0 20 -10t8 -21.5t-5 -21t-19 -9.5q-17 -1 -38.5 -1h-66t-121.5 -0.5t-205 -3.5z" />
    <glyph glyph-name="greater" unicode="&#x3e;" horiz-adv-x="359" 
d="M290 357q18 -6 26.5 -18t7.5 -24.5t-10 -24t-25 -16.5q-33 -10 -60 -19t-51 -18.5t-48 -19.5t-51 -22q-17 -8 -29 -2t-16 17t1 23.5t23 17.5q40 12 67 21.5t47 17t35 13.5t30 11q-42 24 -85.5 42.5t-90.5 44.5q-12 8 -13 19.5t4 20.5t15 13t20 -2q42 -26 88.5 -49.5
t114.5 -45.5z" />
    <glyph glyph-name="question" unicode="?" horiz-adv-x="479" 
d="M171 364q0 14 -0.5 28t4 25t17 19t38.5 10q31 2 63 16t58.5 35.5t43.5 50t18 59.5q1 58 -13 98t-37.5 65.5t-52.5 38t-57 14.5q-36 3 -70.5 -7.5t-61.5 -34t-42.5 -60t-13.5 -85.5q0 -9 -7.5 -14t-16.5 -5t-17.5 5t-9.5 14q-6 51 9 95t45.5 77t75 51t98.5 16
q44 -2 86.5 -18.5t74.5 -50t50.5 -83.5t14.5 -117q-5 -82 -69.5 -142t-177.5 -79q0 -20 1 -36.5t1.5 -34.5t1.5 -40t2 -53q-2 -14 -11.5 -20.5t-20.5 -6.5t-20 6.5t-10 19.5q3 22 4 39t1.5 33t0.5 33v39zM192 -2q-18 0 -27.5 11t-9.5 24t9 24t28 11q18 0 27 -11t9 -24
t-9 -24t-27 -11z" />
    <glyph glyph-name="at" unicode="@" horiz-adv-x="655" 
d="M32 264q-1 58 12 116t37 110.5t59 96.5t78.5 75t95.5 46t110 10q56 -5 94 -25.5t62 -53.5t35.5 -77t14.5 -98q3 -65 -10.5 -112t-37 -76t-54.5 -40.5t-63 -3.5q-10 3 -20 10t-18.5 16t-14 19.5t-7.5 19.5q-11 -20 -26 -38t-33.5 -31t-41 -20.5t-46.5 -5.5
q-46 3 -66.5 28.5t-21 62t16 78.5t44 77t63 56.5t74.5 18.5q24 -2 37.5 -11.5t20 -24.5t8 -34t2.5 -40q0 -14 0.5 -36t5 -43t13 -37.5t24.5 -17.5q32 -3 51.5 18t30 51.5t13.5 64t2 56.5q-2 36 -9.5 69t-23.5 59.5t-42 44t-66 21.5q-72 10 -137 -20.5t-114 -87.5
t-76.5 -133.5t-23.5 -157.5q1 -36 11 -72.5t29.5 -66.5t48.5 -50.5t69 -24.5q48 -5 94.5 7t87.5 34t74.5 51.5t56.5 61.5q3 4 13 4.5t19.5 -2.5t15.5 -9.5t1 -16.5q-25 -47 -71 -83t-99 -59.5t-105 -34t-88 -7.5q-43 4 -80.5 26t-65.5 57.5t-45 83t-18 101.5zM380 473
q-31 4 -58.5 -11t-49.5 -39.5t-36.5 -54.5t-18 -56.5t4.5 -45.5t32 -21q41 -3 66.5 20.5t39 59.5t17.5 76.5t3 71.5z" />
    <glyph glyph-name="A" unicode="A" horiz-adv-x="587" 
d="M556 26q0 -14 -9 -22t-20 -9.5t-21.5 3.5t-13.5 18q-1 26 -4.5 64t-9.5 83.5t-14 98t-17 106.5q-68 -8 -130 -19.5t-112 -23.5q-34 -81 -67 -161t-63 -152q-7 -12 -19 -14t-22.5 2.5t-16.5 14.5t-1 22q22 38 55.5 110t71.5 160q-6 -2 -11.5 -3.5t-10.5 -3.5
q-13 -2 -22 6.5t-11.5 20t2 21.5t17.5 12q12 3 26.5 5.5t37.5 6.5q31 73 61 146.5t55 137t43 112t24 71.5q3 9 12.5 15t20 7t20 -4.5t11.5 -20.5q3 -20 9.5 -59.5t16 -93t20.5 -118.5t23 -136l22 4l22 4q14 0 22 -8t10 -19t-3 -21t-18 -13l-45 -3q14 -88 29.5 -176
t29.5 -171zM375 742q-13 -32 -29 -72.5t-35 -87t-39.5 -97.5t-42.5 -103q35 6 85.5 14.5t123.5 22.5q-8 45 -16 89.5t-16.5 86.5t-16 79.5t-14.5 67.5z" />
    <glyph glyph-name="B" unicode="B" horiz-adv-x="538" 
d="M510 403q6 -64 -9.5 -118t-45.5 -98t-70.5 -77.5t-85.5 -56.5q-84 -43 -179 -43q-5 -9 -14.5 -14t-19.5 -5t-18 5.5t-9 17.5q4 41 5.5 112t0 156t-5 174.5t-7.5 167.5t-8.5 135.5t-8.5 78.5q0 13 10 20t21.5 8t21 -5t9.5 -19q0 -8 1 -26t2 -46q52 51 103.5 73.5t95 22.5
t74 -19.5t39.5 -52.5q8 -30 -0.5 -68t-28.5 -76t-48 -73t-59 -59q37 16 76.5 18.5t72.5 -10.5t56.5 -43.5t28.5 -79.5zM461 396q-5 44 -26.5 64.5t-52.5 24.5t-66.5 -4.5t-67.5 -20.5q-42 -16 -78.5 -35.5t-58.5 -35.5q2 -81 5 -165t5 -165q84 -2 155 34q43 21 79 53.5
t61 72.5t37.5 85t7.5 92zM364 781q-5 24 -33 32.5t-67 -1t-82.5 -37.5t-79.5 -77q2 -51 3.5 -113t3.5 -133q53 25 102.5 66.5t85.5 88.5t55 93.5t12 80.5z" />
    <glyph glyph-name="C" unicode="C" horiz-adv-x="541" 
d="M244 -4q-70 0 -113 34.5t-66.5 88.5t-30.5 119.5t-4 126.5q3 46 12 101.5t25 112t40 109.5t56.5 93.5t74 63.5t93.5 20q33 -3 56 -21t38.5 -45.5t23.5 -61.5t11.5 -69.5t3 -69.5t-2.5 -61q-1 -14 -11.5 -21.5t-22.5 -8t-21 5.5t-7 19q18 132 -3.5 201.5t-72.5 74.5
q-39 3 -70.5 -19.5t-57 -61t-44.5 -88.5t-32 -101t-20.5 -99t-9.5 -83q-3 -57 0.5 -110.5t20.5 -96t50 -69t88 -27.5q30 -1 62 7.5t61 30.5t51.5 60.5t33.5 97.5q3 19 14.5 26.5t22.5 5.5t18.5 -13.5t3.5 -31.5q-15 -68 -43.5 -114t-65.5 -74t-79 -40t-83 -12z" />
    <glyph glyph-name="D" unicode="D" horiz-adv-x="533" 
d="M129 19q-2 -13 -11 -19.5t-19.5 -7.5t-20 4t-12.5 16q-16 -5 -28 -8q-12 -2 -18.5 5t-8 17.5t2.5 20t14 12.5l20 6t21 5q3 46 3.5 107.5t-0.5 129.5t-3 138.5t-4.5 135t-6 118.5t-6.5 89q-5 -2 -10 -3t-10 -3q-10 -3 -15.5 3.5t-6 16.5t5 20t18.5 13q3 1 6.5 1.5t6.5 1.5
q3 9 11 14.5t17.5 7t18 -1.5t12.5 -11q47 4 93 -1t87.5 -18.5t77 -35.5t62.5 -52q31 -35 49 -76t24.5 -85.5t2.5 -91.5t-17 -93q-20 -67 -55.5 -122t-83 -99.5t-103 -78.5t-115.5 -59q0 -5 0.5 -8.5t0.5 -7.5zM383 709q-25 25 -56.5 43.5t-67.5 30t-74 15.5t-75 1
q1 -42 3 -118.5t4.5 -172.5t4.5 -204.5t5 -214.5q48 19 95 49.5t88 71t73 90t50 106.5q12 40 16.5 81.5t-1 81t-21.5 75t-44 65.5z" />
    <glyph glyph-name="E" unicode="E" horiz-adv-x="512" 
d="M409 497q13 -1 20.5 -10t8.5 -20t-4.5 -20.5t-18.5 -11.5q-96 3 -171.5 -5t-144.5 -20q2 -86 4.5 -175t4.5 -177q17 1 38 3.5t59 6.5t100 10.5t161 17.5q13 -1 20.5 -10t8.5 -20t-4.5 -20.5t-18.5 -11.5q-62 2 -118.5 -1t-105.5 -9t-89.5 -14t-70.5 -16q-14 -5 -28 1
t-15 23q5 42 6.5 113t0.5 155t-3.5 172.5t-6 165t-7.5 132.5t-8 76q0 13 10 20t21.5 8t21 -5t9.5 -19v-13q17 2 37.5 4t58.5 6.5t101 11t165 17.5q13 -1 20.5 -10t8.5 -20t-4.5 -20.5t-18.5 -11.5q-116 4 -208.5 -8.5t-157.5 -26.5q2 -51 3.5 -129.5t3.5 -172.5q21 1 44.5 4
t58 7t84.5 9.5t124 13.5z" />
    <glyph glyph-name="F" unicode="F" horiz-adv-x="489" 
d="M405 497q13 -1 20.5 -10t8.5 -20t-4.5 -20.5t-18.5 -11.5q-96 3 -169.5 -5t-142.5 -20q2 -96 4.5 -195.5t5.5 -195.5q-2 -14 -12 -20.5t-21 -6.5t-20.5 6.5t-10.5 19.5q5 42 6.5 113t0.5 155t-3.5 172.5t-6 165t-7.5 132.5t-8 76q0 13 10 20t21.5 8t21 -5t9.5 -19v-13
q17 2 36.5 4t57 6.5t100 11t164.5 17.5q13 -1 20.5 -10t8.5 -20t-4.5 -20.5t-18.5 -11.5q-116 4 -206.5 -8.5t-155.5 -26.5q2 -51 3.5 -129.5t3.5 -172.5q21 1 44 4t56.5 7t83 9.5t123.5 13.5z" />
    <glyph glyph-name="G" unicode="G" horiz-adv-x="600" 
d="M551 451q13 -2 20 -11.5t7 -20.5t-6.5 -20t-19.5 -10q-53 6 -94 6q29 -30 37 -73t-2 -90q-9 -44 -31 -86t-54.5 -75.5t-74 -54t-89.5 -20.5q-70 0 -113 34.5t-66.5 88.5t-30.5 119.5t-4 126.5q3 46 12 101.5t25 112t40 109.5t56.5 93.5t74 63.5t93.5 20q39 -3 65.5 -27.5
t42 -60t21.5 -78.5t4 -83q-1 -14 -10.5 -22t-20 -9.5t-19.5 4t-8 19.5q5 95 -17.5 145.5t-65.5 54.5q-39 3 -71 -19t-57.5 -60t-45 -86.5t-33 -99t-21 -98t-9.5 -82.5q-3 -57 1.5 -111t21.5 -97t48.5 -70.5t81.5 -31.5q38 -3 71 13t59 43t43.5 62.5t25.5 71.5q11 51 -2 85.5
t-38 47.5q-13 7 -35 9t-47 0.5t-50.5 -6t-45.5 -11.5q-14 -2 -21 7.5t-7.5 22t5.5 22.5t19 10q12 1 17.5 2t14 2.5t25 3.5t50 4t88 4.5t140.5 4.5z" />
    <glyph glyph-name="H" unicode="H" horiz-adv-x="643" 
d="M469 28q3 116 5.5 239t5.5 234q-44 -10 -90.5 -22.5t-91 -25t-85.5 -25.5t-74 -24q2 -94 4.5 -192.5t5.5 -192.5q-2 -14 -12 -20.5t-21 -6.5t-20.5 6.5t-10.5 19.5q3 27 4.5 67t2 88t0 102t-1.5 110q-15 -6 -28 -11q-13 -3 -22.5 5t-13 19.5t0 22t16.5 13.5q7 2 18.5 5
t27.5 8q-2 66 -4.5 129t-5.5 115t-6 89t-6 52q0 13 10 20t21.5 8t21 -5t9.5 -19q0 -10 1 -43l2.5 -82.5t2.5 -113.5t3 -136q56 16 140.5 39t202.5 55q1 57 2 106t2 87t2 63t2 34q0 13 9.5 19t21 5t21.5 -8t10 -20q-2 -12 -4.5 -37.5t-5 -61t-5 -80t-4.5 -93.5q14 4 28 7.5
t29 7.5q13 1 22 -6.5t12 -18t-1.5 -21t-16.5 -14.5q-35 -5 -75 -12q-2 -69 -3.5 -141t-1.5 -137t2 -119t6 -88q-1 -13 -10.5 -19.5t-20.5 -6.5t-21 6.5t-12 20.5z" />
    <glyph glyph-name="I" unicode="I" horiz-adv-x="593" 
d="M545 104q14 0 22 -9t9.5 -20t-4 -20.5t-18.5 -11.5q-67 -1 -135.5 -7.5t-131 -15.5t-115.5 -19t-89 -19q-13 -3 -21.5 5.5t-10.5 20t2.5 22t17.5 12.5q10 1 25 3t37 4.5t52.5 6t73.5 8.5q3 52 3.5 115.5t0 131.5t-2 136.5t-4 130.5t-6 113.5t-6.5 85.5q-30 -4 -59 -8.5
t-54.5 -9.5t-46.5 -9.5t-34 -8.5q-13 -2 -21.5 7.5t-10.5 21t2.5 21.5t17.5 10q10 0 41 3.5t74 9t93.5 12t100.5 13.5t93.5 13t73.5 11q14 0 22 -9t9.5 -20t-4 -20.5t-18.5 -11.5q-54 -1 -109.5 -5.5t-112.5 -11.5q1 -45 2.5 -123.5t4 -175.5t4.5 -204t5 -210q45 5 101 13
t127 19z" />
    <glyph glyph-name="J" unicode="J" horiz-adv-x="441" 
d="M54 334q4 13 13.5 17t18.5 1.5t15 -11t3 -20.5q-14 -53 -13.5 -103t17 -89t50 -62.5t85.5 -24.5q24 0 41.5 8.5t30.5 23.5t21 35t13 43q16 75 13.5 161.5t-16 175.5t-34.5 174.5t-43 159.5q-4 15 4.5 25.5t21 14t24.5 -1.5t15 -22q14 -84 33 -170t32.5 -173t16.5 -175.5
t-14 -178.5q-6 -32 -17.5 -59.5t-30 -48t-46 -32.5t-66.5 -12q-66 0 -111 31t-68.5 80.5t-26 111t17.5 121.5z" />
    <glyph glyph-name="K" unicode="K" horiz-adv-x="512" 
d="M436 11q-20 39 -53.5 93.5t-74.5 109.5t-86 103.5t-89 76.5q1 -15 -1.5 -45t-6 -67t-8 -78t-9 -78t-8 -67t-4.5 -44q-4 -13 -15 -18t-22.5 -3.5t-19.5 9.5t-7 21q19 50 29.5 124t14 157.5t2 169t-5.5 159t-9 127t-9 73.5q0 13 10 20t21.5 8t21 -5t9.5 -19
q1 -13 2.5 -34.5t3.5 -62t4.5 -106.5t4.5 -168q17 12 42.5 41t55 66.5t60 79.5t56.5 81t45.5 71.5t26.5 50.5q4 11 15.5 10.5t22 -7.5t16 -18.5t-1.5 -21.5q-5 -8 -21.5 -32.5t-41 -59.5t-54 -76t-60.5 -81t-61.5 -76t-55.5 -60q28 -21 60.5 -54t65 -72t63.5 -80t57 -77
t44 -65t26 -43q6 -12 1.5 -22t-14 -16t-21.5 -5.5t-21 10.5z" />
    <glyph glyph-name="L" unicode="L" horiz-adv-x="507" 
d="M89 836q1 -11 2 -50l2.5 -97.5t3 -133t3.5 -157t4 -169.5t4 -171q119 -2 207.5 11.5t142.5 27.5q13 1 21 -8.5t9.5 -21t-3.5 -21.5t-18 -10q-17 -3 -46 -4.5t-73.5 -5t-106.5 -10t-144 -17.5q-8 -1 -17.5 0t-17 5.5t-11.5 13.5t-2 23q6 42 7.5 111.5t0.5 150.5
t-4.5 166.5t-8 159.5t-9 128.5t-8.5 74.5q0 13 10 20t21.5 8t21 -5t9.5 -19z" />
    <glyph glyph-name="M" unicode="M" horiz-adv-x="649" 
d="M541 20q2 96 4.5 196.5t4.5 195t3.5 177t3.5 141.5q-21 -33 -44.5 -74.5t-47.5 -86.5t-48.5 -90t-47.5 -85q-8 -13 -19 -18.5t-22.5 -5t-22.5 6.5t-18 18q-24 40 -49.5 86l-51 92t-49.5 89t-45 76q1 -59 3 -142.5t4.5 -179.5t4.5 -198.5t5 -198.5q-2 -14 -12 -20.5
t-21 -6.5t-20.5 6.5t-10.5 19.5q5 42 6.5 113t0.5 155t-3.5 172.5t-6 165t-7.5 132.5t-8 76q0 12 8.5 18.5t19.5 8.5q8 5 17 3.5t15 -10.5q10 -14 24 -42.5t40.5 -76.5t68.5 -118t107 -167q62 92 103 160t66.5 115t40 76t24.5 43q2 11 12 15.5t21 3t20 -8.5t9 -19
q-4 -20 -8 -76t-7.5 -132.5t-6 -165t-3.5 -172.5t0.5 -155t6.5 -113q-1 -13 -10.5 -19.5t-20.5 -6.5t-21 6.5t-12 20.5z" />
    <glyph glyph-name="N" unicode="N" horiz-adv-x="560" 
d="M445 19q-21 46 -49.5 105.5t-61.5 125.5t-67.5 134.5t-67 132.5t-60.5 120t-47 96q1 -60 3 -144t4.5 -180t4.5 -196.5t5 -193.5q-2 -14 -12 -20.5t-21 -6.5t-20.5 6.5t-10.5 19.5q5 42 7 110.5t1.5 150t-2.5 167.5t-5.5 162t-8 134.5t-9.5 85.5q-3 15 5 24t20 11.5
t23.5 -1.5t16.5 -14q4 -9 23 -48t48 -97.5t66 -133t77 -154.5t81.5 -162t79.5 -155q3 70 5 146.5t3 152.5t2 147.5t1 131t-0.5 103t-0.5 64.5q0 13 9.5 19t21 5t21.5 -8t10 -20q-1 -7 -3 -46t-4.5 -100.5t-5.5 -140t-5 -164.5t-3.5 -173.5t-0.5 -167.5q0 -21 -8.5 -33.5
t-20.5 -16t-24.5 1.5t-19.5 20z" />
    <glyph glyph-name="O" unicode="O" horiz-adv-x="490" 
d="M204 -3q-62 5 -101 43t-59.5 97.5t-23.5 135t9 155.5q12 84 39 165.5t64 144.5t82 99t94 30q51 -7 85.5 -52.5t53 -114.5t22 -153.5t-7.5 -169.5q-10 -77 -32.5 -147.5t-55.5 -123.5t-75.5 -83t-93.5 -26zM291 808q-23 1 -45.5 -16.5t-44 -47.5t-40.5 -70t-34.5 -84.5
t-27 -90.5t-17.5 -88q-9 -61 -8.5 -122.5t13.5 -112.5t40 -85.5t71 -41.5q37 -6 71 21t62 74.5t48.5 108.5t29.5 124q10 72 8 147.5t-16.5 138t-42 103t-67.5 42.5z" />
    <glyph glyph-name="P" unicode="P" horiz-adv-x="477" 
d="M109 19q-2 -14 -12 -20.5t-21 -6.5t-20.5 6.5t-10.5 19.5q4 34 5.5 89.5t1.5 121.5t-1.5 138.5t-4 142.5t-5.5 132.5t-6 108.5q-6 3 -11 9t-6.5 13.5t1 15.5t12.5 14q-2 10 -2.5 17t-1.5 12q0 13 10 20t21.5 8t21 -5t9.5 -19v-5q34 13 74 23t80.5 13.5t78.5 -0.5
t67.5 -18.5t47.5 -41t19 -67.5q1 -49 -17 -95t-47 -87.5t-67 -77.5t-78 -65t-78 -49.5t-68 -30.5q2 -79 4 -159t4 -157zM408 737q0 30 -16 47.5t-42.5 26t-60.5 9t-69 -5t-69 -15.5t-60 -22q1 -29 2 -70t2 -90.5t2 -105.5t3 -116q71 25 128 66.5t97 89t61.5 96.5t21.5 90z
" />
    <glyph glyph-name="Q" unicode="Q" horiz-adv-x="570" 
d="M203 -4q-62 2 -101 39.5t-59.5 98.5t-23 137.5t9.5 156.5q12 84 39 165.5t64 144.5t82 99t94 30q51 -7 90.5 -51t64 -112t31 -153.5t-9.5 -173.5q-18 -95 -55 -178q32 -54 61.5 -95.5t50.5 -65.5q6 -12 1 -23t-14.5 -17.5t-21 -6t-17.5 12.5q-6 9 -12.5 19.5t-15.5 26.5
t-22.5 39.5t-34.5 59.5q-20 -35 -43 -63.5t-48.5 -49t-53.5 -31t-56 -9.5zM269 374q-5 13 0 23.5t14.5 16t20.5 4.5t18 -12q17 -40 36.5 -78.5t39.5 -75.5q11 30 20 61.5t14 63.5q14 85 9 162.5t-25 136.5t-52.5 94.5t-72.5 37.5q-23 1 -45.5 -16.5t-44 -47.5t-40.5 -70
t-34.5 -84.5t-27 -90.5t-17.5 -88q-9 -61 -8.5 -123t13.5 -113.5t40 -86.5t71 -42q23 -4 47 6.5t46.5 31t43.5 50.5t39 65q-20 34 -46 77t-59 98z" />
    <glyph glyph-name="R" unicode="R" 
d="M109 19q-2 -14 -12 -20.5t-21 -6.5t-20.5 6.5t-10.5 19.5q5 42 6.5 112.5t0.5 153.5t-3.5 170t-6 162.5t-7.5 131t-8 75.5q0 13 10 20t21.5 8t21 -5t9.5 -19q1 -9 1 -41t2 -74q15 19 39.5 44t56 48.5t66.5 42t69.5 24.5t66 -3.5t56.5 -41.5q17 -22 23.5 -53.5t3.5 -66.5
q-6 -61 -43 -115.5t-89.5 -99t-110.5 -78t-106 -52.5q9 -21 35.5 -49.5t61.5 -59t74.5 -61.5t76 -57.5t65.5 -47t42 -30.5q9 -6 7.5 -19.5t-10 -25t-23 -15t-31.5 9.5q-10 7 -33.5 28t-55.5 49t-67 60t-68 62.5t-59 56t-38 39.5q2 -75 4 -142.5t4 -139.5zM406 780
q-17 26 -43 33t-56 -2q-28 -8 -57.5 -27.5t-57.5 -45t-53.5 -56t-44.5 -61.5q2 -46 2.5 -99t2.5 -110q46 14 100 42.5t101.5 67.5t80.5 87.5t38 103.5q4 42 -13 67z" />
    <glyph glyph-name="S" unicode="S" horiz-adv-x="508" 
d="M29 296q-2 12 3 20t12.5 11.5t17 2.5t16.5 -6q8 -6 10 -19q6 -60 26.5 -108t52 -81t72 -51t84.5 -19q22 0 39.5 8.5t30.5 23.5t20.5 34.5t10.5 40.5q7 57 -16.5 99.5t-62 78t-85 68.5t-87 70t-67.5 83t-26 108q1 36 12.5 71t34 62t56 44t77.5 19q54 2 91 -21.5t59 -63
t29.5 -89t1.5 -100.5q-1 -9 -9.5 -14t-17.5 -5t-16.5 5t-7.5 14q2 49 -4.5 92t-23 73.5t-44.5 46.5t-69 10q-28 -4 -49.5 -17.5t-35.5 -33t-21.5 -43.5t-7.5 -49q-1 -59 27 -102t70.5 -78.5t90.5 -68t86.5 -71t59.5 -87.5t9 -116q-6 -30 -20 -56.5t-35.5 -46t-49 -30.5
t-60.5 -11q-48 1 -93.5 20t-83.5 56.5t-66 94t-41 131.5z" />
    <glyph glyph-name="T" unicode="T" horiz-adv-x="684" 
d="M637 862q13 0 21.5 -8.5t10.5 -19.5t-2.5 -21.5t-17.5 -13.5q-31 1 -72.5 -3.5t-84 -12t-81 -15.5t-62.5 -14q1 -34 2 -91.5t3 -127.5t3.5 -146t3.5 -146t3.5 -128t2.5 -92q-2 -14 -12 -20.5t-21 -6.5t-20.5 6.5t-10.5 19.5q2 20 3 69.5t1 116t-1 143t-2 150.5t-2.5 138
t-2.5 105q-20 -2 -55.5 -8t-73.5 -14t-73 -18t-55 -20q-13 -2 -21.5 6.5t-11.5 19.5t1.5 21.5t17.5 12.5q34 8 82 17t103 19t114 20.5t115.5 21t107 21t87.5 19.5z" />
    <glyph glyph-name="U" unicode="U" 
d="M31 837q1 16 11 24.5t21 8.5t19.5 -8.5t5.5 -26.5q-14 -109 -20 -223t-1 -218q4 -79 20 -148t42.5 -117.5t62 -71t77.5 -7.5q141 49 159 334q6 94 -1.5 207.5t-30.5 241.5q-3 18 5 25.5t19.5 8t21.5 -5.5t10 -16q19 -145 25.5 -258.5t1.5 -201.5q-5 -108 -29 -179.5
t-56.5 -115t-67 -63.5t-61.5 -25q-60 -12 -104.5 16t-74.5 82.5t-46.5 129t-20.5 155.5q-3 65 -2.5 130.5t3 125.5t6 110.5t5.5 85.5z" />
    <glyph glyph-name="V" unicode="V" horiz-adv-x="574" 
d="M14 815q0 13 9 21.5t20 10t21.5 -3.5t13.5 -18q1 -33 8.5 -85.5t19.5 -116t26.5 -133t29.5 -137t29.5 -129.5t26.5 -109q19 49 43.5 114.5t52 137.5t56.5 145.5t55.5 139.5t49.5 118.5t40 82.5q7 12 19 14t22.5 -2.5t16 -14.5t1.5 -22q-17 -23 -38.5 -65.5t-45 -97
t-48.5 -118.5t-49 -129t-47 -128.5t-42 -117.5t-34 -95.5t-24 -63.5q-4 -9 -13.5 -13.5t-20 -4.5t-19.5 4.5t-11 13.5q-7 27 -18 75t-25.5 111t-30.5 137t-32.5 154t-32.5 163t-29 162z" />
    <glyph glyph-name="W" unicode="W" horiz-adv-x="912" 
d="M245 37q-9 61 -24.5 136t-34.5 154t-40.5 157t-43 144t-41.5 115.5t-36 71.5q-8 11 -3 22t15.5 17.5t22 6t17.5 -12.5q15 -30 32 -76.5t34.5 -103t34.5 -119.5t33 -125t30.5 -119t25.5 -102.5t19 -76t12 -38.5q15 36 32 90t34.5 117t34.5 129.5t31 126.5t24.5 109.5
t15.5 78.5q1 9 8.5 16t16.5 9t18 -1.5t14 -13.5q3 -6 9 -35t14.5 -73.5t19 -100t22 -114.5t23.5 -116.5t23.5 -106t22 -83.5t19.5 -48q1 37 7.5 98.5t18 135.5t26.5 154t33 154t37.5 135.5t40.5 98.5q6 12 16.5 14t19.5 -2.5t14 -13t-1 -17.5q-23 -39 -43.5 -104t-38 -142
t-31.5 -159.5t-24 -157t-15.5 -134t-5.5 -90.5q0 -18 -12 -27t-27.5 -10t-31 6t-23.5 21q-3 5 -8 12.5t-13 28t-19 58.5t-25.5 105t-32.5 167t-40 245q-4 -17 -13.5 -61t-24 -103t-31.5 -126.5t-35 -130.5t-36 -115.5t-33 -81.5q-7 -14 -20 -22t-26 -8t-24 8.5t-14 28.5z
" />
    <glyph glyph-name="X" unicode="X" horiz-adv-x="566" 
d="M20 47q50 94 112 199t124 207q-39 65 -77 126t-69.5 110.5t-54 84t-31.5 46.5q-6 12 0 23t16 16.5t21 4.5t17 -13q7 -17 26 -50t46.5 -79t62 -102.5t72.5 -118.5q38 62 72.5 118.5t62 102.5t46.5 79t27 50q6 12 17 13t21 -4.5t16 -16.5t0 -23q-9 -12 -32 -46.5t-54.5 -84
t-69 -110.5t-76.5 -126q62 -102 123.5 -207.5t112.5 -198.5q4 -13 -2 -23.5t-16 -15.5t-21.5 -3.5t-17.5 13.5q-10 27 -30.5 68.5t-48.5 92.5t-61.5 108.5t-68.5 116.5q-35 -59 -68 -116.5t-61 -108.5t-48.5 -92.5t-30.5 -68.5q-6 -12 -17.5 -13.5t-21.5 3.5t-16 15.5
t-2 23.5z" />
    <glyph glyph-name="Y" unicode="Y" horiz-adv-x="488" 
d="M296 10q-5 -13 -16.5 -17t-22.5 -1t-18.5 12t-4.5 22q21 55 41 146.5t52 223.5q-40 47 -87.5 103.5t-90 111.5t-75 102t-43.5 74q-7 11 -3 22.5t13 19t20 8t18 -10.5q4 -17 24 -54t54 -86t81 -105t106 -112q15 66 28.5 127.5t24 112t17 86.5t7.5 50q4 12 15.5 16.5
t22.5 2.5t19 -10t4 -21q-2 -10 -10 -49.5t-22 -101.5t-31.5 -141.5t-37.5 -167.5t-42 -181t-43 -182z" />
    <glyph glyph-name="Z" unicode="Z" horiz-adv-x="598" 
d="M563 79q11 -3 16.5 -12t5.5 -19.5t-5.5 -19t-16.5 -8.5q-36 6 -85 7.5t-103 -1t-108.5 -6.5t-101.5 -8.5t-82 -8t-50 -3.5q-10 0 -15 6.5t-5.5 15.5t2.5 19t9 16q21 23 55.5 74.5t76 120t87.5 146.5t89.5 152t82 138.5t66.5 105.5q-51 -4 -116.5 -15t-128.5 -22
t-113.5 -20t-71.5 -8q-11 1 -18.5 11.5t-9 22t2.5 21t15 8.5q50 -2 103 3t111.5 14t123 20.5t138.5 22.5q7 1 14.5 -5.5t12 -15.5t5.5 -19.5t-4 -17.5q-19 -27 -56 -87t-82.5 -136t-94.5 -159t-93 -156t-78 -127.5t-48 -72.5q12 -1 38.5 1t64 5t82.5 6.5t93 6t97.5 4
t94.5 0.5z" />
    <glyph glyph-name="bracketleft" unicode="[" horiz-adv-x="296" 
d="M107 -29q7 0 44 2.5t91 13.5q14 2 21 -6.5t8 -19.5t-5 -21.5t-19 -12.5q-32 2 -72.5 -1.5t-73.5 -7.5q-18 -2 -28.5 1t-15.5 9t-6 14.5t-1 16.5v84t-1 113.5t-2.5 133t-3 141.5t-4 138.5t-4.5 125t-4.5 101t-5.5 66.5q-1 9 0 18t6 17.5t16.5 14.5t31.5 9q29 4 64.5 9
t65.5 10q13 -1 21.5 -8.5t10 -17t-3.5 -18t-18 -10.5q-11 -1 -30 -3.5t-39.5 -6t-39.5 -7t-29 -6.5z" />
    <glyph glyph-name="backslash" unicode="\" horiz-adv-x="372" 
d="M304 8q-30 80 -62.5 169t-64 177t-60.5 169t-52 145.5t-38 107.5t-19 54q-5 12 1.5 21t17.5 13t23 0.5t17 -15.5q3 -15 14 -51.5t27.5 -88t38 -114.5t45 -129t47.5 -132t47 -124t43 -104.5t35 -74.5q4 -12 -2.5 -21.5t-17 -14t-22 -2t-18.5 14.5z" />
    <glyph glyph-name="bracketright" unicode="]" horiz-adv-x="323" 
d="M222 863q-11 3 -29.5 6.5t-39 7t-39.5 6t-30 3.5q-13 2 -18 10.5t-3.5 18t9.5 17t22 8.5q30 -5 65.5 -10t64.5 -9q20 -3 31.5 -9t16.5 -14.5t6 -17.5t0 -18q-3 -23 -5.5 -66.5t-4.5 -101t-4.5 -125t-4 -138.5t-3 -141.5t-2.5 -133t-1 -113.5v-84q0 -8 -1 -16.5t-6 -14.5
t-15.5 -9t-28.5 -1q-33 4 -73.5 7.5t-72.5 1.5q-13 2 -19 12.5t-5 21.5t8 19.5t21 6.5q54 -11 91 -13.5t44 -2.5z" />
    <glyph glyph-name="asciicircum" unicode="^" horiz-adv-x="231" 
d="M139 385q1 -3 5 -11t10 -19t12.5 -23t12.5 -23q4 -9 0.5 -16.5t-11.5 -11.5t-17 -3t-15 10q-4 7 -8.5 16.5t-16.5 35.5q-5 -12 -7.5 -17l-4.5 -9t-4 -8.5t-6 -14.5t-13.5 -12.5t-18 0.5t-12.5 12t4 22q12 25 19 38.5t14 31.5q3 9 11.5 13t17.5 4t17 -4t11 -11z" />
    <glyph glyph-name="underscore" unicode="_" horiz-adv-x="563" 
d="M70 -17q-14 2 -20.5 12t-6.5 21t6.5 20t19.5 9q63 -8 126.5 -10t121 -0.5t104.5 6t76 9.5q13 0 20 -10t8 -21.5t-5 -21t-19 -9.5q-17 -1 -38.5 -1h-66t-121.5 -0.5t-205 -3.5z" />
    <glyph glyph-name="grave" unicode="`" horiz-adv-x="155" 
d="M57 598q2 -2 9.5 -9t18 -16.5t21.5 -20t20 -19.5q7 -7 6 -15.5t-6.5 -15t-14 -8.5t-16.5 6q-6 5 -21 22.5t-44 43.5q-8 7 -6.5 15t7.5 14t13.5 7.5t12.5 -4.5z" />
    <glyph glyph-name="a" unicode="a" horiz-adv-x="477" 
d="M363 203q-17 -41 -35 -75.5t-41.5 -61.5t-52.5 -44t-68 -21q-20 -2 -41.5 2.5t-38.5 16.5q-29 19 -38.5 50.5t-7 66t13 69.5t21.5 62q17 42 42 79.5t57 66.5t70 46t82 17q12 0 26 -5t26 -15.5t20.5 -27t9.5 -38.5q2 -45 2 -83.5t1.5 -82.5t6.5 -98.5t16 -130.5
q2 -14 -5 -21t-17 -7.5t-19.5 3t-10.5 10.5q-4 17 -7 45.5t-5.5 60t-4 62.5t-2.5 54zM119 245q-6 -15 -14.5 -41.5t-12.5 -55t0 -53.5t25 -37q18 -10 45 -10q30 0 55.5 18t46.5 47.5t36.5 66t25.5 73.5t15 71t5 58q0 18 -7 28.5t-25 10.5q-30 0 -59 -13.5t-54 -37t-46 -55.5
t-36 -70z" />
    <glyph glyph-name="b" unicode="b" horiz-adv-x="450" 
d="M430 261q-1 -50 -16.5 -96.5t-41.5 -82.5t-61.5 -58t-77.5 -23q-27 -1 -58 7.5t-60 38.5q1 -14 -7 -23t-19 -11t-21.5 4.5t-12.5 23.5q6 55 7 120.5t-0.5 136.5t-5 144t-7.5 143t-7.5 134t-4.5 116q0 15 9.5 24t21 10t21.5 -6.5t10 -24.5q1 -49 0 -114.5t-1 -137
t3.5 -143.5t14.5 -133q3 3 9 16t15.5 31t24 38t35.5 37t49 29.5t65 15.5t60.5 -19t36 -55t16.5 -72t3 -70zM131 138q0 -21 10 -38t25 -28t33.5 -16t36.5 -2q30 4 56 22.5t45 46t30 62t11 70.5q0 15 -0.5 43.5t-6 56.5t-19.5 48.5t-41 20.5q-43 0 -76.5 -32.5t-56.5 -78
t-35 -94t-12 -81.5z" />
    <glyph glyph-name="c" unicode="c" horiz-adv-x="400" 
d="M75 44q-29 33 -40.5 78t-8.5 94q2 33 10.5 66t21.5 63.5t30 57.5t38 47q29 28 65.5 41t78.5 4q22 -5 35 -24t19 -45t6 -56.5t-2 -58.5q-1 -14 -10 -20.5t-19 -6.5t-18 6.5t-7 18.5q1 19 1.5 40t-0.5 39t-4.5 31.5t-9.5 17.5q-30 19 -58.5 6t-51.5 -44
q-12 -17 -24.5 -38.5t-22.5 -46t-17 -51t-9 -52.5q-3 -39 7.5 -74.5t38.5 -61.5q23 -21 53 -24q44 -4 85 19.5t64 81.5q6 14 16 18.5t19.5 2t15 -10.5t1.5 -19q-15 -43 -37 -71t-48 -44t-55 -22.5t-59 -6.5q-33 0 -59 12.5t-45 32.5z" />
    <glyph glyph-name="d" unicode="d" horiz-adv-x="469" 
d="M373 17q0 28 1.5 58t-3.5 78q-34 -65 -82.5 -103.5t-117.5 -38.5q-39 0 -65.5 15t-42.5 40t-22.5 58t-6.5 68q0 54 15 106t41 93t59.5 65t71.5 22q25 -2 44.5 -6.5t36.5 -13.5t33 -22.5t33 -32.5q3 25 5.5 60t4 75t2.5 81.5t1.5 80.5t0.5 72v56q2 17 13.5 26t24.5 10
t25 -7t15 -24q-8 -50 -13 -124t-9.5 -152.5t-8 -152.5t-7.5 -125q-2 -24 -2 -55.5t1.5 -65t5 -66.5t9.5 -60q3 -17 -6 -27t-22 -12.5t-24 3.5t-11 21zM82 201q0 -20 3 -44t12 -45.5t25.5 -36t43.5 -14.5q47 0 83.5 25t62.5 62.5t40.5 81t16.5 81.5q-29 54 -65 85.5t-90 29.5
q-24 -1 -47.5 -20.5t-42 -51.5t-30.5 -72t-12 -81z" />
    <glyph glyph-name="e" unicode="e" horiz-adv-x="462" 
d="M366 28q-27 -22 -64.5 -35.5t-76 -13t-73 19t-53.5 60.5q-11 23 -16 49t-6.5 51t-1 47.5t1.5 39.5q-8 -1 -23.5 -0.5t-23.5 0.5q-10 0 -15 8t-4 17t7 17t18 8h30t18 1q8 39 24 73.5t39.5 61t54.5 42.5t69 17q42 1 68 -20t41 -52t21.5 -66t9.5 -63q1 -14 -10 -24t-28 -12
q-88 -9 -147 -11t-97 -1q-9 -51 -2 -91t21 -72q15 -31 39.5 -42t52.5 -7.5t56 18t50 34.5q37 32 55 75q5 10 15.5 10t19.5 -6.5t13.5 -16.5t-2.5 -20q-8 -12 -18 -25.5t-21 -26.5t-21.5 -25t-20.5 -19zM268 438q-48 -2 -81.5 -36.5t-48.5 -105.5h27.5h43t49.5 1t47.5 3t35 6
t14.5 10q0 12 -4.5 33t-15 41t-27 34.5t-40.5 13.5z" />
    <glyph glyph-name="f" unicode="f" horiz-adv-x="384" 
d="M331 457q13 3 23 -3t14 -15t1 -19t-15 -15q-73 -17 -123 -37.5t-88 -37.5q6 -38 11 -73.5t11.5 -71t14 -72.5t17.5 -78q4 -16 -4.5 -26.5t-20.5 -13t-23 4t-13 24.5q-3 20 -6.5 55.5t-8.5 76t-11 80.5t-13 70q-11 -6 -23 -11.5t-22 -11.5q-12 -5 -22.5 2t-15 17.5
t-2.5 21.5t15 15q9 4 13 5.5t9 3.5t13 5t25 9q-5 52 -8.5 119t1.5 138q8 105 34 160t70 74q30 13 58.5 5.5t51 -37t36.5 -82.5t16 -131q0 -18 -7.5 -26.5t-16.5 -8.5t-16.5 8t-7.5 23q0 61 -9.5 103.5t-24.5 67.5t-32.5 33t-32.5 0q-12 -6 -23 -23.5t-20 -42.5t-15.5 -56
t-9.5 -64q-3 -26 -3 -57t1 -63t3 -63t5 -58q31 11 77.5 29.5t116.5 46.5z" />
    <glyph glyph-name="g" unicode="g" horiz-adv-x="417" 
d="M19 -63q1 18 9.5 26t17.5 7.5t15.5 -9.5t5.5 -24q-3 -34 -0.5 -71.5t14.5 -69t34.5 -53t57.5 -24.5q27 -2 49.5 12t40 38t31 54.5t23 62t15 60t7.5 48.5q7 66 8.5 120t-1.5 105q-11 -37 -29.5 -74t-43 -66.5t-53 -48t-57.5 -18.5q-39 0 -65.5 16t-42.5 42.5t-22.5 60.5
t-6.5 69q0 81 26.5 143.5t70 100t99 46.5t113.5 -16q19 -8 31.5 -44.5t20 -86t10.5 -106.5t2.5 -106.5t-3 -85t-5.5 -43.5q-4 -32 -11 -71t-19.5 -77.5t-31 -74t-43.5 -61.5t-58 -39.5t-74 -8.5q-41 4 -68.5 30t-43.5 64.5t-21.5 83.5t-1.5 89zM74 209q0 -20 3 -45.5t12 -48
t25.5 -37.5t43.5 -13q28 2 53.5 21.5t47 51t37.5 71.5t24 83q3 17 5.5 37.5t1 39.5t-8 34t-21.5 23q-40 20 -79.5 11.5t-71.5 -38.5t-52 -79t-20 -111z" />
    <glyph glyph-name="h" unicode="h" horiz-adv-x="438" 
d="M403 12q-1 -13 -10.5 -18t-20 -4t-19 7t-7.5 16q6 78 10 154.5t0.5 137.5t-18.5 97t-48 33q-19 -2 -38.5 -18t-38 -39.5t-35 -52t-29.5 -55.5t-22.5 -49.5t-12.5 -33.5l-6 -174q-2 -13 -11 -18.5t-19 -4t-18.5 9.5t-9.5 21q5 41 6 112t-1 154.5t-6 171.5t-8.5 164.5
t-9 132.5t-8.5 76q0 13 9 20t20.5 8.5t20.5 -3.5t9 -15q1 -12 3 -52t4.5 -95.5t5.5 -118t5.5 -118t4 -97.5t2.5 -56q14 26 34.5 59t45 62t52.5 49.5t58 21.5q45 1 70 -35.5t36 -102t9.5 -154.5t-9.5 -193z" />
    <glyph glyph-name="i" unicode="i" horiz-adv-x="136" 
d="M107 19q-2 -14 -11.5 -20.5t-20.5 -6.5t-20 6.5t-10 19.5q7 63 9 126.5t0 121t-6.5 104.5t-10.5 76q0 13 10 20t21.5 8t21 -5t9.5 -19q1 -17 1 -38.5t0.5 -66t2 -121.5t4.5 -205zM61 541q-18 0 -27.5 11t-9.5 24t9 24t28 11q18 0 27 -11t9 -24t-9 -24t-27 -11z" />
    <glyph glyph-name="j" unicode="j" horiz-adv-x="196" 
d="M-221 -95q0 18 7.5 26.5t16.5 8.5t16.5 -8t7.5 -23q0 -34 12 -66.5t33 -57.5t50.5 -40t64.5 -15q41 0 67 31t41 74t21 88.5t6 75.5q0 66 -4.5 119.5t-13 104.5t-21 103.5t-28.5 115.5q-4 16 4 26.5t20 13t23.5 -4t13.5 -24.5q22 -120 33.5 -202t16.5 -133t5.5 -75.5
t0.5 -28.5q0 -32 -3 -70t-11.5 -76t-22.5 -72.5t-36 -61t-53 -41.5t-73 -13q-41 1 -76 20.5t-61 50.5t-41 71t-16 83zM60 544q-18 0 -27.5 11t-9.5 24t9 24t28 11q18 0 27 -11t9 -24t-9 -24t-27 -11z" />
    <glyph glyph-name="k" unicode="k" horiz-adv-x="434" 
d="M343 3q-64 75 -124.5 121.5t-114.5 71.5q2 -45 2.5 -89.5t2.5 -87.5q-2 -14 -12 -20.5t-21 -6.5t-20.5 6.5t-10.5 19.5q5 42 6.5 113t0.5 155t-3.5 172.5t-6 165t-7.5 132.5t-8 76q0 13 10 20t21.5 8t21 -5t9.5 -19q1 -13 2 -65t3 -129.5t4 -174t4 -198.5
q25 18 54.5 51.5t57.5 71t51 72.5t35 56q6 10 16.5 9t19.5 -8.5t13 -19.5t-3 -22q-8 -12 -25.5 -37.5t-44 -59t-59.5 -71.5t-71 -74q77 -50 141 -98.5t102 -90.5q9 -10 7 -21t-10 -19t-20 -10.5t-23 5.5z" />
    <glyph glyph-name="l" unicode="l" horiz-adv-x="147" 
d="M109 19q-2 -14 -12 -20.5t-21 -6.5t-20.5 6.5t-10.5 19.5q5 42 6.5 113t0.5 155t-3.5 172.5t-6 165t-7.5 132.5t-8 76q0 13 10 20t21.5 8t21 -5t9.5 -19q1 -11 2 -52.5t2.5 -104t3.5 -141t3.5 -165.5t4 -178t4.5 -176z" />
    <glyph glyph-name="m" unicode="m" horiz-adv-x="751" 
d="M641 7q4 19 10.5 57.5t10.5 85t5 96t-5.5 91t-22.5 69.5t-44 33q-33 5 -60 -15.5t-49 -56t-38.5 -81.5t-27.5 -92.5t-16 -88.5t-5 -69q0 -13 -10 -19.5t-22 -7t-22 4.5t-10 15q1 27 2.5 67t1 84t-4 87t-12 77t-24 54t-40.5 17q-29 -4 -56 -32t-49 -64t-37 -71t-19 -52
l-1 -182q-2 -13 -10.5 -18.5t-19 -4t-19 9.5t-9.5 21q5 62 4.5 125.5t-4.5 120.5t-10 104t-13 77q0 13 9 20t20.5 8.5t20.5 -3.5t9 -15q4 -35 6 -73t6 -80q13 25 31 54.5t40.5 54t49 41.5t56.5 17t50 -13t33.5 -33t21 -44t11 -46.5t5 -39.5t3.5 -23q15 37 31.5 75t39 68.5
t53 50.5t72.5 20q45 0 73 -23t42.5 -61.5t18 -88.5t1.5 -104t-8 -108t-11 -100q-1 -9 -11 -13.5t-21 -4t-19.5 6t-6.5 15.5z" />
    <glyph glyph-name="n" unicode="n" horiz-adv-x="443" 
d="M423 13q-1 -13 -10.5 -18.5t-20.5 -4.5t-19.5 7t-7.5 16q8 78 8 152t-10.5 131.5t-33 90.5t-59.5 28q-29 -3 -58 -31.5t-53 -64.5t-40.5 -71t-22.5 -52l-11 -182q-2 -13 -11 -18t-19 -3.5t-18.5 9.5t-8.5 21q9 62 12 125.5t2.5 120.5t-4.5 104t-9 77q1 13 10.5 20t20.5 8
t20 -4t9 -15q2 -35 1.5 -73t0.5 -80q15 25 34.5 54.5t43.5 54.5t51.5 41.5t57.5 16.5q45 0 75.5 -34t48.5 -95.5t23 -146t-2 -184.5z" />
    <glyph glyph-name="o" unicode="o" horiz-adv-x="386" 
d="M162 -15q-48 3 -78.5 25t-46 56.5t-18 78t6.5 88.5q9 48 30 94t50 81.5t64 56t73 17.5q39 -4 66 -30t41.5 -65t17.5 -86.5t-6 -95.5q-8 -44 -25.5 -84.5t-43 -71.5t-59 -48.5t-72.5 -15.5zM225 427q-27 -2 -51 -20t-43.5 -46t-33.5 -62.5t-21 -70.5q-7 -35 -6.5 -68
t10.5 -59.5t29.5 -44.5t51.5 -21q28 -3 52 10t43 37.5t32 57t20 67.5q8 40 7.5 80.5t-10.5 72t-30 50.5t-50 17z" />
    <glyph glyph-name="p" unicode="p" horiz-adv-x="488" 
d="M448 254q-17 -64 -51 -110t-80 -74t-101.5 -37.5t-113.5 0.5q-5 -117 -6.5 -194.5t0.5 -129.5q-2 -17 -13.5 -26t-24.5 -10t-25 6.5t-15 24.5q7 50 12.5 115.5t10 134t8 134t7.5 116.5q2 24 2 55.5t-1.5 65t-5 66.5t-9.5 60q-3 16 6 26.5t22 13t24 -3.5t11 -21v-70t5 -89
q16 41 40.5 73.5t54 55t62.5 34t68 11.5q44 0 71 -19.5t40 -51.5t13 -73t-11 -83zM109 172q-2 -21 -2.5 -42.5t-2.5 -44.5q110 -16 180.5 25t111.5 152q12 31 14.5 61.5t-4.5 54.5t-23.5 38.5t-42.5 14.5q-47 0 -88 -26.5t-72 -65.5t-50 -84t-21 -83z" />
    <glyph glyph-name="q" unicode="q" horiz-adv-x="400" 
d="M357 192q-8 -52 -15.5 -105.5t-10.5 -118.5q-1 -20 -1.5 -46.5t1 -55t6.5 -56t15.5 -49t28.5 -34.5t46 -11q19 1 31.5 14.5t18.5 34t4.5 45.5t-10.5 48.5t-26 43t-43 29.5q-9 3 -10.5 12t2 18t11 14.5t16.5 2.5q37 -14 60 -41.5t34 -61t11 -69.5t-10.5 -66t-30 -50
t-46.5 -23q-42 -5 -70.5 7t-47 35.5t-27.5 56t-12.5 68.5t-3 72.5t1.5 69.5q-2 8 0.5 42t9.5 83q-26 -38 -59 -63.5t-68 -25.5q-39 0 -65.5 16t-42.5 42.5t-22.5 60.5t-6.5 69q0 81 25.5 142.5t68 98t97 45t112.5 -16.5q19 -9 29 -28.5t14 -44.5t3 -54t-4 -57t-7.5 -52.5
t-6.5 -40.5zM74 209q0 -20 3 -45.5t12 -48t25.5 -37.5t43.5 -13q28 2 53.5 21.5t47 51t37.5 71.5t24 83q3 17 5.5 37.5t1 39.5t-8 34t-21.5 23q-40 20 -79.5 11.5t-71.5 -38.5t-52 -79t-20 -111z" />
    <glyph glyph-name="r" unicode="r" horiz-adv-x="460" 
d="M428 315q2 -12 -4.5 -19t-16 -8.5t-18 2.5t-11.5 16q-9 44 -22 69.5t-28 37.5t-31 14t-30 -1q-19 -4 -36 -20.5t-31.5 -39.5t-26.5 -50t-20.5 -52.5t-14 -46.5t-7.5 -33l18 -166q0 -14 -7.5 -22.5t-18 -11t-20 2t-12.5 18.5q-2 63 -9.5 131t-18.5 129.5t-23 112t-22 79.5
q-2 13 6.5 21.5t19.5 10.5t21 -2t11 -14q4 -18 8 -40t8 -46l8 -48t8 -45q10 28 25.5 59t35.5 58.5t45 47.5t55 25q26 4 51.5 -2.5t47 -26.5t37.5 -54.5t23 -85.5z" />
    <glyph glyph-name="s" unicode="s" horiz-adv-x="397" 
d="M21 160q-4 16 3.5 24.5t18.5 10t21 -4.5t12 -19q3 -28 18 -53.5t39 -45t56 -31t69 -11.5q23 0 39.5 8.5t24 22t4.5 29.5t-20 31q-24 21 -67 45.5t-85 55.5t-71.5 69.5t-26.5 87.5q1 22 12 44t30.5 38.5t47.5 27t63 10.5q42 0 71.5 -17t48 -41.5t27.5 -53t9 -52.5
q0 -12 -8.5 -18t-18.5 -7t-18.5 4.5t-8.5 17.5q-1 19 -5.5 40.5t-16.5 39.5t-32.5 30t-51.5 12q-43 0 -70 -24t-29 -67q-1 -24 11 -44.5t33 -38.5t47.5 -34.5t53.5 -32t52 -31t43 -32.5q27 -25 31 -53.5t-10 -53t-42.5 -40.5t-65.5 -16q-41 0 -79.5 10t-70 31t-55 53.5
t-33.5 78.5z" />
    <glyph glyph-name="t" unicode="t" horiz-adv-x="404" 
d="M410 533q13 0 21.5 -8.5t10.5 -19.5t-2.5 -21.5t-17.5 -13.5q-56 -4 -111 -11.5t-106 -17.5q2 -102 4.5 -210.5t5.5 -211.5q-2 -14 -12 -20.5t-21 -6.5t-20.5 6.5t-10.5 19.5q3 30 5 75t2.5 99.5t-0.5 115.5t-3 123q-49 -11 -88.5 -22.5t-65.5 -20.5q-13 -2 -21.5 6.5
t-11.5 19.5t1.5 21.5t17.5 12.5q11 3 23 5.5t30.5 6t45.5 8.5t68 13q-2 61 -4.5 118.5t-5.5 104.5t-5.5 80.5t-5.5 47.5q0 13 10 20t21.5 8t21 -5t9.5 -19q0 -9 1 -39t2.5 -76t2.5 -104.5t3 -125.5l90 18t116 24z" />
    <glyph glyph-name="u" unicode="u" horiz-adv-x="365" 
d="M24 446q0 16 9 24.5t20 8.5t20 -8.5t8 -26.5q-1 -12 -2 -45.5t-0.5 -77t4.5 -91t14.5 -87t29.5 -65t49 -25.5q27 0 46.5 21.5t33 56.5t21.5 79.5t11.5 90t4 88.5t-1.5 75q-1 18 8.5 24.5t20.5 5t20.5 -9.5t8.5 -18q-2 -143 -18 -234t-41 -143t-55.5 -71t-61.5 -18
q-41 1 -68.5 27t-44 66t-24.5 90t-10.5 99.5t-2 92.5t0.5 71z" />
    <glyph glyph-name="v" unicode="v" horiz-adv-x="443" 
d="M226 27q-10 51 -30 105t-46.5 106t-59 99t-66.5 82q-8 8 -7.5 19.5t6 19.5t15 9.5t18.5 -9.5q53 -52 90.5 -111.5t62.5 -113t38 -94.5t18 -56q26 108 50.5 209.5t47.5 182.5q6 22 18.5 29t23 2.5t16.5 -17.5t-1 -31q-19 -56 -51 -162.5t-60 -260.5q-3 -17 -15 -27
t-26 -12.5t-26 5t-16 26.5z" />
    <glyph glyph-name="w" unicode="w" horiz-adv-x="657" 
d="M113 8q-6 88 -18.5 157.5t-26.5 119.5t-26.5 80t-19.5 39t-2.5 19.5t14 17.5t20 7.5t16.5 -11.5q31 -60 47 -120.5t24.5 -112.5t13 -90.5t11.5 -54.5q40 94 75 196t66 192q10 30 44 13q7 -4 18.5 -29.5t24.5 -63.5t27.5 -83t29 -87.5t28 -77.5t25.5 -53q23 21 38.5 66
t25 99.5t13 113.5t2.5 109q-1 13 8 20t19.5 7t19 -8t8.5 -24v-38t-2 -64.5t-7.5 -81.5t-15.5 -87.5t-26 -84t-40 -69.5q-14 -16 -29.5 -21.5t-30 -1.5t-26.5 17t-19 34l-103 315q-13 -23 -27 -65t-31 -92.5t-37.5 -105.5t-46.5 -103q-7 -14 -20.5 -21.5t-27 -8t-24.5 8
t-12 28.5z" />
    <glyph glyph-name="x" unicode="x" horiz-adv-x="427" 
d="M20 44q45 47 82 87t68 77q-26 33 -50.5 65.5t-45 61.5t-35.5 53.5t-22 41.5q-7 11 -3 22.5t13 19t20 8t18 -10.5q11 -28 43 -82.5t95 -134.5q63 80 96.5 133t44.5 81q7 11 17.5 10.5t18.5 -7t11 -17.5t-4 -22q-7 -17 -22 -41t-35.5 -52.5t-44.5 -60.5t-50 -65
q31 -37 69.5 -78.5t84.5 -88.5q6 -12 2 -23t-13.5 -18t-21 -7t-19.5 10q-29 32 -64 73.5t-71 86.5q-36 -45 -71 -86.5t-64 -73.5q-8 -10 -19 -10t-19 7t-11.5 18t2.5 23z" />
    <glyph glyph-name="y" unicode="y" horiz-adv-x="503" 
d="M300 -312q-5 -13 -16.5 -17t-22.5 -1t-18.5 12t-4.5 22q10 27 18.5 55.5t17.5 64.5t19.5 83.5t26.5 113.5q-40 47 -87.5 103.5t-90 111.5t-75 102t-43.5 74q-7 11 -3 22.5t13 19t20 8t18 -10.5q4 -17 24 -54t54 -86t81 -105t106 -112q15 66 28.5 127.5t24 112t17 86.5
t7.5 50q4 12 15.5 16.5t22.5 2.5t19 -10t4 -21q-3 -10 -12.5 -47.5t-23 -94.5t-31 -130t-36 -155t-37 -169.5t-35.5 -173.5z" />
    <glyph glyph-name="z" unicode="z" horiz-adv-x="406" 
d="M364 68q12 -2 18 -10.5t6 -19t-5.5 -19.5t-16.5 -10q-54 6 -103 5t-91 -4.5t-75.5 -8.5t-55.5 -7q-10 -1 -15 5t-6.5 15.5t0.5 19.5t8 16q30 36 54.5 70t52 75.5t62.5 96t85 131.5q-48 3 -84.5 1.5t-65.5 -5t-52.5 -9t-45.5 -10.5q-11 0 -17.5 9.5t-7 20.5t4.5 20.5
t16 9.5l15 1.5t13 1t22.5 1.5t43 2.5t75 4.5t118.5 8q7 0 13.5 -5t10.5 -13t4 -17.5t-5 -17.5q-25 -37 -58.5 -88t-68 -103.5t-65.5 -100.5t-50 -79q18 0 36.5 1t47 2.5t71.5 4t111 5.5z" />
    <glyph glyph-name="braceleft" unicode="{" horiz-adv-x="338" 
d="M63 51q-4 57 16 108.5t45.5 99t47 93t19.5 90.5q-4 21 -17.5 25t-31 0.5t-36.5 -10.5t-34 -8q-8 -2 -15.5 6t-10 19t2.5 21.5t21 14.5q17 4 36 9.5t35 15t25.5 23.5t8.5 35q-2 27 -18.5 53t-36 52t-36 54.5t-18.5 61.5q-2 46 21 72t59 38t77 14.5t75 3.5q12 1 16.5 -9
t3 -21.5t-8 -20t-16.5 -4.5q-18 0 -47.5 1t-57 -3.5t-47.5 -19t-20 -47.5q0 -28 16.5 -54t37 -52.5t38.5 -53t20 -56.5q2 -20 -6 -42t-22 -45q23 -11 33.5 -31.5t8.5 -46.5q-3 -40 -24.5 -87t-45.5 -97t-42.5 -101.5t-14.5 -100.5q1 -19 10 -37t22.5 -31.5t31 -21.5t36.5 -8
q6 0 11 -7.5t6 -17t-3 -19t-17 -12.5q-30 -1 -57.5 12.5t-48 35.5t-33.5 50t-15 56z" />
    <glyph glyph-name="bar" unicode="|" horiz-adv-x="875" 
d="M97 13q-30 0 -45 15t-18.5 36t2 43t17.5 35q3 10 5 19.5t0 23.5q-14 19 -16.5 37t0.5 33.5t9 27.5l10 20q5 9 0.5 22t-8.5 17q-4 3 -11 17t-10 34.5t1 45.5t23 51q33 46 78 87t94.5 74.5t99 57.5t91.5 36q10 3 17.5 13t9.5 20.5t-2.5 19t-19.5 8.5q-9 0 -12.5 -5.5
t-2.5 -11.5t6.5 -10.5t15.5 -2.5q6 1 4 -5.5t-8 -6.5q-15 0 -22.5 6.5t-8.5 15t3.5 18t15.5 17.5t24.5 10.5t27 1t25.5 -7t19 -13.5q4 14 14 25.5t24 17.5q-5 36 9.5 53.5t38.5 15.5q11 -1 9 -7.5t-8 -6.5q-20 0 -31 -11.5t-5 -39.5q12 2 23.5 -4t20.5 -16.5t14.5 -25
t4.5 -29.5v-2q20 -5 25 -16.5t14 -24.5l40 -22q15 -8 28.5 -15.5t15.5 -8.5l62 -49q7 -6 10.5 -34.5t5.5 -86t3.5 -147.5t4.5 -220q0 -7 -18 -15t-44 -20l-156 -39t-156.5 -34t-169 -25t-193.5 -12zM577 701q3 1 8.5 3.5t10.5 8t9 14.5t4 23q-20 -15 -46 -15q-25 0 -38.5 16
t-16.5 37q0 6 -7.5 14t-18 13.5t-21.5 7t-20 -5.5q11 -4 16 -15.5t4.5 -24.5t-8 -26t-22.5 -20q-2 -17 7.5 -21t22.5 -2t26.5 7t20.5 7q4 2 6 -0.5t2 -6t-2 -6.5t-6 -3q-27 -13 -45 -14.5t-27.5 3.5t-13 14.5t-2.5 19.5q-4 -1 -11 -3.5t-14.5 -5.5t-14.5 -6t-11 -5
q3 -22 20 -33.5t38.5 -14t44 2.5t36.5 16q8 2 9.5 -7t-7.5 -11q-13 -9 -37.5 -13.5t-49.5 -1.5t-45 16t-24 40q-13 0 -38 -14t-55.5 -35.5t-62 -47t-57 -49t-41.5 -41t-15 -23.5q87 1 168 3.5t160 11.5t159.5 28.5t167.5 55.5q9 4 17 4.5t10 -16.5q1 -7 2 -15.5t2.5 -24.5
t2.5 -43.5t3 -74t4.5 -115t5.5 -166.5q14 6 22.5 11t11.5 11q0 105 -1 177.5t-3 125t-4.5 90.5t-5.5 74q-3 6 -23 20.5t-44 29.5t-46 27.5t-29 14.5q-12 -27 -38.5 -51t-60.5 -42t-71.5 -28.5t-71 -10t-59 12.5t-35.5 39q-3 7 5.5 9t10.5 -5q6 -24 30.5 -33t57.5 -7
t70.5 13.5t69 29.5t52 40.5t20.5 47.5q0 16 -8 24t-13 8q-1 0 -2 -1q0 -12 -0.5 -24.5t-4.5 -24t-12.5 -20t-23.5 -12.5q-2 -2 -4 0t-3.5 4.5t-1 5.5t4.5 4zM66 352q87 0 177 10.5t179.5 29.5t175.5 45t165 57q0 7 -0.5 18.5t-2 24t-3.5 25t-5 22.5q-75 -33 -154.5 -53
t-165 -32t-176 -16.5t-186.5 -5.5q-13 -8 -18.5 -28t-5.5 -42t5.5 -38.5t14.5 -16.5zM70 194q16 1 80 6.5t159.5 18.5t215 34.5t246.5 54.5l-4 137q-46 -20 -102 -40t-117 -37t-124.5 -31.5t-125 -24.5t-119 -14t-105.5 -1q-12 -18 -16 -33.5t-3 -28t5.5 -23t9.5 -18.5z
M97 29q78 0 160.5 8.5t167.5 23t172 33.5t175 40q0 25 1 56t1 54q-21 -8 -61.5 -20t-94.5 -25t-119.5 -26t-137.5 -23.5t-147.5 -16t-149.5 -3.5q-12 -15 -15 -33t2.5 -33t17 -25t28.5 -10zM66 147q16 -5 53.5 -5t88 4.5t110 13t120 18.5t117.5 21.5t103 22.5t76.5 21.5
t37.5 18.5v33q-39 -15 -101 -29t-133.5 -26.5t-146.5 -23t-140 -19t-113.5 -13.5t-67.5 -6q2 -16 0.5 -20.5t-4.5 -10.5zM74 308q102 -1 203.5 14.5t193 38.5t168 49.5t128.5 46.5l-3 25q-49 -24 -112 -44.5t-132 -37t-138.5 -29.5t-130 -21.5t-108.5 -12t-73 -1.5
q2 -8 4 -17.5t0 -10.5zM693 605q-2 -4 -10.5 -11.5t-13.5 -10.5q-4 -5 -9 2t0 11q4 2 12.5 11t11.5 11q4 3 9 -2.5t0 -10.5zM530 595q4 1 15 1h17q5 0 5 -8t-6 -8q-5 0 -17 -0.5t-15 -0.5q-7 0 -6 7t7 9zM377 546q2 5 9.5 13.5t12.5 12.5q3 4 9 -2t1 -10q-4 -3 -11 -12.5
t-10 -11.5q-5 -5 -9.5 0t-1.5 10zM697 670q-3 -5 -13 -10t-16 -6q-5 -3 -7.5 3.5t2.5 10.5q5 2 14 8t14 7q4 2 7.5 -4t-1.5 -9zM249 555q3 3 13 8.5t15 7.5q5 3 8 -4.5t-2 -10.5q-4 -1 -14.5 -7.5t-13.5 -8.5q-5 -2 -8 5t2 10zM179 522q-3 3 -7.5 14t-6.5 17q-3 5 5 7t10 -3
q2 -4 7 -15t7 -14q1 -5 -6 -8t-9 2zM285 642q4 -2 12.5 -9.5t12.5 -12.5q4 -3 -1.5 -9t-10.5 -2q-2 3 -11.5 11.5t-12.5 10.5q-4 4 1 9.5t10 1.5z" />
    <glyph glyph-name="braceright" unicode="}" horiz-adv-x="298" 
d="M218 59q-4 -28 -19 -56.5t-37.5 -51t-51 -37t-58.5 -14.5q-12 3 -16 11.5t-2 18.5t7.5 18t11.5 8q19 0 37 8.5t33 22.5t25 32t13 37q7 49 -7.5 99.5t-35 100t-38.5 95.5t-18 86q0 26 12 46.5t35 32.5q-13 22 -18.5 44t-2.5 42q4 30 23.5 57.5t42 54t41.5 53.5t21 55
q2 32 -17 46t-46.5 17.5t-57 1t-47.5 -2.5q-11 -5 -16.5 3.5t-6 20t4.5 21.5t17 10q34 0 75 -1t76 -12t56.5 -36t15.5 -71q-4 -33 -22.5 -61.5t-40 -55.5t-40 -53t-22.5 -53q-3 -21 6 -35t24 -23t33.5 -14t35.5 -8q16 -3 20 -13.5t1 -21t-11 -19t-16 -6.5q-15 0 -33.5 6.5
t-36 9.5t-31.5 -2t-20 -26q-3 -30 4.5 -59.5t20.5 -59.5t28.5 -61t28 -64t18.5 -68t1 -73z" />
    <glyph glyph-name="asciitilde" unicode="~" horiz-adv-x="396" 
d="M313 369q1 9 8.5 13.5t16 5t15 -4t6.5 -14.5q-2 -42 -25.5 -65.5t-55.5 -27.5q-31 -3 -50.5 8.5t-35 26.5t-29.5 27.5t-34 11.5q-17 -2 -29 -15.5t-14 -36.5q-1 -9 -8.5 -13.5t-16 -5t-15 4t-6.5 14.5q1 23 9 40.5t20.5 29.5t29 17.5t34.5 5.5q27 -1 46 -14.5t34.5 -28.5
t30.5 -25.5t34 -4.5q14 4 23.5 17t11.5 34z" />
    <glyph glyph-name="exclamdown" unicode="&#xa1;" horiz-adv-x="146" 
d="M101.002 8.0459q-2 -12.999 -11.499 -19.999t-20.499 -7q-10.999 0 -19.999 6.5q-8.99902 6.5 -9.99902 19.499q5 41.9971 7 96.4941q2 54.4961 2.49902 113.993q0.5 59.4961 -0.499023 119.492q-1 59.9961 -3.5 111.993t-5.5 91.9941q-3 39.998 -7 58.9971
q0 12.999 10 20.498q9.99902 7.5 21.499 8q11.499 0.5 20.998 -5.5q9.5 -5.99902 9.5 -18.998q1.99902 -34.998 1 -186.489q-1 -151.49 5.99902 -409.475zM56.0049 695.004q-17.999 0 -27.498 10.999q-9.5 10.999 -9.5 23.999q0 12.999 9 23.998
q8.99902 10.999 27.998 10.999q17.999 0 26.998 -10.999q9 -10.999 9 -23.998q0 -13 -9 -23.999q-8.99902 -10.999 -26.998 -10.999z" />
    <glyph glyph-name="cent" unicode="&#xa2;" horiz-adv-x="412" 
d="M235 6q-2 -14 -11.5 -20.5t-20.5 -6.5t-20 6.5t-10 19.5q1 7 1 13.5t1 13.5q-30 2 -54.5 13.5t-41.5 31.5q-29 33 -40.5 78t-8.5 94q2 33 10.5 66t21.5 63.5t30 57.5t38 47q8 8 17 15t18 12q-2 11 -2.5 20.5t-2.5 17.5q0 13 10 20t21.5 8t21 -5t9.5 -19v-10t1 -12
q12 2 24.5 1.5t26.5 -3.5q22 -5 35 -24t19 -45t6 -56.5t-2 -58.5q-1 -14 -10 -20.5t-19 -6.5t-18 6.5t-7 18.5q1 19 1.5 40t-0.5 39t-4.5 31.5t-9.5 17.5q-22 13 -41 10q2 -55 3.5 -151t4.5 -240q30 8 56 31.5t42 64.5q6 14 16 18.5t19.5 2t15 -10.5t1.5 -19
q-24 -68 -63 -99.5t-85 -40.5v-14.5t1 -15.5zM128 108q21 -21 51 -24q2 44 2 93t-1 97t-3.5 93t-5.5 83q-8 -6 -16 -18q-12 -17 -24.5 -38.5t-22.5 -46t-17 -51t-9 -52.5q-3 -39 7.5 -74.5t38.5 -61.5z" />
    <glyph glyph-name="sterling" unicode="&#xa3;" horiz-adv-x="851" 
d="M688 447q13 -3 19 -13t5.5 -19.5t-7.5 -17t-20 -6.5q-73 18 -127 23t-95 7q-11 -28 -19 -56t-17 -56q25 -23 52 -62t54.5 -78.5t55.5 -71t54 -38.5q10 -3 28 -3.5t39 6t42.5 22t37.5 45.5q10 10 19.5 9.5t16 -7.5t8 -17t-4.5 -18q-21 -36 -50 -56.5t-57.5 -30t-53.5 -10
t-40 3.5q-23 6 -45 24.5t-42.5 42.5t-39.5 51.5t-36 52.5t-32 45t-28 29q-17 -42 -40 -86t-53 -80t-68 -59t-85 -23q-37 0 -64 13t-45 35t-26.5 52t-8.5 63q0 71 36 122.5t90.5 77t119 22t122.5 -42.5q13 31 18 46.5t10 32.5q-12 -1 -25.5 0.5t-25.5 -0.5q-13 2 -19 12.5
t-5 22t8 20.5t20 7l13.5 -1.5t10 -1t14 -2t26.5 -3.5q19 49 46.5 110.5t65.5 121.5q55 89 104 126t96 34q33 -3 55 -22.5t28 -56t-5.5 -90t-46.5 -123.5q-8 -16 -18.5 -20.5t-18.5 -0.5t-11 14.5t4 24.5q28 54 38.5 96t9 71.5t-13 44.5t-28.5 15q-14 0 -32 -10.5t-37 -28.5
t-39 -42.5t-38 -52.5q-15 -22 -29.5 -49.5t-28 -56t-26 -57.5t-22.5 -54q32 -4 82 -9t125 -13zM61 161q0 -20 6.5 -40t19.5 -36t32 -26t44 -10q28 0 59 21.5t59 56t51 77.5t34 84q-29 27 -62.5 39t-67.5 10.5t-65.5 -15.5t-56 -37t-39 -55t-14.5 -69z" />
    <glyph glyph-name="dieresis" unicode="&#xa8;" horiz-adv-x="267" 
d="M59 494q-18 0 -27.5 11t-9.5 24t9 24t28 11q18 0 27 -11t9 -24t-9 -24t-27 -11zM211 494q-18 0 -27.5 11t-9.5 24t9 24t28 11q18 0 27 -11t9 -24t-9 -24t-27 -11z" />
    <glyph glyph-name="copyright" unicode="&#xa9;" horiz-adv-x="655" 
d="M280 1q-75 5 -129 41.5t-85.5 93.5t-42 128.5t1.5 145.5q15 97 54.5 172t92 125t113.5 74t120 19q62 -6 108 -47t74.5 -104t38 -143t-1.5 -165q-10 -78 -42 -142.5t-78.5 -109.5t-104.5 -68t-119 -20zM387 756q-50 4 -99.5 -21.5t-92 -73.5t-75 -115t-47.5 -148
q-12 -63 -2.5 -123t36.5 -108.5t69.5 -80t96.5 -37.5q44 -6 93.5 13t93 57.5t75.5 93t42 119.5q14 90 4.5 166t-36 132t-67.5 89t-91 37zM199 194q-29 33 -40.5 78t-8.5 94q2 33 10.5 66t21.5 63.5t30 57.5t38 47q29 28 65.5 41t78.5 4q22 -5 35 -24t19 -45t6 -56.5
t-2 -58.5q-1 -14 -10 -20.5t-19 -6.5t-18 6.5t-7 18.5q1 19 1.5 40t-0.5 39t-4.5 31.5t-9.5 17.5q-30 19 -58.5 6t-51.5 -44q-12 -17 -24.5 -38.5t-22.5 -46t-17 -51t-9 -52.5q-3 -39 7.5 -74.5t38.5 -61.5q23 -21 53 -24q44 -4 85 19.5t64 81.5q6 14 16 18.5t19.5 2
t15 -10.5t1.5 -19q-15 -43 -37 -71t-48 -44t-55 -22.5t-59 -6.5q-33 0 -59 12.5t-45 32.5z" />
    <glyph glyph-name="guillemotleft" unicode="&#xab;" horiz-adv-x="571" 
d="M63 175q68 22 114.5 45.5t88.5 49.5q10 6 19.5 2t15 -13t4.5 -20.5t-13 -19.5q-47 -26 -90.5 -44.5t-85.5 -42.5q15 -5 30 -11t35 -13.5t47 -17t67 -21.5q18 -5 23 -17.5t1 -23.5t-16 -17t-29 2q-27 12 -51 22t-48 19.5t-51 18.5t-60 19q-16 5 -25 16.5t-10 24t7.5 24.5
t26.5 18zM291 188q68 22 114.5 45.5t88.5 49.5q10 6 19.5 2t15 -13t4.5 -20.5t-13 -19.5q-47 -26 -90.5 -44.5t-85.5 -42.5q15 -5 30 -11t35 -13.5t47 -17t67 -21.5q18 -5 23 -17.5t1 -23.5t-16 -17t-29 2q-27 12 -51 22t-48 19.5t-51 18.5t-60 19q-16 5 -25 16.5t-10 24
t7.5 24.5t26.5 18z" />
    <glyph glyph-name="registered" unicode="&#xae;" horiz-adv-x="655" 
d="M280 1q-75 5 -129 41.5t-85.5 93.5t-42 128.5t1.5 145.5q15 97 54.5 172t92 125t113.5 74t120 19q62 -6 108 -47t74.5 -104t38 -143t-1.5 -165q-10 -78 -42 -142.5t-78.5 -109.5t-104.5 -68t-119 -20zM387 756q-50 4 -99.5 -21.5t-92 -73.5t-75 -115t-47.5 -148
q-12 -63 -2.5 -123t36.5 -108.5t69.5 -80t96.5 -37.5q44 -6 93.5 13t93 57.5t75.5 93t42 119.5q14 90 4.5 166t-36 132t-67.5 89t-91 37zM257 142q-1 -8 -9.5 -12.5t-18.5 -4.5t-18 4t-8 12q3 24 4 67t0.5 94t-2 105.5t-3.5 101t-4.5 80.5t-4.5 46q0 7 8.5 11.5t18.5 4.5
t18.5 -3.5t8.5 -10.5v-24t1 -44q12 24 39.5 51.5t61 44.5t66.5 15.5t56 -35.5q29 -44 21 -88t-38 -83t-75 -70t-90 -49q8 -19 34 -44.5t56 -51t57 -46t39 -29.5q5 -4 1.5 -13.5t-11.5 -18.5t-19.5 -13t-21.5 4q-8 6 -31.5 29t-50.5 50t-51.5 53t-35.5 38q1 -45 1 -87t1 -84z
M433 609q-21 31 -58 18q-17 -5 -34.5 -19t-34 -33.5t-31.5 -40.5t-26 -39q1 -27 1.5 -47.5t1.5 -54.5q27 9 59 25.5t59.5 39.5t47 51.5t22.5 60.5q3 24 -7 39z" />
    <glyph glyph-name="macron" unicode="&#xaf;" horiz-adv-x="462" 
d="M59 494q-14 2 -20.5 12t-6.5 21t6.5 20t19.5 9q63 -8 112 -10t89 -1t72.5 5t61.5 9q13 0 20 -10t8 -21.5t-5 -21t-19 -9.5h-17.5h-14.5t-26 0.5t-50.5 0t-89 -1t-140.5 -2.5z" />
    <glyph glyph-name="acute" unicode="&#xb4;" horiz-adv-x="155" 
d="M98 598q5 6 12.5 4.5t13.5 -7.5t7.5 -14t-6.5 -15q-29 -26 -44 -43.5t-21 -22.5q-8 -8 -16.5 -6t-14 8.5t-6.5 15t6 15.5q9 9 20 19.5t21.5 20t18 16.5t9.5 9z" />
    <glyph glyph-name="cedilla" unicode="&#xb8;" horiz-adv-x="167" 
d="M68 -14q49 -11 69 -38.5t16 -57.5t-29.5 -55t-67.5 -30q-10 -1 -16 6.5t-7.5 17t1.5 17t12 7.5q24 -1 40 12t19 29.5t-10 30.5t-49 16q-5 0 -10.5 2.5t-9.5 10t-6 21t1 36.5q0 13 7.5 20t16.5 8t16 -5t7 -19v-29z" />
    <glyph glyph-name="guillemotright" unicode="&#xbb;" horiz-adv-x="573" 
d="M284 174q18 -6 26.5 -18t7.5 -24.5t-10 -24t-25 -16.5q-33 -10 -60 -19t-51 -18.5t-48 -19.5t-51 -22q-17 -8 -29 -2t-16 17t1 23.5t23 17.5q40 12 67 21.5t47 17t35 13.5t30 11q-42 24 -85.5 42.5t-90.5 44.5q-12 8 -13 19.5t4 20.5t15 13t20 -2q42 -26 88.5 -49.5
t114.5 -45.5zM510 172q18 -6 26.5 -18t7.5 -24.5t-10 -24t-25 -16.5q-33 -10 -60 -19t-51 -18.5t-48 -19.5t-51 -22q-17 -8 -29 -2t-16 17t1 23.5t23 17.5q40 12 67 21.5t47 17t35 13.5t30 11q-42 24 -85.5 42.5t-90.5 44.5q-12 8 -13 19.5t4 20.5t15 13t20 -2
q42 -26 88.5 -49.5t114.5 -45.5z" />
    <glyph glyph-name="questiondown" unicode="&#xbf;" horiz-adv-x="479" 
d="M319.011 466.022q0 -13.999 0.5 -27.999q0.5 -13.999 -4 -24.998t-16.999 -18.999q-12.499 -7.99902 -38.498 -9.99902q-30.998 -2 -62.9961 -15.999t-58.4961 -35.498t-43.4971 -49.9971t-17.999 -59.4961q-1 -57.9961 12.999 -97.9941q13.999 -39.9971 37.498 -65.4961
q23.498 -25.498 52.4961 -37.998q28.999 -12.499 56.9971 -14.499q35.998 -2.99902 70.4951 7.5q34.498 10.499 61.4971 33.998q26.998 23.498 42.4971 59.9961t13.499 85.4951q0 8.99902 7.5 13.999q7.49902 5 16.499 5q8.99902 0 17.498 -5q8.5 -5 9.5 -13.999
q5.99902 -50.9971 -9 -94.9941q-14.999 -43.998 -45.4971 -76.9961q-30.498 -32.9971 -74.9951 -50.9961t-98.4941 -15.999q-43.9971 2 -86.4941 18.499q-42.498 16.498 -74.4961 49.9961t-50.4971 83.4951q-18.498 49.9971 -14.499 116.993q5 81.9951 69.4961 141.991
t177.489 78.9951q0 19.999 -1 36.498t-1.5 34.498q-0.5 17.998 -1.5 39.9971t-2 52.9971q2 13.999 11.499 20.498q9.5 6.5 20.499 6.5q11 0 19.999 -6.5q8.99902 -6.49902 9.99902 -19.498q-3 -21.999 -3.99902 -38.998q-1 -16.999 -1.5 -32.998t-0.5 -32.998v-38.9971z
M298.012 832q17.999 0 27.498 -10.999q9.5 -11 9.5 -23.999t-9 -23.998q-8.99902 -11 -27.998 -11q-17.999 0 -26.998 11q-9 10.999 -9 23.998t9 23.999q8.99902 10.999 26.998 10.999z" />
    <glyph glyph-name="Agrave" unicode="&#xc0;" horiz-adv-x="587" 
d="M556 26q0 -14 -9 -22t-20 -9.5t-21.5 3.5t-13.5 18q-1 26 -4.5 64t-9.5 83.5t-14 98t-17 106.5q-68 -8 -130 -19.5t-112 -23.5q-34 -81 -67 -161t-63 -152q-7 -12 -19 -14t-22.5 2.5t-16.5 14.5t-1 22q22 38 55.5 110t71.5 160q-6 -2 -11.5 -3.5t-10.5 -3.5
q-13 -2 -22 6.5t-11.5 20t2 21.5t17.5 12q12 3 26.5 5.5t37.5 6.5q31 73 61 146.5t55 137t43 112t24 71.5q3 9 12.5 15t20 7t20 -4.5t11.5 -20.5q3 -20 9.5 -59.5t16 -93t20.5 -118.5t23 -136l22 4l22 4q14 0 22 -8t10 -19t-3 -21t-18 -13l-45 -3q14 -88 29.5 -176
t29.5 -171zM375 742q-13 -32 -29 -72.5t-35 -87t-39.5 -97.5t-42.5 -103q35 6 85.5 14.5t123.5 22.5q-8 45 -16 89.5t-16.5 86.5t-16 79.5t-14.5 67.5zM366 980q2 -2 9.5 -9t18 -16.5t21.5 -20t20 -19.5q7 -7 6 -15.5t-6.5 -15t-14 -8.5t-16.5 6q-6 5 -21 22.5t-44 43.5
q-8 7 -6.5 15t7.5 14t13.5 7.5t12.5 -4.5z" />
    <glyph glyph-name="Aacute" unicode="&#xc1;" horiz-adv-x="587" 
d="M556 26q0 -14 -9 -22t-20 -9.5t-21.5 3.5t-13.5 18q-1 26 -4.5 64t-9.5 83.5t-14 98t-17 106.5q-68 -8 -130 -19.5t-112 -23.5q-34 -81 -67 -161t-63 -152q-7 -12 -19 -14t-22.5 2.5t-16.5 14.5t-1 22q22 38 55.5 110t71.5 160q-6 -2 -11.5 -3.5t-10.5 -3.5
q-13 -2 -22 6.5t-11.5 20t2 21.5t17.5 12q12 3 26.5 5.5t37.5 6.5q31 73 61 146.5t55 137t43 112t24 71.5q3 9 12.5 15t20 7t20 -4.5t11.5 -20.5q3 -20 9.5 -59.5t16 -93t20.5 -118.5t23 -136l22 4l22 4q14 0 22 -8t10 -19t-3 -21t-18 -13l-45 -3q14 -88 29.5 -176
t29.5 -171zM375 742q-13 -32 -29 -72.5t-35 -87t-39.5 -97.5t-42.5 -103q35 6 85.5 14.5t123.5 22.5q-8 45 -16 89.5t-16.5 86.5t-16 79.5t-14.5 67.5zM412 981q5 6 12.5 4.5t13.5 -7.5t7.5 -14t-6.5 -15q-29 -26 -44 -43.5t-21 -22.5q-8 -8 -16.5 -6t-14 8.5t-6.5 15
t6 15.5q9 9 20 19.5t21.5 20t18 16.5t9.5 9z" />
    <glyph glyph-name="Acircumflex" unicode="&#xc2;" horiz-adv-x="587" 
d="M556 26q0 -14 -9 -22t-20 -9.5t-21.5 3.5t-13.5 18q-1 26 -4.5 64t-9.5 83.5t-14 98t-17 106.5q-68 -8 -130 -19.5t-112 -23.5q-34 -81 -67 -161t-63 -152q-7 -12 -19 -14t-22.5 2.5t-16.5 14.5t-1 22q22 38 55.5 110t71.5 160q-6 -2 -11.5 -3.5t-10.5 -3.5
q-13 -2 -22 6.5t-11.5 20t2 21.5t17.5 12q12 3 26.5 5.5t37.5 6.5q31 73 61 146.5t55 137t43 112t24 71.5q3 9 12.5 15t20 7t20 -4.5t11.5 -20.5q3 -20 9.5 -59.5t16 -93t20.5 -118.5t23 -136l22 4l22 4q14 0 22 -8t10 -19t-3 -21t-18 -13l-45 -3q14 -88 29.5 -176
t29.5 -171zM375 742q-13 -32 -29 -72.5t-35 -87t-39.5 -97.5t-42.5 -103q35 6 85.5 14.5t123.5 22.5q-8 45 -16 89.5t-16.5 86.5t-16 79.5t-14.5 67.5zM408 1000q1 -3 5 -11t10 -19t12.5 -23t12.5 -23q4 -9 0.5 -16.5t-11.5 -11.5t-17 -3t-15 10q-4 7 -8.5 16.5t-16.5 35.5
q-5 -12 -7.5 -17l-4.5 -9t-4 -8.5t-6 -14.5t-13.5 -12.5t-18 0.5t-12.5 12t4 22q12 25 19 38.5t14 31.5q3 9 11.5 13t17.5 4t17 -4t11 -11z" />
    <glyph glyph-name="Atilde" unicode="&#xc3;" horiz-adv-x="587" 
d="M556 26q0 -14 -9 -22t-20 -9.5t-21.5 3.5t-13.5 18q-1 26 -4.5 64t-9.5 83.5t-14 98t-17 106.5q-68 -8 -130 -19.5t-112 -23.5q-34 -81 -67 -161t-63 -152q-7 -12 -19 -14t-22.5 2.5t-16.5 14.5t-1 22q22 38 55.5 110t71.5 160q-6 -2 -11.5 -3.5t-10.5 -3.5
q-13 -2 -22 6.5t-11.5 20t2 21.5t17.5 12q12 3 26.5 5.5t37.5 6.5q31 73 61 146.5t55 137t43 112t24 71.5q3 9 12.5 15t20 7t20 -4.5t11.5 -20.5q3 -20 9.5 -59.5t16 -93t20.5 -118.5t23 -136l22 4l22 4q14 0 22 -8t10 -19t-3 -21t-18 -13l-45 -3q14 -88 29.5 -176
t29.5 -171zM375 742q-13 -32 -29 -72.5t-35 -87t-39.5 -97.5t-42.5 -103q35 6 85.5 14.5t123.5 22.5q-8 45 -16 89.5t-16.5 86.5t-16 79.5t-14.5 67.5zM516 976q1 9 8.5 13.5t16 5t15 -4t6.5 -14.5q-2 -42 -25.5 -65.5t-55.5 -27.5q-31 -3 -50.5 8.5t-35 26.5t-29.5 27.5
t-34 11.5q-17 -2 -29 -15.5t-14 -36.5q-1 -9 -8.5 -13.5t-16 -5t-15 4t-6.5 14.5q1 23 9 40.5t20.5 29.5t29 17.5t34.5 5.5q27 -1 46 -14.5t34.5 -28.5t30.5 -25.5t34 -4.5q14 4 23.5 17t11.5 34z" />
    <glyph glyph-name="Adieresis" unicode="&#xc4;" horiz-adv-x="587" 
d="M556 26q0 -14 -9 -22t-20 -9.5t-21.5 3.5t-13.5 18q-1 26 -4.5 64t-9.5 83.5t-14 98t-17 106.5q-68 -8 -130 -19.5t-112 -23.5q-34 -81 -67 -161t-63 -152q-7 -12 -19 -14t-22.5 2.5t-16.5 14.5t-1 22q22 38 55.5 110t71.5 160q-6 -2 -11.5 -3.5t-10.5 -3.5
q-13 -2 -22 6.5t-11.5 20t2 21.5t17.5 12q12 3 26.5 5.5t37.5 6.5q31 73 61 146.5t55 137t43 112t24 71.5q3 9 12.5 15t20 7t20 -4.5t11.5 -20.5q3 -20 9.5 -59.5t16 -93t20.5 -118.5t23 -136l22 4l22 4q14 0 22 -8t10 -19t-3 -21t-18 -13l-45 -3q14 -88 29.5 -176
t29.5 -171zM375 742q-13 -32 -29 -72.5t-35 -87t-39.5 -97.5t-42.5 -103q35 6 85.5 14.5t123.5 22.5q-8 45 -16 89.5t-16.5 86.5t-16 79.5t-14.5 67.5zM315 880q-18 0 -27.5 11t-9.5 24t9 24t28 11q18 0 27 -11t9 -24t-9 -24t-27 -11zM467 880q-18 0 -27.5 11t-9.5 24t9 24
t28 11q18 0 27 -11t9 -24t-9 -24t-27 -11z" />
    <glyph glyph-name="Aring" unicode="&#xc5;" horiz-adv-x="587" 
d="M556 26q0 -14 -9 -22t-20 -9.5t-21.5 3.5t-13.5 18q-1 26 -4.5 64t-9.5 83.5t-14 98t-17 106.5q-68 -8 -130 -19.5t-112 -23.5q-34 -81 -67 -161t-63 -152q-7 -12 -19 -14t-22.5 2.5t-16.5 14.5t-1 22q22 38 55.5 110t71.5 160q-6 -2 -11.5 -3.5t-10.5 -3.5
q-13 -2 -22 6.5t-11.5 20t2 21.5t17.5 12q12 3 26.5 5.5t37.5 6.5q31 73 61 146.5t55 137t43 112t24 71.5q3 9 12.5 15t20 7t20 -4.5t11.5 -20.5q3 -20 9.5 -59.5t16 -93t20.5 -118.5t23 -136l22 4l22 4q14 0 22 -8t10 -19t-3 -21t-18 -13l-45 -3q14 -88 29.5 -176
t29.5 -171zM375 742q-13 -32 -29 -72.5t-35 -87t-39.5 -97.5t-42.5 -103q35 6 85.5 14.5t123.5 22.5q-8 45 -16 89.5t-16.5 86.5t-16 79.5t-14.5 67.5zM385 917q15 0 22.5 9t7.5 19.5t-7.5 19.5t-22.5 9t-22.5 -9t-7.5 -19.5t7.5 -19.5t22.5 -9zM388 883q-22 -1 -36.5 8
t-22.5 23t-8 30t7 30.5t21.5 24t37.5 9.5q32 0 47.5 -19t15.5 -42t-16 -43t-46 -21z" />
    <glyph glyph-name="AE" unicode="&#xc6;" horiz-adv-x="966" 
d="M863 497q13 -1 20.5 -10t8.5 -20t-4.5 -20.5t-18.5 -11.5q-96 3 -171.5 -5t-144.5 -20q2 -86 4.5 -175t4.5 -177q17 1 38 3.5t59 6.5t100 10.5t161 17.5q13 -1 20.5 -10t8.5 -20t-4.5 -20.5t-18.5 -11.5q-62 2 -118.5 -1t-105.5 -9t-89.5 -14t-70.5 -16q-14 -5 -28 1
t-15 23q3 28 4.5 69.5t2 92t0 107.5t-1.5 115q-60 -4 -111 -11.5t-97 -15.5q-22 -39 -49.5 -89.5t-55.5 -102t-54 -100t-45 -83.5q-8 -11 -19.5 -12t-20.5 4.5t-13.5 16t1.5 22.5q13 18 35.5 54t48.5 81.5t54 96.5t53 100q-7 -1 -12.5 -2.5t-10.5 -2.5q-14 -1 -21.5 8
t-8.5 20t4.5 21t18.5 11q13 3 27.5 5t38.5 4q40 71 76 137t65 121t49.5 96t29.5 64q3 8 12 12.5t18.5 3.5t17 -7t8.5 -19v-12q17 2 37.5 4t58.5 6.5t101 11t165 17.5q13 -1 20.5 -10t8.5 -20t-4.5 -20.5t-18.5 -11.5q-116 4 -208.5 -8.5t-157.5 -26.5q2 -51 3.5 -129.5
t3.5 -172.5q21 1 44.5 4t58 7t84.5 9.5t124 13.5zM488 743q-17 -31 -33.5 -64.5t-35.5 -71.5t-41.5 -81.5t-50.5 -94.5q32 3 72.5 8t103.5 13q-2 72 -5 144.5t-10 146.5z" />
    <glyph glyph-name="Ccedilla" unicode="&#xc7;" horiz-adv-x="541" 
d="M244 -4q-70 0 -113 34.5t-66.5 88.5t-30.5 119.5t-4 126.5q3 46 12 101.5t25 112t40 109.5t56.5 93.5t74 63.5t93.5 20q33 -3 56 -21t38.5 -45.5t23.5 -61.5t11.5 -69.5t3 -69.5t-2.5 -61q-1 -14 -11.5 -21.5t-22.5 -8t-21 5.5t-7 19q18 132 -3.5 201.5t-72.5 74.5
q-39 3 -70.5 -19.5t-57 -61t-44.5 -88.5t-32 -101t-20.5 -99t-9.5 -83q-3 -57 0.5 -110.5t20.5 -96t50 -69t88 -27.5q30 -1 62 7.5t61 30.5t51.5 60.5t33.5 97.5q3 19 14.5 26.5t22.5 5.5t18.5 -13.5t3.5 -31.5q-15 -68 -43.5 -114t-65.5 -74t-79 -40t-83 -12zM268 -18
q49 -11 69 -38.5t16 -57.5t-29.5 -55t-67.5 -30q-10 -1 -16 6.5t-7.5 17t1.5 17t12 7.5q24 -1 40 12t19 29.5t-10 30.5t-49 16q-5 0 -10.5 2.5t-9.5 10t-6 21t1 36.5q0 13 7.5 20t16.5 8t16 -5t7 -19v-29z" />
    <glyph glyph-name="Egrave" unicode="&#xc8;" horiz-adv-x="512" 
d="M409 497q13 -1 20.5 -10t8.5 -20t-4.5 -20.5t-18.5 -11.5q-96 3 -171.5 -5t-144.5 -20q2 -86 4.5 -175t4.5 -177q17 1 38 3.5t59 6.5t100 10.5t161 17.5q13 -1 20.5 -10t8.5 -20t-4.5 -20.5t-18.5 -11.5q-62 2 -118.5 -1t-105.5 -9t-89.5 -14t-70.5 -16q-14 -5 -28 1
t-15 23q5 42 6.5 113t0.5 155t-3.5 172.5t-6 165t-7.5 132.5t-8 76q0 13 10 20t21.5 8t21 -5t9.5 -19v-13q17 2 37.5 4t58.5 6.5t101 11t165 17.5q13 -1 20.5 -10t8.5 -20t-4.5 -20.5t-18.5 -11.5q-116 4 -208.5 -8.5t-157.5 -26.5q2 -51 3.5 -129.5t3.5 -172.5q21 1 44.5 4
t58 7t84.5 9.5t124 13.5zM236 977q2 -2 9.5 -9t18 -16.5t21.5 -20t20 -19.5q7 -7 6 -15.5t-6.5 -15t-14 -8.5t-16.5 6q-6 5 -21 22.5t-44 43.5q-8 7 -6.5 15t7.5 14t13.5 7.5t12.5 -4.5z" />
    <glyph glyph-name="Eacute" unicode="&#xc9;" horiz-adv-x="512" 
d="M409 497q13 -1 20.5 -10t8.5 -20t-4.5 -20.5t-18.5 -11.5q-96 3 -171.5 -5t-144.5 -20q2 -86 4.5 -175t4.5 -177q17 1 38 3.5t59 6.5t100 10.5t161 17.5q13 -1 20.5 -10t8.5 -20t-4.5 -20.5t-18.5 -11.5q-62 2 -118.5 -1t-105.5 -9t-89.5 -14t-70.5 -16q-14 -5 -28 1
t-15 23q5 42 6.5 113t0.5 155t-3.5 172.5t-6 165t-7.5 132.5t-8 76q0 13 10 20t21.5 8t21 -5t9.5 -19v-13q17 2 37.5 4t58.5 6.5t101 11t165 17.5q13 -1 20.5 -10t8.5 -20t-4.5 -20.5t-18.5 -11.5q-116 4 -208.5 -8.5t-157.5 -26.5q2 -51 3.5 -129.5t3.5 -172.5q21 1 44.5 4
t58 7t84.5 9.5t124 13.5zM275 977q5 6 12.5 4.5t13.5 -7.5t7.5 -14t-6.5 -15q-29 -26 -44 -43.5t-21 -22.5q-8 -8 -16.5 -6t-14 8.5t-6.5 15t6 15.5q9 9 20 19.5t21.5 20t18 16.5t9.5 9z" />
    <glyph glyph-name="Ecircumflex" unicode="&#xca;" horiz-adv-x="512" 
d="M409 497q13 -1 20.5 -10t8.5 -20t-4.5 -20.5t-18.5 -11.5q-96 3 -171.5 -5t-144.5 -20q2 -86 4.5 -175t4.5 -177q17 1 38 3.5t59 6.5t100 10.5t161 17.5q13 -1 20.5 -10t8.5 -20t-4.5 -20.5t-18.5 -11.5q-62 2 -118.5 -1t-105.5 -9t-89.5 -14t-70.5 -16q-14 -5 -28 1
t-15 23q5 42 6.5 113t0.5 155t-3.5 172.5t-6 165t-7.5 132.5t-8 76q0 13 10 20t21.5 8t21 -5t9.5 -19v-13q17 2 37.5 4t58.5 6.5t101 11t165 17.5q13 -1 20.5 -10t8.5 -20t-4.5 -20.5t-18.5 -11.5q-116 4 -208.5 -8.5t-157.5 -26.5q2 -51 3.5 -129.5t3.5 -172.5q21 1 44.5 4
t58 7t84.5 9.5t124 13.5zM285 994q1 -3 5 -11t10 -19t12.5 -23t12.5 -23q4 -9 0.5 -16.5t-11.5 -11.5t-17 -3t-15 10q-4 7 -8.5 16.5t-16.5 35.5q-5 -12 -7.5 -17l-4.5 -9t-4 -8.5t-6 -14.5t-13.5 -12.5t-18 0.5t-12.5 12t4 22q12 25 19 38.5t14 31.5q3 9 11.5 13t17.5 4
t17 -4t11 -11z" />
    <glyph glyph-name="Edieresis" unicode="&#xcb;" horiz-adv-x="512" 
d="M409 497q13 -1 20.5 -10t8.5 -20t-4.5 -20.5t-18.5 -11.5q-96 3 -171.5 -5t-144.5 -20q2 -86 4.5 -175t4.5 -177q17 1 38 3.5t59 6.5t100 10.5t161 17.5q13 -1 20.5 -10t8.5 -20t-4.5 -20.5t-18.5 -11.5q-62 2 -118.5 -1t-105.5 -9t-89.5 -14t-70.5 -16q-14 -5 -28 1
t-15 23q5 42 6.5 113t0.5 155t-3.5 172.5t-6 165t-7.5 132.5t-8 76q0 13 10 20t21.5 8t21 -5t9.5 -19v-13q17 2 37.5 4t58.5 6.5t101 11t165 17.5q13 -1 20.5 -10t8.5 -20t-4.5 -20.5t-18.5 -11.5q-116 4 -208.5 -8.5t-157.5 -26.5q2 -51 3.5 -129.5t3.5 -172.5q21 1 44.5 4
t58 7t84.5 9.5t124 13.5zM180 873q-18 0 -27.5 11t-9.5 24t9 24t28 11q18 0 27 -11t9 -24t-9 -24t-27 -11zM332 873q-18 0 -27.5 11t-9.5 24t9 24t28 11q18 0 27 -11t9 -24t-9 -24t-27 -11z" />
    <glyph glyph-name="Igrave" unicode="&#xcc;" horiz-adv-x="593" 
d="M545 104q14 0 22 -9t9.5 -20t-4 -20.5t-18.5 -11.5q-67 -1 -135.5 -7.5t-131 -15.5t-115.5 -19t-89 -19q-13 -3 -21.5 5.5t-10.5 20t2.5 22t17.5 12.5q10 1 25 3t37 4.5t52.5 6t73.5 8.5q3 52 3.5 115.5t0 131.5t-2 136.5t-4 130.5t-6 113.5t-6.5 85.5q-30 -4 -59 -8.5
t-54.5 -9.5t-46.5 -9.5t-34 -8.5q-13 -2 -21.5 7.5t-10.5 21t2.5 21.5t17.5 10q10 0 41 3.5t74 9t93.5 12t100.5 13.5t93.5 13t73.5 11q14 0 22 -9t9.5 -20t-4 -20.5t-18.5 -11.5q-54 -1 -109.5 -5.5t-112.5 -11.5q1 -45 2.5 -123.5t4 -175.5t4.5 -204t5 -210q45 5 101 13
t127 19zM256 977q2 -2 9.5 -9t18 -16.5t21.5 -20t20 -19.5q7 -7 6 -15.5t-6.5 -15t-14 -8.5t-16.5 6q-6 5 -21 22.5t-44 43.5q-8 7 -6.5 15t7.5 14t13.5 7.5t12.5 -4.5z" />
    <glyph glyph-name="Iacute" unicode="&#xcd;" horiz-adv-x="593" 
d="M545 104q14 0 22 -9t9.5 -20t-4 -20.5t-18.5 -11.5q-67 -1 -135.5 -7.5t-131 -15.5t-115.5 -19t-89 -19q-13 -3 -21.5 5.5t-10.5 20t2.5 22t17.5 12.5q10 1 25 3t37 4.5t52.5 6t73.5 8.5q3 52 3.5 115.5t0 131.5t-2 136.5t-4 130.5t-6 113.5t-6.5 85.5q-30 -4 -59 -8.5
t-54.5 -9.5t-46.5 -9.5t-34 -8.5q-13 -2 -21.5 7.5t-10.5 21t2.5 21.5t17.5 10q10 0 41 3.5t74 9t93.5 12t100.5 13.5t93.5 13t73.5 11q14 0 22 -9t9.5 -20t-4 -20.5t-18.5 -11.5q-54 -1 -109.5 -5.5t-112.5 -11.5q1 -45 2.5 -123.5t4 -175.5t4.5 -204t5 -210q45 5 101 13
t127 19zM316 977q5 6 12.5 4.5t13.5 -7.5t7.5 -14t-6.5 -15q-29 -26 -44 -43.5t-21 -22.5q-8 -8 -16.5 -6t-14 8.5t-6.5 15t6 15.5q9 9 20 19.5t21.5 20t18 16.5t9.5 9z" />
    <glyph glyph-name="Icircumflex" unicode="&#xce;" horiz-adv-x="593" 
d="M545 104q14 0 22 -9t9.5 -20t-4 -20.5t-18.5 -11.5q-67 -1 -135.5 -7.5t-131 -15.5t-115.5 -19t-89 -19q-13 -3 -21.5 5.5t-10.5 20t2.5 22t17.5 12.5q10 1 25 3t37 4.5t52.5 6t73.5 8.5q3 52 3.5 115.5t0 131.5t-2 136.5t-4 130.5t-6 113.5t-6.5 85.5q-30 -4 -59 -8.5
t-54.5 -9.5t-46.5 -9.5t-34 -8.5q-13 -2 -21.5 7.5t-10.5 21t2.5 21.5t17.5 10q10 0 41 3.5t74 9t93.5 12t100.5 13.5t93.5 13t73.5 11q14 0 22 -9t9.5 -20t-4 -20.5t-18.5 -11.5q-54 -1 -109.5 -5.5t-112.5 -11.5q1 -45 2.5 -123.5t4 -175.5t4.5 -204t5 -210q45 5 101 13
t127 19zM325 994q1 -3 5 -11t10 -19t12.5 -23t12.5 -23q4 -9 0.5 -16.5t-11.5 -11.5t-17 -3t-15 10q-4 7 -8.5 16.5t-16.5 35.5q-5 -12 -7.5 -17l-4.5 -9t-4 -8.5t-6 -14.5t-13.5 -12.5t-18 0.5t-12.5 12t4 22q12 25 19 38.5t14 31.5q3 9 11.5 13t17.5 4t17 -4t11 -11z" />
    <glyph glyph-name="Idieresis" unicode="&#xcf;" horiz-adv-x="593" 
d="M545 104q14 0 22 -9t9.5 -20t-4 -20.5t-18.5 -11.5q-67 -1 -135.5 -7.5t-131 -15.5t-115.5 -19t-89 -19q-13 -3 -21.5 5.5t-10.5 20t2.5 22t17.5 12.5q10 1 25 3t37 4.5t52.5 6t73.5 8.5q3 52 3.5 115.5t0 131.5t-2 136.5t-4 130.5t-6 113.5t-6.5 85.5q-30 -4 -59 -8.5
t-54.5 -9.5t-46.5 -9.5t-34 -8.5q-13 -2 -21.5 7.5t-10.5 21t2.5 21.5t17.5 10q10 0 41 3.5t74 9t93.5 12t100.5 13.5t93.5 13t73.5 11q14 0 22 -9t9.5 -20t-4 -20.5t-18.5 -11.5q-54 -1 -109.5 -5.5t-112.5 -11.5q1 -45 2.5 -123.5t4 -175.5t4.5 -204t5 -210q45 5 101 13
t127 19zM189 873q-18 0 -27.5 11t-9.5 24t9 24t28 11q18 0 27 -11t9 -24t-9 -24t-27 -11zM341 873q-18 0 -27.5 11t-9.5 24t9 24t28 11q18 0 27 -11t9 -24t-9 -24t-27 -11z" />
    <glyph glyph-name="Eth" unicode="&#xd0;" horiz-adv-x="565" 
d="M49 448q-14 2 -20.5 12t-6.5 21t6.5 20t19.5 9q27 -3 51 -6q-3 88 -7 163t-8 121q-5 -2 -10 -3t-10 -3q-10 -3 -15.5 3.5t-6 16.5t5 20t18.5 13q3 1 6.5 1.5t6.5 1.5q3 9 11 14.5t17.5 7t18 -1.5t12.5 -11q47 4 93 -1t87.5 -18.5t77 -35.5t62.5 -52q31 -35 49 -76
t24.5 -85.5t2.5 -91.5t-17 -93q-20 -67 -55.5 -122t-83 -99.5t-103 -78.5t-115.5 -59q0 -5 0.5 -8.5t0.5 -7.5q-2 -13 -11 -19.5t-19.5 -7.5t-20 4t-12.5 16q-16 -5 -28 -8q-12 -2 -18.5 5t-8 17.5t2.5 20t14 12.5l20 6t21 5q2 35 2.5 79t0.5 93t-1 101.5t-2 105.5
q-13 -1 -25.5 -1h-26.5zM415 709q-25 25 -56.5 43.5t-67.5 30t-74 15.5t-75 1q2 -43 3.5 -121t3.5 -178q79 -5 133.5 0t100.5 13q13 0 20 -10t8 -21.5t-5 -21t-19 -9.5h-16h-13t-19 0.5t-34.5 0.5t-59.5 -0.5t-94 -1.5q2 -87 4 -178.5t4 -182.5q48 19 95 49.5t88 71t73 90
t50 106.5q12 40 16.5 81.5t-1 81t-21.5 75t-44 65.5z" />
    <glyph glyph-name="Ntilde" unicode="&#xd1;" horiz-adv-x="560" 
d="M445 19q-21 46 -49.5 105.5t-61.5 125.5t-67.5 134.5t-67 132.5t-60.5 120t-47 96q1 -60 3 -144t4.5 -180t4.5 -196.5t5 -193.5q-2 -14 -12 -20.5t-21 -6.5t-20.5 6.5t-10.5 19.5q5 42 7 110.5t1.5 150t-2.5 167.5t-5.5 162t-8 134.5t-9.5 85.5q-3 15 5 24t20 11.5
t23.5 -1.5t16.5 -14q4 -9 23 -48t48 -97.5t66 -133t77 -154.5t81.5 -162t79.5 -155q3 70 5 146.5t3 152.5t2 147.5t1 131t-0.5 103t-0.5 64.5q0 13 9.5 19t21 5t21.5 -8t10 -20q-1 -7 -3 -46t-4.5 -100.5t-5.5 -140t-5 -164.5t-3.5 -173.5t-0.5 -167.5q0 -21 -8.5 -33.5
t-20.5 -16t-24.5 1.5t-19.5 20zM393 969q1 9 8.5 13.5t16 5t15 -4t6.5 -14.5q-2 -42 -25.5 -65.5t-55.5 -27.5q-31 -3 -50.5 8.5t-35 26.5t-29.5 27.5t-34 11.5q-17 -2 -29 -15.5t-14 -36.5q-1 -9 -8.5 -13.5t-16 -5t-15 4t-6.5 14.5q1 23 9 40.5t20.5 29.5t29 17.5
t34.5 5.5q27 -1 46 -14.5t34.5 -28.5t30.5 -25.5t34 -4.5q14 4 23.5 17t11.5 34z" />
    <glyph glyph-name="Ograve" unicode="&#xd2;" horiz-adv-x="490" 
d="M204 -3q-62 5 -101 43t-59.5 97.5t-23.5 135t9 155.5q12 84 39 165.5t64 144.5t82 99t94 30q51 -7 85.5 -52.5t53 -114.5t22 -153.5t-7.5 -169.5q-10 -77 -32.5 -147.5t-55.5 -123.5t-75.5 -83t-93.5 -26zM291 808q-23 1 -45.5 -16.5t-44 -47.5t-40.5 -70t-34.5 -84.5
t-27 -90.5t-17.5 -88q-9 -61 -8.5 -122.5t13.5 -112.5t40 -85.5t71 -41.5q37 -6 71 21t62 74.5t48.5 108.5t29.5 124q10 72 8 147.5t-16.5 138t-42 103t-67.5 42.5zM293 989q2 -2 9.5 -9t18 -16.5t21.5 -20t20 -19.5q7 -7 6 -15.5t-6.5 -15t-14 -8.5t-16.5 6q-6 5 -21 22.5
t-44 43.5q-8 7 -6.5 15t7.5 14t13.5 7.5t12.5 -4.5z" />
    <glyph glyph-name="Oacute" unicode="&#xd3;" horiz-adv-x="490" 
d="M204 -3q-62 5 -101 43t-59.5 97.5t-23.5 135t9 155.5q12 84 39 165.5t64 144.5t82 99t94 30q51 -7 85.5 -52.5t53 -114.5t22 -153.5t-7.5 -169.5q-10 -77 -32.5 -147.5t-55.5 -123.5t-75.5 -83t-93.5 -26zM291 808q-23 1 -45.5 -16.5t-44 -47.5t-40.5 -70t-34.5 -84.5
t-27 -90.5t-17.5 -88q-9 -61 -8.5 -122.5t13.5 -112.5t40 -85.5t71 -41.5q37 -6 71 21t62 74.5t48.5 108.5t29.5 124q10 72 8 147.5t-16.5 138t-42 103t-67.5 42.5zM310 991q5 6 12.5 4.5t13.5 -7.5t7.5 -14t-6.5 -15q-29 -26 -44 -43.5t-21 -22.5q-8 -8 -16.5 -6t-14 8.5
t-6.5 15t6 15.5q9 9 20 19.5t21.5 20t18 16.5t9.5 9z" />
    <glyph glyph-name="Ocircumflex" unicode="&#xd4;" horiz-adv-x="490" 
d="M204 -3q-62 5 -101 43t-59.5 97.5t-23.5 135t9 155.5q12 84 39 165.5t64 144.5t82 99t94 30q51 -7 85.5 -52.5t53 -114.5t22 -153.5t-7.5 -169.5q-10 -77 -32.5 -147.5t-55.5 -123.5t-75.5 -83t-93.5 -26zM291 808q-23 1 -45.5 -16.5t-44 -47.5t-40.5 -70t-34.5 -84.5
t-27 -90.5t-17.5 -88q-9 -61 -8.5 -122.5t13.5 -112.5t40 -85.5t71 -41.5q37 -6 71 21t62 74.5t48.5 108.5t29.5 124q10 72 8 147.5t-16.5 138t-42 103t-67.5 42.5zM308 996q1 -3 5 -11t10 -19t12.5 -23t12.5 -23q4 -9 0.5 -16.5t-11.5 -11.5t-17 -3t-15 10q-4 7 -8.5 16.5
t-16.5 35.5q-5 -12 -7.5 -17l-4.5 -9t-4 -8.5t-6 -14.5t-13.5 -12.5t-18 0.5t-12.5 12t4 22q12 25 19 38.5t14 31.5q3 9 11.5 13t17.5 4t17 -4t11 -11z" />
    <glyph glyph-name="Otilde" unicode="&#xd5;" horiz-adv-x="490" 
d="M204 -3q-62 5 -101 43t-59.5 97.5t-23.5 135t9 155.5q12 84 39 165.5t64 144.5t82 99t94 30q51 -7 85.5 -52.5t53 -114.5t22 -153.5t-7.5 -169.5q-10 -77 -32.5 -147.5t-55.5 -123.5t-75.5 -83t-93.5 -26zM291 808q-23 1 -45.5 -16.5t-44 -47.5t-40.5 -70t-34.5 -84.5
t-27 -90.5t-17.5 -88q-9 -61 -8.5 -122.5t13.5 -112.5t40 -85.5t71 -41.5q37 -6 71 21t62 74.5t48.5 108.5t29.5 124q10 72 8 147.5t-16.5 138t-42 103t-67.5 42.5zM415 973q1 9 8.5 13.5t16 5t15 -4t6.5 -14.5q-2 -42 -25.5 -65.5t-55.5 -27.5q-31 -3 -50.5 8.5t-35 26.5
t-29.5 27.5t-34 11.5q-17 -2 -29 -15.5t-14 -36.5q-1 -9 -8.5 -13.5t-16 -5t-15 4t-6.5 14.5q1 23 9 40.5t20.5 29.5t29 17.5t34.5 5.5q27 -1 46 -14.5t34.5 -28.5t30.5 -25.5t34 -4.5q14 4 23.5 17t11.5 34z" />
    <glyph glyph-name="Odieresis" unicode="&#xd6;" horiz-adv-x="490" 
d="M204 -3q-62 5 -101 43t-59.5 97.5t-23.5 135t9 155.5q12 84 39 165.5t64 144.5t82 99t94 30q51 -7 85.5 -52.5t53 -114.5t22 -153.5t-7.5 -169.5q-10 -77 -32.5 -147.5t-55.5 -123.5t-75.5 -83t-93.5 -26zM291 808q-23 1 -45.5 -16.5t-44 -47.5t-40.5 -70t-34.5 -84.5
t-27 -90.5t-17.5 -88q-9 -61 -8.5 -122.5t13.5 -112.5t40 -85.5t71 -41.5q37 -6 71 21t62 74.5t48.5 108.5t29.5 124q10 72 8 147.5t-16.5 138t-42 103t-67.5 42.5zM218 879q-18 0 -27.5 11t-9.5 24t9 24t28 11q18 0 27 -11t9 -24t-9 -24t-27 -11zM370 879q-18 0 -27.5 11
t-9.5 24t9 24t28 11q18 0 27 -11t9 -24t-9 -24t-27 -11z" />
    <glyph glyph-name="multiply" unicode="&#xd7;" horiz-adv-x="584" 
d="M394 469q12 8 23.5 5.5t19.5 -10t9 -18.5t-8 -20q-38 -29 -73.5 -59.5t-67.5 -61.5q45 -43 84.5 -76.5t65.5 -51.5q9 -9 7 -21t-9.5 -21t-18.5 -11.5t-20 7.5q-9 8 -19 17.5t-25 25t-38.5 39t-60.5 59.5q-44 -45 -78 -82.5t-52 -63.5q-10 -9 -22 -7t-20.5 9.5t-11 18.5
t7.5 20q8 9 17.5 18.5t25.5 24.5t39.5 37.5t59.5 57.5q-26 26 -58.5 57t-72.5 70q-8 11 -5.5 23t10 19.5t18.5 9t20 -7.5q28 -36 59 -70.5t63 -66.5q26 26 58.5 58t72.5 72z" />
    <glyph glyph-name="Oslash" unicode="&#xd8;" horiz-adv-x="490" 
d="M139 8q-7 -12 -18.5 -14.5t-22 2t-17 14t-2.5 21.5l11 22q-26 29 -41.5 70t-22.5 90t-6 103.5t9 111.5q12 84 39 165.5t64 144.5t82 99t94 30q37 -6 65 -31q1 5 3 13q5 12 17 15.5t23 -0.5t17.5 -13t1.5 -21q-2 -5 -6.5 -19t-12.5 -34q19 -36 31 -82t17.5 -98t4.5 -108.5
t-8 -111.5q-10 -77 -32.5 -147.5t-55.5 -123.5t-75.5 -83t-93.5 -26q-18 2 -33.5 6t-29.5 11q0 -2 -1 -3t-1 -3zM291 808q-23 1 -45.5 -16.5t-44 -47.5t-40.5 -70t-34.5 -84.5t-27 -90.5t-17.5 -88t-8 -85t1.5 -83t12.5 -75t26 -61q19 43 40.5 98t44 116t45 124t43 122.5
t38 112t29.5 91.5q-14 17 -29 26.5t-34 10.5zM409 377q11 84 7 171t-26 153q-21 -58 -48 -134t-57.5 -161t-63 -173.5t-62.5 -170.5q9 -5 18.5 -8t20.5 -5q37 -6 71 21t62 74.5t48.5 108.5t29.5 124z" />
    <glyph glyph-name="Ugrave" unicode="&#xd9;" 
d="M31 837q1 16 11 24.5t21 8.5t19.5 -8.5t5.5 -26.5q-14 -109 -20 -223t-1 -218q4 -79 20 -148t42.5 -117.5t62 -71t77.5 -7.5q141 49 159 334q6 94 -1.5 207.5t-30.5 241.5q-3 18 5 25.5t19.5 8t21.5 -5.5t10 -16q19 -145 25.5 -258.5t1.5 -201.5q-5 -108 -29 -179.5
t-56.5 -115t-67 -63.5t-61.5 -25q-60 -12 -104.5 16t-74.5 82.5t-46.5 129t-20.5 155.5q-3 65 -2.5 130.5t3 125.5t6 110.5t5.5 85.5zM231 977q2 -2 9.5 -9t18 -16.5t21.5 -20t20 -19.5q7 -7 6 -15.5t-6.5 -15t-14 -8.5t-16.5 6q-6 5 -21 22.5t-44 43.5q-8 7 -6.5 15t7.5 14
t13.5 7.5t12.5 -4.5z" />
    <glyph glyph-name="Uacute" unicode="&#xda;" 
d="M31 837q1 16 11 24.5t21 8.5t19.5 -8.5t5.5 -26.5q-14 -109 -20 -223t-1 -218q4 -79 20 -148t42.5 -117.5t62 -71t77.5 -7.5q141 49 159 334q6 94 -1.5 207.5t-30.5 241.5q-3 18 5 25.5t19.5 8t21.5 -5.5t10 -16q19 -145 25.5 -258.5t1.5 -201.5q-5 -108 -29 -179.5
t-56.5 -115t-67 -63.5t-61.5 -25q-60 -12 -104.5 16t-74.5 82.5t-46.5 129t-20.5 155.5q-3 65 -2.5 130.5t3 125.5t6 110.5t5.5 85.5zM270 977q5 6 12.5 4.5t13.5 -7.5t7.5 -14t-6.5 -15q-29 -26 -44 -43.5t-21 -22.5q-8 -8 -16.5 -6t-14 8.5t-6.5 15t6 15.5q9 9 20 19.5
t21.5 20t18 16.5t9.5 9z" />
    <glyph glyph-name="Ucircumflex" unicode="&#xdb;" 
d="M31 837q1 16 11 24.5t21 8.5t19.5 -8.5t5.5 -26.5q-14 -109 -20 -223t-1 -218q4 -79 20 -148t42.5 -117.5t62 -71t77.5 -7.5q141 49 159 334q6 94 -1.5 207.5t-30.5 241.5q-3 18 5 25.5t19.5 8t21.5 -5.5t10 -16q19 -145 25.5 -258.5t1.5 -201.5q-5 -108 -29 -179.5
t-56.5 -115t-67 -63.5t-61.5 -25q-60 -12 -104.5 16t-74.5 82.5t-46.5 129t-20.5 155.5q-3 65 -2.5 130.5t3 125.5t6 110.5t5.5 85.5zM279 994q1 -3 5 -11t10 -19t12.5 -23t12.5 -23q4 -9 0.5 -16.5t-11.5 -11.5t-17 -3t-15 10q-4 7 -8.5 16.5t-16.5 35.5q-5 -12 -7.5 -17
l-4.5 -9t-4 -8.5t-6 -14.5t-13.5 -12.5t-18 0.5t-12.5 12t4 22q12 25 19 38.5t14 31.5q3 9 11.5 13t17.5 4t17 -4t11 -11z" />
    <glyph glyph-name="Udieresis" unicode="&#xdc;" 
d="M31 837q1 16 11 24.5t21 8.5t19.5 -8.5t5.5 -26.5q-14 -109 -20 -223t-1 -218q4 -79 20 -148t42.5 -117.5t62 -71t77.5 -7.5q141 49 159 334q6 94 -1.5 207.5t-30.5 241.5q-3 18 5 25.5t19.5 8t21.5 -5.5t10 -16q19 -145 25.5 -258.5t1.5 -201.5q-5 -108 -29 -179.5
t-56.5 -115t-67 -63.5t-61.5 -25q-60 -12 -104.5 16t-74.5 82.5t-46.5 129t-20.5 155.5q-3 65 -2.5 130.5t3 125.5t6 110.5t5.5 85.5zM175 873q-18 0 -27.5 11t-9.5 24t9 24t28 11q18 0 27 -11t9 -24t-9 -24t-27 -11zM327 873q-18 0 -27.5 11t-9.5 24t9 24t28 11
q18 0 27 -11t9 -24t-9 -24t-27 -11z" />
    <glyph glyph-name="Yacute" unicode="&#xdd;" horiz-adv-x="488" 
d="M296 10q-5 -13 -16.5 -17t-22.5 -1t-18.5 12t-4.5 22q21 55 41 146.5t52 223.5q-40 47 -87.5 103.5t-90 111.5t-75 102t-43.5 74q-7 11 -3 22.5t13 19t20 8t18 -10.5q4 -17 24 -54t54 -86t81 -105t106 -112q15 66 28.5 127.5t24 112t17 86.5t7.5 50q4 12 15.5 16.5
t22.5 2.5t19 -10t4 -21q-2 -10 -10 -49.5t-22 -101.5t-31.5 -141.5t-37.5 -167.5t-42 -181t-43 -182zM263 977q5 6 12.5 4.5t13.5 -7.5t7.5 -14t-6.5 -15q-29 -26 -44 -43.5t-21 -22.5q-8 -8 -16.5 -6t-14 8.5t-6.5 15t6 15.5q9 9 20 19.5t21.5 20t18 16.5t9.5 9z" />
    <glyph glyph-name="Thorn" unicode="&#xde;" horiz-adv-x="450" 
d="M430 261q-1 -50 -16.5 -96.5t-41.5 -82.5t-61.5 -58t-77.5 -23q-27 -1 -58 7.5t-60 38.5q0 -1 -1 -27t-2.5 -64.5t-3.5 -83t-3.5 -83t-3 -64.5t-1.5 -27q-3 -10 -12 -15.5t-19 -5.5t-18 6.5t-10 21.5q6 55 8.5 127t3 153t-0.5 166t-2.5 165t-3.5 151t-3 123q0 15 9.5 24
t21.5 10t21.5 -6.5t9.5 -24.5q-1 -46 -1 -77t1 -59.5t3.5 -62t7.5 -84.5q3 3 9 16t15.5 31t24 38t35.5 37t49 29.5t65 15.5t60.5 -19t36 -55t16.5 -72t3 -70zM131 138q0 -21 10 -38t25 -28t33.5 -16t36.5 -2q30 4 56 22.5t45 46t30 62t11 70.5q0 15 -0.5 43.5t-6 56.5
t-19.5 48.5t-41 20.5q-43 0 -76.5 -32.5t-56.5 -78t-35 -94t-12 -81.5z" />
    <glyph glyph-name="germandbls" unicode="&#xdf;" horiz-adv-x="510" 
d="M88 -42q0 -9 -9 -14t-20.5 -5t-21 5.5t-10.5 17.5q3 27 4 70t1 97t-0.5 115.5t-0.5 125t0.5 126t3.5 118.5q1 35 12 72t32.5 70.5t53.5 59.5t77 40q33 10 62 9.5t52 -9t38.5 -24.5t21.5 -38q8 -30 -0.5 -68t-28.5 -76t-48 -73t-59 -59q37 16 76.5 18.5t72.5 -10.5
t56.5 -43.5t28.5 -79.5q6 -64 -21 -121.5t-71 -106.5t-96 -88t-95 -65q-9 -6 -19 -3t-15.5 10t-4 16t15.5 17q42 23 89 60.5t86 82.5t63 94.5t19 96.5q-5 44 -26.5 64.5t-52.5 24.5t-66.5 -4.5t-67.5 -20.5q-19 -8 -37 -16.5t-35 -16.5q-15 -8 -22.5 -3t-9 16t3.5 23.5
t16 20.5q43 31 82 70t67.5 79.5t42.5 79t8 68.5q-5 24 -35 34.5t-69 0.5q-33 -8 -58 -26t-42 -43t-27.5 -56.5t-15.5 -65.5q-6 -41 -9 -99t-3.5 -138.5t2.5 -186.5t9 -243z" />
    <glyph glyph-name="agrave" unicode="&#xe0;" horiz-adv-x="477" 
d="M363 203q-17 -41 -35 -75.5t-41.5 -61.5t-52.5 -44t-68 -21q-20 -2 -41.5 2.5t-38.5 16.5q-29 19 -38.5 50.5t-7 66t13 69.5t21.5 62q17 42 42 79.5t57 66.5t70 46t82 17q12 0 26 -5t26 -15.5t20.5 -27t9.5 -38.5q2 -45 2 -83.5t1.5 -82.5t6.5 -98.5t16 -130.5
q2 -14 -5 -21t-17 -7.5t-19.5 3t-10.5 10.5q-4 17 -7 45.5t-5.5 60t-4 62.5t-2.5 54zM119 245q-6 -15 -14.5 -41.5t-12.5 -55t0 -53.5t25 -37q18 -10 45 -10q30 0 55.5 18t46.5 47.5t36.5 66t25.5 73.5t15 71t5 58q0 18 -7 28.5t-25 10.5q-30 0 -59 -13.5t-54 -37t-46 -55.5
t-36 -70zM289 602q2 -2 9.5 -9t18 -16.5t21.5 -20t20 -19.5q7 -7 6 -15.5t-6.5 -15t-14 -8.5t-16.5 6q-6 5 -21 22.5t-44 43.5q-8 7 -6.5 15t7.5 14t13.5 7.5t12.5 -4.5z" />
    <glyph glyph-name="aacute" unicode="&#xe1;" horiz-adv-x="477" 
d="M363 203q-17 -41 -35 -75.5t-41.5 -61.5t-52.5 -44t-68 -21q-20 -2 -41.5 2.5t-38.5 16.5q-29 19 -38.5 50.5t-7 66t13 69.5t21.5 62q17 42 42 79.5t57 66.5t70 46t82 17q12 0 26 -5t26 -15.5t20.5 -27t9.5 -38.5q2 -45 2 -83.5t1.5 -82.5t6.5 -98.5t16 -130.5
q2 -14 -5 -21t-17 -7.5t-19.5 3t-10.5 10.5q-4 17 -7 45.5t-5.5 60t-4 62.5t-2.5 54zM119 245q-6 -15 -14.5 -41.5t-12.5 -55t0 -53.5t25 -37q18 -10 45 -10q30 0 55.5 18t46.5 47.5t36.5 66t25.5 73.5t15 71t5 58q0 18 -7 28.5t-25 10.5q-30 0 -59 -13.5t-54 -37t-46 -55.5
t-36 -70zM319 611q5 6 12.5 4.5t13.5 -7.5t7.5 -14t-6.5 -15q-29 -26 -44 -43.5t-21 -22.5q-8 -8 -16.5 -6t-14 8.5t-6.5 15t6 15.5q9 9 20 19.5t21.5 20t18 16.5t9.5 9z" />
    <glyph glyph-name="acircumflex" unicode="&#xe2;" horiz-adv-x="477" 
d="M363 203q-17 -41 -35 -75.5t-41.5 -61.5t-52.5 -44t-68 -21q-20 -2 -41.5 2.5t-38.5 16.5q-29 19 -38.5 50.5t-7 66t13 69.5t21.5 62q17 42 42 79.5t57 66.5t70 46t82 17q12 0 26 -5t26 -15.5t20.5 -27t9.5 -38.5q2 -45 2 -83.5t1.5 -82.5t6.5 -98.5t16 -130.5
q2 -14 -5 -21t-17 -7.5t-19.5 3t-10.5 10.5q-4 17 -7 45.5t-5.5 60t-4 62.5t-2.5 54zM119 245q-6 -15 -14.5 -41.5t-12.5 -55t0 -53.5t25 -37q18 -10 45 -10q30 0 55.5 18t46.5 47.5t36.5 66t25.5 73.5t15 71t5 58q0 18 -7 28.5t-25 10.5q-30 0 -59 -13.5t-54 -37t-46 -55.5
t-36 -70zM342 611q1 -3 5 -11t10 -19t12.5 -23t12.5 -23q4 -9 0.5 -16.5t-11.5 -11.5t-17 -3t-15 10q-4 7 -8.5 16.5t-16.5 35.5q-5 -12 -7.5 -17l-4.5 -9t-4 -8.5t-6 -14.5t-13.5 -12.5t-18 0.5t-12.5 12t4 22q12 25 19 38.5t14 31.5q3 9 11.5 13t17.5 4t17 -4t11 -11z" />
    <glyph glyph-name="atilde" unicode="&#xe3;" horiz-adv-x="477" 
d="M363 203q-17 -41 -35 -75.5t-41.5 -61.5t-52.5 -44t-68 -21q-20 -2 -41.5 2.5t-38.5 16.5q-29 19 -38.5 50.5t-7 66t13 69.5t21.5 62q17 42 42 79.5t57 66.5t70 46t82 17q12 0 26 -5t26 -15.5t20.5 -27t9.5 -38.5q2 -45 2 -83.5t1.5 -82.5t6.5 -98.5t16 -130.5
q2 -14 -5 -21t-17 -7.5t-19.5 3t-10.5 10.5q-4 17 -7 45.5t-5.5 60t-4 62.5t-2.5 54zM119 245q-6 -15 -14.5 -41.5t-12.5 -55t0 -53.5t25 -37q18 -10 45 -10q30 0 55.5 18t46.5 47.5t36.5 66t25.5 73.5t15 71t5 58q0 18 -7 28.5t-25 10.5q-30 0 -59 -13.5t-54 -37t-46 -55.5
t-36 -70zM418 599q1 9 8.5 13.5t16 5t15 -4t6.5 -14.5q-2 -42 -25.5 -65.5t-55.5 -27.5q-31 -3 -50.5 8.5t-35 26.5t-29.5 27.5t-34 11.5q-17 -2 -29 -15.5t-14 -36.5q-1 -9 -8.5 -13.5t-16 -5t-15 4t-6.5 14.5q1 23 9 40.5t20.5 29.5t29 17.5t34.5 5.5q27 -1 46 -14.5
t34.5 -28.5t30.5 -25.5t34 -4.5q14 4 23.5 17t11.5 34z" />
    <glyph glyph-name="adieresis" unicode="&#xe4;" horiz-adv-x="477" 
d="M363 203q-17 -41 -35 -75.5t-41.5 -61.5t-52.5 -44t-68 -21q-20 -2 -41.5 2.5t-38.5 16.5q-29 19 -38.5 50.5t-7 66t13 69.5t21.5 62q17 42 42 79.5t57 66.5t70 46t82 17q12 0 26 -5t26 -15.5t20.5 -27t9.5 -38.5q2 -45 2 -83.5t1.5 -82.5t6.5 -98.5t16 -130.5
q2 -14 -5 -21t-17 -7.5t-19.5 3t-10.5 10.5q-4 17 -7 45.5t-5.5 60t-4 62.5t-2.5 54zM119 245q-6 -15 -14.5 -41.5t-12.5 -55t0 -53.5t25 -37q18 -10 45 -10q30 0 55.5 18t46.5 47.5t36.5 66t25.5 73.5t15 71t5 58q0 18 -7 28.5t-25 10.5q-30 0 -59 -13.5t-54 -37t-46 -55.5
t-36 -70zM217 506q-18 0 -27.5 11t-9.5 24t9 24t28 11q18 0 27 -11t9 -24t-9 -24t-27 -11zM369 506q-18 0 -27.5 11t-9.5 24t9 24t28 11q18 0 27 -11t9 -24t-9 -24t-27 -11z" />
    <glyph glyph-name="aring" unicode="&#xe5;" horiz-adv-x="477" 
d="M363 203q-17 -41 -35 -75.5t-41.5 -61.5t-52.5 -44t-68 -21q-20 -2 -41.5 2.5t-38.5 16.5q-29 19 -38.5 50.5t-7 66t13 69.5t21.5 62q17 42 42 79.5t57 66.5t70 46t82 17q12 0 26 -5t26 -15.5t20.5 -27t9.5 -38.5q2 -45 2 -83.5t1.5 -82.5t6.5 -98.5t16 -130.5
q2 -14 -5 -21t-17 -7.5t-19.5 3t-10.5 10.5q-4 17 -7 45.5t-5.5 60t-4 62.5t-2.5 54zM119 245q-6 -15 -14.5 -41.5t-12.5 -55t0 -53.5t25 -37q18 -10 45 -10q30 0 55.5 18t46.5 47.5t36.5 66t25.5 73.5t15 71t5 58q0 18 -7 28.5t-25 10.5q-30 0 -59 -13.5t-54 -37t-46 -55.5
t-36 -70zM285 528q15 0 22.5 9t7.5 19.5t-7.5 19.5t-22.5 9t-22.5 -9t-7.5 -19.5t7.5 -19.5t22.5 -9zM288 494q-22 -1 -36.5 8t-22.5 23t-8 30t7 30.5t21.5 24t37.5 9.5q32 0 47.5 -19t15.5 -42t-16 -43t-46 -21z" />
    <glyph glyph-name="ae" unicode="&#xe6;" horiz-adv-x="694" 
d="M598 28q-27 -22 -64.5 -35.5t-76 -13t-73 19t-53.5 60.5q-8 15 -12.5 32t-6.5 35q-28 -50 -65 -82t-94 -38q-20 -2 -41.5 2.5t-38.5 16.5q-29 19 -38.5 50.5t-7 66t13 69.5t21.5 62q17 42 42 79.5t57 66.5t70 46t82 17q17 0 38.5 -11t33.5 -34q23 24 52.5 38t65.5 16
q42 1 68 -20t41 -52t21.5 -66t9.5 -63q1 -14 -10 -24t-28 -12q-88 -9 -147 -11t-97 -1q-9 -51 -2 -91t21 -72q15 -31 39.5 -42t52.5 -7.5t56 18t50 34.5q37 32 55 75q5 10 15.5 10t19.5 -6.5t13.5 -16.5t-2.5 -20q-8 -12 -18 -25.5t-21 -26.5t-21.5 -25t-20.5 -19zM106 250
q-6 -15 -14.5 -41.5t-12.5 -55t0 -53.5t25 -37q18 -10 45 -10q29 0 53.5 16.5t44.5 43.5t35.5 61t26.5 70v2q2 7 5.5 22.5t7 35t5.5 41t0.5 39.5t-8 29.5t-18.5 12.5q-30 2 -59 -11t-54 -37t-46 -57t-36 -71zM500 438q-42 -2 -72.5 -27.5t-47.5 -77.5l-9 -37h27.5h43t49.5 1
t47 3t34.5 6t14.5 10q0 12 -4.5 33t-15 41t-27 34.5t-40.5 13.5z" />
    <glyph glyph-name="ccedilla" unicode="&#xe7;" horiz-adv-x="400" 
d="M75 44q-29 33 -40.5 78t-8.5 94q2 33 10.5 66t21.5 63.5t30 57.5t38 47q29 28 65.5 41t78.5 4q22 -5 35 -24t19 -45t6 -56.5t-2 -58.5q-1 -14 -10 -20.5t-19 -6.5t-18 6.5t-7 18.5q1 19 1.5 40t-0.5 39t-4.5 31.5t-9.5 17.5q-30 19 -58.5 6t-51.5 -44
q-12 -17 -24.5 -38.5t-22.5 -46t-17 -51t-9 -52.5q-3 -39 7.5 -74.5t38.5 -61.5q23 -21 53 -24q44 -4 85 19.5t64 81.5q6 14 16 18.5t19.5 2t15 -10.5t1.5 -19q-15 -43 -37 -71t-48 -44t-55 -22.5t-59 -6.5q-33 0 -59 12.5t-45 32.5zM220 -14q49 -11 69 -38.5t16 -57.5
t-29.5 -55t-67.5 -30q-10 -1 -16 6.5t-7.5 17t1.5 17t12 7.5q24 -1 40 12t19 29.5t-10 30.5t-49 16q-5 0 -10.5 2.5t-9.5 10t-6 21t1 36.5q0 13 7.5 20t16.5 8t16 -5t7 -19v-29z" />
    <glyph glyph-name="egrave" unicode="&#xe8;" horiz-adv-x="462" 
d="M366 28q-27 -22 -64.5 -35.5t-76 -13t-73 19t-53.5 60.5q-11 23 -16 49t-6.5 51t-1 47.5t1.5 39.5q-8 -1 -23.5 -0.5t-23.5 0.5q-10 0 -15 8t-4 17t7 17t18 8h30t18 1q8 39 24 73.5t39.5 61t54.5 42.5t69 17q42 1 68 -20t41 -52t21.5 -66t9.5 -63q1 -14 -10 -24t-28 -12
q-88 -9 -147 -11t-97 -1q-9 -51 -2 -91t21 -72q15 -31 39.5 -42t52.5 -7.5t56 18t50 34.5q37 32 55 75q5 10 15.5 10t19.5 -6.5t13.5 -16.5t-2.5 -20q-8 -12 -18 -25.5t-21 -26.5t-21.5 -25t-20.5 -19zM268 438q-48 -2 -81.5 -36.5t-48.5 -105.5h27.5h43t49.5 1t47.5 3t35 6
t14.5 10q0 12 -4.5 33t-15 41t-27 34.5t-40.5 13.5zM261 627q2 -2 9.5 -9t18 -16.5t21.5 -20t20 -19.5q7 -7 6 -15.5t-6.5 -15t-14 -8.5t-16.5 6q-6 5 -21 22.5t-44 43.5q-8 7 -6.5 15t7.5 14t13.5 7.5t12.5 -4.5z" />
    <glyph glyph-name="eacute" unicode="&#xe9;" horiz-adv-x="462" 
d="M366 28q-27 -22 -64.5 -35.5t-76 -13t-73 19t-53.5 60.5q-11 23 -16 49t-6.5 51t-1 47.5t1.5 39.5q-8 -1 -23.5 -0.5t-23.5 0.5q-10 0 -15 8t-4 17t7 17t18 8h30t18 1q8 39 24 73.5t39.5 61t54.5 42.5t69 17q42 1 68 -20t41 -52t21.5 -66t9.5 -63q1 -14 -10 -24t-28 -12
q-88 -9 -147 -11t-97 -1q-9 -51 -2 -91t21 -72q15 -31 39.5 -42t52.5 -7.5t56 18t50 34.5q37 32 55 75q5 10 15.5 10t19.5 -6.5t13.5 -16.5t-2.5 -20q-8 -12 -18 -25.5t-21 -26.5t-21.5 -25t-20.5 -19zM268 438q-48 -2 -81.5 -36.5t-48.5 -105.5h27.5h43t49.5 1t47.5 3t35 6
t14.5 10q0 12 -4.5 33t-15 41t-27 34.5t-40.5 13.5zM290 625q5 6 12.5 4.5t13.5 -7.5t7.5 -14t-6.5 -15q-29 -26 -44 -43.5t-21 -22.5q-8 -8 -16.5 -6t-14 8.5t-6.5 15t6 15.5q9 9 20 19.5t21.5 20t18 16.5t9.5 9z" />
    <glyph glyph-name="ecircumflex" unicode="&#xea;" horiz-adv-x="462" 
d="M366 28q-27 -22 -64.5 -35.5t-76 -13t-73 19t-53.5 60.5q-11 23 -16 49t-6.5 51t-1 47.5t1.5 39.5q-8 -1 -23.5 -0.5t-23.5 0.5q-10 0 -15 8t-4 17t7 17t18 8h30t18 1q8 39 24 73.5t39.5 61t54.5 42.5t69 17q42 1 68 -20t41 -52t21.5 -66t9.5 -63q1 -14 -10 -24t-28 -12
q-88 -9 -147 -11t-97 -1q-9 -51 -2 -91t21 -72q15 -31 39.5 -42t52.5 -7.5t56 18t50 34.5q37 32 55 75q5 10 15.5 10t19.5 -6.5t13.5 -16.5t-2.5 -20q-8 -12 -18 -25.5t-21 -26.5t-21.5 -25t-20.5 -19zM268 438q-48 -2 -81.5 -36.5t-48.5 -105.5h27.5h43t49.5 1t47.5 3t35 6
t14.5 10q0 12 -4.5 33t-15 41t-27 34.5t-40.5 13.5zM291 618q1 -3 5 -11t10 -19t12.5 -23t12.5 -23q4 -9 0.5 -16.5t-11.5 -11.5t-17 -3t-15 10q-4 7 -8.5 16.5t-16.5 35.5q-5 -12 -7.5 -17l-4.5 -9t-4 -8.5t-6 -14.5t-13.5 -12.5t-18 0.5t-12.5 12t4 22q12 25 19 38.5
t14 31.5q3 9 11.5 13t17.5 4t17 -4t11 -11z" />
    <glyph glyph-name="edieresis" unicode="&#xeb;" horiz-adv-x="462" 
d="M366 28q-27 -22 -64.5 -35.5t-76 -13t-73 19t-53.5 60.5q-11 23 -16 49t-6.5 51t-1 47.5t1.5 39.5q-8 -1 -23.5 -0.5t-23.5 0.5q-10 0 -15 8t-4 17t7 17t18 8h30t18 1q8 39 24 73.5t39.5 61t54.5 42.5t69 17q42 1 68 -20t41 -52t21.5 -66t9.5 -63q1 -14 -10 -24t-28 -12
q-88 -9 -147 -11t-97 -1q-9 -51 -2 -91t21 -72q15 -31 39.5 -42t52.5 -7.5t56 18t50 34.5q37 32 55 75q5 10 15.5 10t19.5 -6.5t13.5 -16.5t-2.5 -20q-8 -12 -18 -25.5t-21 -26.5t-21.5 -25t-20.5 -19zM268 438q-48 -2 -81.5 -36.5t-48.5 -105.5h27.5h43t49.5 1t47.5 3t35 6
t14.5 10q0 12 -4.5 33t-15 41t-27 34.5t-40.5 13.5zM200 514q-18 0 -27.5 11t-9.5 24t9 24t28 11q18 0 27 -11t9 -24t-9 -24t-27 -11zM352 514q-18 0 -27.5 11t-9.5 24t9 24t28 11q18 0 27 -11t9 -24t-9 -24t-27 -11z" />
    <glyph glyph-name="igrave" unicode="&#xec;" horiz-adv-x="136" 
d="M107 19q-2 -14 -11.5 -20.5t-20.5 -6.5t-20 6.5t-10 19.5q7 63 9 126.5t0 121t-6.5 104.5t-10.5 76q0 13 10 20t21.5 8t21 -5t9.5 -19q1 -17 1 -38.5t0.5 -66t2 -121.5t4.5 -205zM50 598q2 -2 9.5 -9t18 -16.5t21.5 -20t20 -19.5q7 -7 6 -15.5t-6.5 -15t-14 -8.5t-16.5 6
q-6 5 -21 22.5t-44 43.5q-8 7 -6.5 15t7.5 14t13.5 7.5t12.5 -4.5z" />
    <glyph glyph-name="iacute" unicode="&#xed;" horiz-adv-x="136" 
d="M107 19q-2 -14 -11.5 -20.5t-20.5 -6.5t-20 6.5t-10 19.5q7 63 9 126.5t0 121t-6.5 104.5t-10.5 76q0 13 10 20t21.5 8t21 -5t9.5 -19q1 -17 1 -38.5t0.5 -66t2 -121.5t4.5 -205zM89 598q5 6 12.5 4.5t13.5 -7.5t7.5 -14t-6.5 -15q-29 -26 -44 -43.5t-21 -22.5
q-8 -8 -16.5 -6t-14 8.5t-6.5 15t6 15.5q9 9 20 19.5t21.5 20t18 16.5t9.5 9z" />
    <glyph glyph-name="icircumflex" unicode="&#xee;" horiz-adv-x="136" 
d="M107 19q-2 -14 -11.5 -20.5t-20.5 -6.5t-20 6.5t-10 19.5q7 63 9 126.5t0 121t-6.5 104.5t-10.5 76q0 13 10 20t21.5 8t21 -5t9.5 -19q1 -17 1 -38.5t0.5 -66t2 -121.5t4.5 -205zM98 615q1 -3 5 -11t10 -19t12.5 -23t12.5 -23q4 -9 0.5 -16.5t-11.5 -11.5t-17 -3t-15 10
q-4 7 -8.5 16.5t-16.5 35.5q-5 -12 -7.5 -17l-4.5 -9t-4 -8.5t-6 -14.5t-13.5 -12.5t-18 0.5t-12.5 12t4 22q12 25 19 38.5t14 31.5q3 9 11.5 13t17.5 4t17 -4t11 -11z" />
    <glyph glyph-name="idieresis" unicode="&#xef;" horiz-adv-x="136" 
d="M107 19q-2 -14 -11.5 -20.5t-20.5 -6.5t-20 6.5t-10 19.5q7 63 9 126.5t0 121t-6.5 104.5t-10.5 76q0 13 10 20t21.5 8t21 -5t9.5 -19q1 -17 1 -38.5t0.5 -66t2 -121.5t4.5 -205zM-6 494q-18 0 -27.5 11t-9.5 24t9 24t28 11q18 0 27 -11t9 -24t-9 -24t-27 -11zM146 494
q-18 0 -27.5 11t-9.5 24t9 24t28 11q18 0 27 -11t9 -24t-9 -24t-27 -11z" />
    <glyph glyph-name="eth" unicode="&#xf0;" horiz-adv-x="482" 
d="M76 594q-14 -3 -23.5 3.5t-14 17t-1.5 21.5t15 16q66 17 130 39.5t119 46.5q-20 30 -38.5 53.5t-33.5 39.5q-7 7 -4.5 17t11 16t20.5 6t24 -12q37 -38 71 -98q63 31 98 52q12 4 22.5 -2.5t15.5 -17t2.5 -21.5t-14.5 -15q-8 -4 -17 -7.5t-20.5 -8t-27 -10.5t-36.5 -15
q32 -65 55 -144q25 -88 34.5 -181t-0.5 -184q-4 -37 -17.5 -74.5t-36.5 -68t-55 -48.5t-72 -16q-42 2 -83.5 28.5t-76.5 67t-61 91.5t-37 103q-10 47 -8 88t13.5 72t31.5 49t46 19q34 1 61 -21.5t47.5 -61.5t34.5 -89t22.5 -102.5t12 -103t2.5 -90.5q28 -4 51.5 11.5
t40 41.5t26.5 59t12 63q7 96 -3 178.5t-30 151.5q-12 41 -26.5 76.5t-31.5 65.5q-42 -17 -102 -41.5t-148 -60.5zM114 457q-18 -2 -30 -17t-17 -39t-2.5 -55.5t11.5 -67.5q10 -39 29.5 -76t42 -66t46.5 -49t43 -24q1 26 -3 66t-12 84.5t-19 89t-25 79.5t-30 56t-34 19z" />
    <glyph glyph-name="ntilde" unicode="&#xf1;" horiz-adv-x="443" 
d="M423 13q-1 -13 -10.5 -18.5t-20.5 -4.5t-19.5 7t-7.5 16q8 78 8 152t-10.5 131.5t-33 90.5t-59.5 28q-29 -3 -58 -31.5t-53 -64.5t-40.5 -71t-22.5 -52l-11 -182q-2 -13 -11 -18t-19 -3.5t-18.5 9.5t-8.5 21q9 62 12 125.5t2.5 120.5t-4.5 104t-9 77q1 13 10.5 20t20.5 8
t20 -4t9 -15q2 -35 1.5 -73t0.5 -80q15 25 34.5 54.5t43.5 54.5t51.5 41.5t57.5 16.5q45 0 75.5 -34t48.5 -95.5t23 -146t-2 -184.5zM342 606q1 9 8.5 13.5t16 5t15 -4t6.5 -14.5q-2 -42 -25.5 -65.5t-55.5 -27.5q-31 -3 -50.5 8.5t-35 26.5t-29.5 27.5t-34 11.5
q-17 -2 -29 -15.5t-14 -36.5q-1 -9 -8.5 -13.5t-16 -5t-15 4t-6.5 14.5q1 23 9 40.5t20.5 29.5t29 17.5t34.5 5.5q27 -1 46 -14.5t34.5 -28.5t30.5 -25.5t34 -4.5q14 4 23.5 17t11.5 34z" />
    <glyph glyph-name="ograve" unicode="&#xf2;" horiz-adv-x="386" 
d="M162 -15q-48 3 -78.5 25t-46 56.5t-18 78t6.5 88.5q9 48 30 94t50 81.5t64 56t73 17.5q39 -4 66 -30t41.5 -65t17.5 -86.5t-6 -95.5q-8 -44 -25.5 -84.5t-43 -71.5t-59 -48.5t-72.5 -15.5zM225 427q-27 -2 -51 -20t-43.5 -46t-33.5 -62.5t-21 -70.5q-7 -35 -6.5 -68
t10.5 -59.5t29.5 -44.5t51.5 -21q28 -3 52 10t43 37.5t32 57t20 67.5q8 40 7.5 80.5t-10.5 72t-30 50.5t-50 17zM236 611q2 -2 9.5 -9t18 -16.5t21.5 -20t20 -19.5q7 -7 6 -15.5t-6.5 -15t-14 -8.5t-16.5 6q-6 5 -21 22.5t-44 43.5q-8 7 -6.5 15t7.5 14t13.5 7.5t12.5 -4.5z
" />
    <glyph glyph-name="oacute" unicode="&#xf3;" horiz-adv-x="386" 
d="M162 -15q-48 3 -78.5 25t-46 56.5t-18 78t6.5 88.5q9 48 30 94t50 81.5t64 56t73 17.5q39 -4 66 -30t41.5 -65t17.5 -86.5t-6 -95.5q-8 -44 -25.5 -84.5t-43 -71.5t-59 -48.5t-72.5 -15.5zM225 427q-27 -2 -51 -20t-43.5 -46t-33.5 -62.5t-21 -70.5q-7 -35 -6.5 -68
t10.5 -59.5t29.5 -44.5t51.5 -21q28 -3 52 10t43 37.5t32 57t20 67.5q8 40 7.5 80.5t-10.5 72t-30 50.5t-50 17zM212 598q5 6 12.5 4.5t13.5 -7.5t7.5 -14t-6.5 -15q-29 -26 -44 -43.5t-21 -22.5q-8 -8 -16.5 -6t-14 8.5t-6.5 15t6 15.5q9 9 20 19.5t21.5 20t18 16.5t9.5 9z
" />
    <glyph glyph-name="ocircumflex" unicode="&#xf4;" horiz-adv-x="386" 
d="M162 -15q-48 3 -78.5 25t-46 56.5t-18 78t6.5 88.5q9 48 30 94t50 81.5t64 56t73 17.5q39 -4 66 -30t41.5 -65t17.5 -86.5t-6 -95.5q-8 -44 -25.5 -84.5t-43 -71.5t-59 -48.5t-72.5 -15.5zM225 427q-27 -2 -51 -20t-43.5 -46t-33.5 -62.5t-21 -70.5q-7 -35 -6.5 -68
t10.5 -59.5t29.5 -44.5t51.5 -21q28 -3 52 10t43 37.5t32 57t20 67.5q8 40 7.5 80.5t-10.5 72t-30 50.5t-50 17zM251 624q1 -3 5 -11t10 -19t12.5 -23t12.5 -23q4 -9 0.5 -16.5t-11.5 -11.5t-17 -3t-15 10q-4 7 -8.5 16.5t-16.5 35.5q-5 -12 -7.5 -17l-4.5 -9t-4 -8.5
t-6 -14.5t-13.5 -12.5t-18 0.5t-12.5 12t4 22q12 25 19 38.5t14 31.5q3 9 11.5 13t17.5 4t17 -4t11 -11z" />
    <glyph glyph-name="otilde" unicode="&#xf5;" horiz-adv-x="386" 
d="M162 -15q-48 3 -78.5 25t-46 56.5t-18 78t6.5 88.5q9 48 30 94t50 81.5t64 56t73 17.5q39 -4 66 -30t41.5 -65t17.5 -86.5t-6 -95.5q-8 -44 -25.5 -84.5t-43 -71.5t-59 -48.5t-72.5 -15.5zM225 427q-27 -2 -51 -20t-43.5 -46t-33.5 -62.5t-21 -70.5q-7 -35 -6.5 -68
t10.5 -59.5t29.5 -44.5t51.5 -21q28 -3 52 10t43 37.5t32 57t20 67.5q8 40 7.5 80.5t-10.5 72t-30 50.5t-50 17zM343 595q1 9 8.5 13.5t16 5t15 -4t6.5 -14.5q-2 -42 -25.5 -65.5t-55.5 -27.5q-31 -3 -50.5 8.5t-35 26.5t-29.5 27.5t-34 11.5q-17 -2 -29 -15.5t-14 -36.5
q-1 -9 -8.5 -13.5t-16 -5t-15 4t-6.5 14.5q1 23 9 40.5t20.5 29.5t29 17.5t34.5 5.5q27 -1 46 -14.5t34.5 -28.5t30.5 -25.5t34 -4.5q14 4 23.5 17t11.5 34z" />
    <glyph glyph-name="odieresis" unicode="&#xf6;" horiz-adv-x="386" 
d="M162 -15q-48 3 -78.5 25t-46 56.5t-18 78t6.5 88.5q9 48 30 94t50 81.5t64 56t73 17.5q39 -4 66 -30t41.5 -65t17.5 -86.5t-6 -95.5q-8 -44 -25.5 -84.5t-43 -71.5t-59 -48.5t-72.5 -15.5zM225 427q-27 -2 -51 -20t-43.5 -46t-33.5 -62.5t-21 -70.5q-7 -35 -6.5 -68
t10.5 -59.5t29.5 -44.5t51.5 -21q28 -3 52 10t43 37.5t32 57t20 67.5q8 40 7.5 80.5t-10.5 72t-30 50.5t-50 17zM160 501q-18 0 -27.5 11t-9.5 24t9 24t28 11q18 0 27 -11t9 -24t-9 -24t-27 -11zM312 501q-18 0 -27.5 11t-9.5 24t9 24t28 11q18 0 27 -11t9 -24t-9 -24
t-27 -11z" />
    <glyph glyph-name="divide" unicode="&#xf7;" horiz-adv-x="409" 
d="M53 341q-14 2 -20.5 12t-6.5 21t6.5 20t19.5 9q63 -8 106.5 -9.5t77 0.5t61 6.5t56.5 9.5q13 0 20 -10t8 -21.5t-5 -21t-19 -9.5q-12 -1 -15 -1h-8.5t-17.5 -0.5t-42 -1t-83 -1.5t-138 -3zM190 453q-18 0 -27.5 11t-9.5 24t9 24t28 11q18 0 27 -11t9 -24t-9 -24t-27 -11z
M196 219q-18 0 -27.5 11t-9.5 24t9 24t28 11q18 0 27 -11t9 -24t-9 -24t-27 -11z" />
    <glyph glyph-name="oslash" unicode="&#xf8;" horiz-adv-x="386" 
d="M115 -36q-7 -12 -18.5 -14.5t-22 2t-17 14t-2.5 21.5q4 8 7.5 16t8.5 16q-38 35 -48 93t3 121q9 48 30 94t50 81.5t64 56t73 17.5q18 -2 33 -9q4 15 9 27t17 15.5t23 -0.5t17.5 -13t1.5 -21q-2 -8 -7.5 -18.5t-13.5 -26.5q32 -40 41 -103t-2 -128q-8 -44 -25.5 -84.5
t-43 -71.5t-59 -48.5t-72.5 -15.5q-20 1 -37 6q-3 -7 -5.5 -13.5t-4.5 -13.5zM225 427q-27 -2 -51 -20t-43.5 -46t-33.5 -62.5t-21 -70.5q-9 -45 -5 -87t25 -70q20 41 42 87.5t43 93t40.5 90.5t34.5 80q-15 6 -31 5zM296 382q-28 -54 -66.5 -138.5t-86.5 -205.5q5 -1 9 -2
t9 -1q28 -3 52 10t43 37.5t32 57t20 67.5q9 48 6.5 95.5t-18.5 79.5z" />
    <glyph glyph-name="ugrave" unicode="&#xf9;" horiz-adv-x="365" 
d="M24 446q0 16 9 24.5t20 8.5t20 -8.5t8 -26.5q-1 -12 -2 -45.5t-0.5 -77t4.5 -91t14.5 -87t29.5 -65t49 -25.5q27 0 46.5 21.5t33 56.5t21.5 79.5t11.5 90t4 88.5t-1.5 75q-1 18 8.5 24.5t20.5 5t20.5 -9.5t8.5 -18q-2 -143 -18 -234t-41 -143t-55.5 -71t-61.5 -18
q-41 1 -68.5 27t-44 66t-24.5 90t-10.5 99.5t-2 92.5t0.5 71zM163 598q2 -2 9.5 -9t18 -16.5t21.5 -20t20 -19.5q7 -7 6 -15.5t-6.5 -15t-14 -8.5t-16.5 6q-6 5 -21 22.5t-44 43.5q-8 7 -6.5 15t7.5 14t13.5 7.5t12.5 -4.5z" />
    <glyph glyph-name="uacute" unicode="&#xfa;" horiz-adv-x="365" 
d="M24 446q0 16 9 24.5t20 8.5t20 -8.5t8 -26.5q-1 -12 -2 -45.5t-0.5 -77t4.5 -91t14.5 -87t29.5 -65t49 -25.5q27 0 46.5 21.5t33 56.5t21.5 79.5t11.5 90t4 88.5t-1.5 75q-1 18 8.5 24.5t20.5 5t20.5 -9.5t8.5 -18q-2 -143 -18 -234t-41 -143t-55.5 -71t-61.5 -18
q-41 1 -68.5 27t-44 66t-24.5 90t-10.5 99.5t-2 92.5t0.5 71zM202 598q5 6 12.5 4.5t13.5 -7.5t7.5 -14t-6.5 -15q-29 -26 -44 -43.5t-21 -22.5q-8 -8 -16.5 -6t-14 8.5t-6.5 15t6 15.5q9 9 20 19.5t21.5 20t18 16.5t9.5 9z" />
    <glyph glyph-name="ucircumflex" unicode="&#xfb;" horiz-adv-x="365" 
d="M24 446q0 16 9 24.5t20 8.5t20 -8.5t8 -26.5q-1 -12 -2 -45.5t-0.5 -77t4.5 -91t14.5 -87t29.5 -65t49 -25.5q27 0 46.5 21.5t33 56.5t21.5 79.5t11.5 90t4 88.5t-1.5 75q-1 18 8.5 24.5t20.5 5t20.5 -9.5t8.5 -18q-2 -143 -18 -234t-41 -143t-55.5 -71t-61.5 -18
q-41 1 -68.5 27t-44 66t-24.5 90t-10.5 99.5t-2 92.5t0.5 71zM211 615q1 -3 5 -11t10 -19t12.5 -23t12.5 -23q4 -9 0.5 -16.5t-11.5 -11.5t-17 -3t-15 10q-4 7 -8.5 16.5t-16.5 35.5q-5 -12 -7.5 -17l-4.5 -9t-4 -8.5t-6 -14.5t-13.5 -12.5t-18 0.5t-12.5 12t4 22
q12 25 19 38.5t14 31.5q3 9 11.5 13t17.5 4t17 -4t11 -11z" />
    <glyph glyph-name="udieresis" unicode="&#xfc;" horiz-adv-x="365" 
d="M24 446q0 16 9 24.5t20 8.5t20 -8.5t8 -26.5q-1 -12 -2 -45.5t-0.5 -77t4.5 -91t14.5 -87t29.5 -65t49 -25.5q27 0 46.5 21.5t33 56.5t21.5 79.5t11.5 90t4 88.5t-1.5 75q-1 18 8.5 24.5t20.5 5t20.5 -9.5t8.5 -18q-2 -143 -18 -234t-41 -143t-55.5 -71t-61.5 -18
q-41 1 -68.5 27t-44 66t-24.5 90t-10.5 99.5t-2 92.5t0.5 71zM107 494q-18 0 -27.5 11t-9.5 24t9 24t28 11q18 0 27 -11t9 -24t-9 -24t-27 -11zM259 494q-18 0 -27.5 11t-9.5 24t9 24t28 11q18 0 27 -11t9 -24t-9 -24t-27 -11z" />
    <glyph glyph-name="yacute" unicode="&#xfd;" horiz-adv-x="503" 
d="M300 -312q-5 -13 -16.5 -17t-22.5 -1t-18.5 12t-4.5 22q10 27 18.5 55.5t17.5 64.5t19.5 83.5t26.5 113.5q-40 47 -87.5 103.5t-90 111.5t-75 102t-43.5 74q-7 11 -3 22.5t13 19t20 8t18 -10.5q4 -17 24 -54t54 -86t81 -105t106 -112q15 66 28.5 127.5t24 112t17 86.5
t7.5 50q4 12 15.5 16.5t22.5 2.5t19 -10t4 -21q-3 -10 -12.5 -47.5t-23 -94.5t-31 -130t-36 -155t-37 -169.5t-35.5 -173.5zM271 598q5 6 12.5 4.5t13.5 -7.5t7.5 -14t-6.5 -15q-29 -26 -44 -43.5t-21 -22.5q-8 -8 -16.5 -6t-14 8.5t-6.5 15t6 15.5q9 9 20 19.5t21.5 20
t18 16.5t9.5 9z" />
    <glyph glyph-name="thorn" unicode="&#xfe;" horiz-adv-x="435" 
d="M410 532q-1 -50 -16.5 -96.5t-41.5 -82.5t-61.5 -58t-77.5 -23q-27 -1 -58 7.5t-60 38.5q0 -1 -0.5 -23.5t-1.5 -55t-2 -70.5t-2 -71t-2 -55t-1 -23q-3 -10 -12 -15.5t-19 -5.5t-18 6.5t-10 21.5q5 55 7.5 121.5t3 138.5t-0.5 147t-3 146.5t-4 136.5t-3 117q0 15 9.5 24
t21.5 10t21.5 -6.5t9.5 -24.5q-1 -46 -1.5 -72.5t0 -50t2 -53t6.5 -80.5q3 3 9 16t15.5 31t24 38t35.5 37t49 29.5t65 15.5t60.5 -19t36 -55t16.5 -72t3 -70zM111 409q0 -21 10 -38t25 -28t33.5 -16t36.5 -2q30 4 56 22.5t45 46t30 62t11 70.5q0 15 -0.5 43.5t-6 56.5
t-19.5 48.5t-41 20.5q-43 0 -76.5 -32.5t-56.5 -78t-35 -94t-12 -81.5z" />
    <glyph glyph-name="ydieresis" unicode="&#xff;" horiz-adv-x="503" 
d="M300 -312q-5 -13 -16.5 -17t-22.5 -1t-18.5 12t-4.5 22q10 27 18.5 55.5t17.5 64.5t19.5 83.5t26.5 113.5q-40 47 -87.5 103.5t-90 111.5t-75 102t-43.5 74q-7 11 -3 22.5t13 19t20 8t18 -10.5q4 -17 24 -54t54 -86t81 -105t106 -112q15 66 28.5 127.5t24 112t17 86.5
t7.5 50q4 12 15.5 16.5t22.5 2.5t19 -10t4 -21q-3 -10 -12.5 -47.5t-23 -94.5t-31 -130t-36 -155t-37 -169.5t-35.5 -173.5zM176 494q-18 0 -27.5 11t-9.5 24t9 24t28 11q18 0 27 -11t9 -24t-9 -24t-27 -11zM328 494q-18 0 -27.5 11t-9.5 24t9 24t28 11q18 0 27 -11t9 -24
t-9 -24t-27 -11z" />
    <glyph glyph-name="Amacron" unicode="&#x100;" horiz-adv-x="587" 
d="M556 26q0 -14 -9 -22t-20 -9.5t-21.5 3.5t-13.5 18q-1 26 -4.5 64t-9.5 83.5t-14 98t-17 106.5q-68 -8 -130 -19.5t-112 -23.5q-34 -81 -67 -161t-63 -152q-7 -12 -19 -14t-22.5 2.5t-16.5 14.5t-1 22q22 38 55.5 110t71.5 160q-6 -2 -11.5 -3.5t-10.5 -3.5
q-13 -2 -22 6.5t-11.5 20t2 21.5t17.5 12q12 3 26.5 5.5t37.5 6.5q31 73 61 146.5t55 137t43 112t24 71.5q3 9 12.5 15t20 7t20 -4.5t11.5 -20.5q3 -20 9.5 -59.5t16 -93t20.5 -118.5t23 -136l22 4l22 4q14 0 22 -8t10 -19t-3 -21t-18 -13l-45 -3q14 -88 29.5 -176
t29.5 -171zM375 742q-13 -32 -29 -72.5t-35 -87t-39.5 -97.5t-42.5 -103q35 6 85.5 14.5t123.5 22.5q-8 45 -16 89.5t-16.5 86.5t-16 79.5t-14.5 67.5zM199 883q-14 2 -20.5 12t-6.5 21t6.5 20t19.5 9q63 -8 112 -10t89 -1t72.5 5t61.5 9q13 0 20 -10t8 -21.5t-5 -21
t-19 -9.5h-17.5h-14.5t-26 0.5t-50.5 0t-89 -1t-140.5 -2.5z" />
    <glyph glyph-name="amacron" unicode="&#x101;" horiz-adv-x="477" 
d="M363 203q-17 -41 -35 -75.5t-41.5 -61.5t-52.5 -44t-68 -21q-20 -2 -41.5 2.5t-38.5 16.5q-29 19 -38.5 50.5t-7 66t13 69.5t21.5 62q17 42 42 79.5t57 66.5t70 46t82 17q12 0 26 -5t26 -15.5t20.5 -27t9.5 -38.5q2 -45 2 -83.5t1.5 -82.5t6.5 -98.5t16 -130.5
q2 -14 -5 -21t-17 -7.5t-19.5 3t-10.5 10.5q-4 17 -7 45.5t-5.5 60t-4 62.5t-2.5 54zM119 245q-6 -15 -14.5 -41.5t-12.5 -55t0 -53.5t25 -37q18 -10 45 -10q30 0 55.5 18t46.5 47.5t36.5 66t25.5 73.5t15 71t5 58q0 18 -7 28.5t-25 10.5q-30 0 -59 -13.5t-54 -37t-46 -55.5
t-36 -70zM70 494q-14 2 -20.5 12t-6.5 21t6.5 20t19.5 9q63 -8 112 -10t89 -1t72.5 5t61.5 9q13 0 20 -10t8 -21.5t-5 -21t-19 -9.5h-17.5h-14.5t-26 0.5t-50.5 0t-89 -1t-140.5 -2.5z" />
    <glyph glyph-name="Abreve" unicode="&#x102;" horiz-adv-x="587" 
d="M556 26q0 -14 -9 -22t-20 -9.5t-21.5 3.5t-13.5 18q-1 26 -4.5 64t-9.5 83.5t-14 98t-17 106.5q-68 -8 -130 -19.5t-112 -23.5q-34 -81 -67 -161t-63 -152q-7 -12 -19 -14t-22.5 2.5t-16.5 14.5t-1 22q22 38 55.5 110t71.5 160q-6 -2 -11.5 -3.5t-10.5 -3.5
q-13 -2 -22 6.5t-11.5 20t2 21.5t17.5 12q12 3 26.5 5.5t37.5 6.5q31 73 61 146.5t55 137t43 112t24 71.5q3 9 12.5 15t20 7t20 -4.5t11.5 -20.5q3 -20 9.5 -59.5t16 -93t20.5 -118.5t23 -136l22 4l22 4q14 0 22 -8t10 -19t-3 -21t-18 -13l-45 -3q14 -88 29.5 -176
t29.5 -171zM375 742q-13 -32 -29 -72.5t-35 -87t-39.5 -97.5t-42.5 -103q35 6 85.5 14.5t123.5 22.5q-8 45 -16 89.5t-16.5 86.5t-16 79.5t-14.5 67.5zM463 973q2 8 9.5 10.5t15 0.5t13 -8.5t3.5 -15.5q-8 -39 -37.5 -59t-63 -21t-62.5 18.5t-37 59.5q-2 9 4 15.5t14 8.5
t16 -1t10 -12q6 -25 22 -36.5t35 -10.5t35.5 14t22.5 37z" />
    <glyph glyph-name="abreve" unicode="&#x103;" horiz-adv-x="477" 
d="M363 203q-17 -41 -35 -75.5t-41.5 -61.5t-52.5 -44t-68 -21q-20 -2 -41.5 2.5t-38.5 16.5q-29 19 -38.5 50.5t-7 66t13 69.5t21.5 62q17 42 42 79.5t57 66.5t70 46t82 17q12 0 26 -5t26 -15.5t20.5 -27t9.5 -38.5q2 -45 2 -83.5t1.5 -82.5t6.5 -98.5t16 -130.5
q2 -14 -5 -21t-17 -7.5t-19.5 3t-10.5 10.5q-4 17 -7 45.5t-5.5 60t-4 62.5t-2.5 54zM119 245q-6 -15 -14.5 -41.5t-12.5 -55t0 -53.5t25 -37q18 -10 45 -10q30 0 55.5 18t46.5 47.5t36.5 66t25.5 73.5t15 71t5 58q0 18 -7 28.5t-25 10.5q-30 0 -59 -13.5t-54 -37t-46 -55.5
t-36 -70zM382 607q2 8 9.5 10.5t15 0.5t13 -8.5t3.5 -15.5q-8 -39 -37.5 -59t-63 -21t-62.5 18.5t-37 59.5q-2 9 4 15.5t14 8.5t16 -1t10 -12q6 -25 22 -36.5t35 -10.5t35.5 14t22.5 37z" />
    <glyph glyph-name="Aogonek" unicode="&#x104;" horiz-adv-x="587" 
d="M556 26q0 -14 -9 -22t-20 -9.5t-21.5 3.5t-13.5 18q-1 26 -4.5 64t-9.5 83.5t-14 98t-17 106.5q-68 -8 -130 -19.5t-112 -23.5q-34 -81 -67 -161t-63 -152q-7 -12 -19 -14t-22.5 2.5t-16.5 14.5t-1 22q22 38 55.5 110t71.5 160q-6 -2 -11.5 -3.5t-10.5 -3.5
q-13 -2 -22 6.5t-11.5 20t2 21.5t17.5 12q12 3 26.5 5.5t37.5 6.5q31 73 61 146.5t55 137t43 112t24 71.5q3 9 12.5 15t20 7t20 -4.5t11.5 -20.5q3 -20 9.5 -59.5t16 -93t20.5 -118.5t23 -136l22 4l22 4q14 0 22 -8t10 -19t-3 -21t-18 -13l-45 -3q14 -88 29.5 -176
t29.5 -171zM375 742q-13 -32 -29 -72.5t-35 -87t-39.5 -97.5t-42.5 -103q35 6 85.5 14.5t123.5 22.5q-8 45 -16 89.5t-16.5 86.5t-16 79.5t-14.5 67.5zM534 -82q9 0 12 -8t1.5 -17t-7.5 -16.5t-16 -6.5q-32 4 -49 25.5t-18 49t13.5 56t45.5 45.5q9 5 15.5 1t10 -11.5
t2 -16.5t-9.5 -13q-18 -11 -26.5 -25.5t-8 -28t9 -23.5t25.5 -11z" />
    <glyph glyph-name="aogonek" unicode="&#x105;" horiz-adv-x="477" 
d="M363 203q-17 -41 -35 -75.5t-41.5 -61.5t-52.5 -44t-68 -21q-20 -2 -41.5 2.5t-38.5 16.5q-29 19 -38.5 50.5t-7 66t13 69.5t21.5 62q17 42 42 79.5t57 66.5t70 46t82 17q12 0 26 -5t26 -15.5t20.5 -27t9.5 -38.5q2 -45 2 -83.5t1.5 -82.5t6.5 -98.5t16 -130.5
q2 -14 -5 -21t-17 -7.5t-19.5 3t-10.5 10.5q-4 17 -7 45.5t-5.5 60t-4 62.5t-2.5 54zM119 245q-6 -15 -14.5 -41.5t-12.5 -55t0 -53.5t25 -37q18 -10 45 -10q30 0 55.5 18t46.5 47.5t36.5 66t25.5 73.5t15 71t5 58q0 18 -7 28.5t-25 10.5q-30 0 -59 -13.5t-54 -37t-46 -55.5
t-36 -70zM408 -89q9 0 12 -8t1.5 -17t-7.5 -16.5t-16 -6.5q-32 4 -49 25.5t-18 49t13.5 56t45.5 45.5q9 5 15.5 1t10 -11.5t2 -16.5t-9.5 -13q-18 -11 -26.5 -25.5t-8 -28t9 -23.5t25.5 -11z" />
    <glyph glyph-name="Cacute" unicode="&#x106;" horiz-adv-x="541" 
d="M244 -4q-70 0 -113 34.5t-66.5 88.5t-30.5 119.5t-4 126.5q3 46 12 101.5t25 112t40 109.5t56.5 93.5t74 63.5t93.5 20q33 -3 56 -21t38.5 -45.5t23.5 -61.5t11.5 -69.5t3 -69.5t-2.5 -61q-1 -14 -11.5 -21.5t-22.5 -8t-21 5.5t-7 19q18 132 -3.5 201.5t-72.5 74.5
q-39 3 -70.5 -19.5t-57 -61t-44.5 -88.5t-32 -101t-20.5 -99t-9.5 -83q-3 -57 0.5 -110.5t20.5 -96t50 -69t88 -27.5q30 -1 62 7.5t61 30.5t51.5 60.5t33.5 97.5q3 19 14.5 26.5t22.5 5.5t18.5 -13.5t3.5 -31.5q-15 -68 -43.5 -114t-65.5 -74t-79 -40t-83 -12zM290 977
q5 6 12.5 4.5t13.5 -7.5t7.5 -14t-6.5 -15q-29 -26 -44 -43.5t-21 -22.5q-8 -8 -16.5 -6t-14 8.5t-6.5 15t6 15.5q9 9 20 19.5t21.5 20t18 16.5t9.5 9z" />
    <glyph glyph-name="cacute" unicode="&#x107;" horiz-adv-x="400" 
d="M75 44q-29 33 -40.5 78t-8.5 94q2 33 10.5 66t21.5 63.5t30 57.5t38 47q29 28 65.5 41t78.5 4q22 -5 35 -24t19 -45t6 -56.5t-2 -58.5q-1 -14 -10 -20.5t-19 -6.5t-18 6.5t-7 18.5q1 19 1.5 40t-0.5 39t-4.5 31.5t-9.5 17.5q-30 19 -58.5 6t-51.5 -44
q-12 -17 -24.5 -38.5t-22.5 -46t-17 -51t-9 -52.5q-3 -39 7.5 -74.5t38.5 -61.5q23 -21 53 -24q44 -4 85 19.5t64 81.5q6 14 16 18.5t19.5 2t15 -10.5t1.5 -19q-15 -43 -37 -71t-48 -44t-55 -22.5t-59 -6.5q-33 0 -59 12.5t-45 32.5zM289 616q5 6 12.5 4.5t13.5 -7.5
t7.5 -14t-6.5 -15q-29 -26 -44 -43.5t-21 -22.5q-8 -8 -16.5 -6t-14 8.5t-6.5 15t6 15.5q9 9 20 19.5t21.5 20t18 16.5t9.5 9z" />
    <glyph glyph-name="Ccircumflex" unicode="&#x108;" horiz-adv-x="541" 
d="M244 -4q-70 0 -113 34.5t-66.5 88.5t-30.5 119.5t-4 126.5q3 46 12 101.5t25 112t40 109.5t56.5 93.5t74 63.5t93.5 20q33 -3 56 -21t38.5 -45.5t23.5 -61.5t11.5 -69.5t3 -69.5t-2.5 -61q-1 -14 -11.5 -21.5t-22.5 -8t-21 5.5t-7 19q18 132 -3.5 201.5t-72.5 74.5
q-39 3 -70.5 -19.5t-57 -61t-44.5 -88.5t-32 -101t-20.5 -99t-9.5 -83q-3 -57 0.5 -110.5t20.5 -96t50 -69t88 -27.5q30 -1 62 7.5t61 30.5t51.5 60.5t33.5 97.5q3 19 14.5 26.5t22.5 5.5t18.5 -13.5t3.5 -31.5q-15 -68 -43.5 -114t-65.5 -74t-79 -40t-83 -12zM328 990
q1 -3 5 -11t10 -19t12.5 -23t12.5 -23q4 -9 0.5 -16.5t-11.5 -11.5t-17 -3t-15 10q-4 7 -8.5 16.5t-16.5 35.5q-5 -12 -7.5 -17l-4.5 -9t-4 -8.5t-6 -14.5t-13.5 -12.5t-18 0.5t-12.5 12t4 22q12 25 19 38.5t14 31.5q3 9 11.5 13t17.5 4t17 -4t11 -11z" />
    <glyph glyph-name="ccircumflex" unicode="&#x109;" horiz-adv-x="400" 
d="M75 44q-29 33 -40.5 78t-8.5 94q2 33 10.5 66t21.5 63.5t30 57.5t38 47q29 28 65.5 41t78.5 4q22 -5 35 -24t19 -45t6 -56.5t-2 -58.5q-1 -14 -10 -20.5t-19 -6.5t-18 6.5t-7 18.5q1 19 1.5 40t-0.5 39t-4.5 31.5t-9.5 17.5q-30 19 -58.5 6t-51.5 -44
q-12 -17 -24.5 -38.5t-22.5 -46t-17 -51t-9 -52.5q-3 -39 7.5 -74.5t38.5 -61.5q23 -21 53 -24q44 -4 85 19.5t64 81.5q6 14 16 18.5t19.5 2t15 -10.5t1.5 -19q-15 -43 -37 -71t-48 -44t-55 -22.5t-59 -6.5q-33 0 -59 12.5t-45 32.5zM238 627q1 -3 5 -11t10 -19t12.5 -23
t12.5 -23q4 -9 0.5 -16.5t-11.5 -11.5t-17 -3t-15 10q-4 7 -8.5 16.5t-16.5 35.5q-5 -12 -7.5 -17l-4.5 -9t-4 -8.5t-6 -14.5t-13.5 -12.5t-18 0.5t-12.5 12t4 22q12 25 19 38.5t14 31.5q3 9 11.5 13t17.5 4t17 -4t11 -11z" />
    <glyph glyph-name="Cdotaccent" unicode="&#x10a;" horiz-adv-x="541" 
d="M244 -4q-70 0 -113 34.5t-66.5 88.5t-30.5 119.5t-4 126.5q3 46 12 101.5t25 112t40 109.5t56.5 93.5t74 63.5t93.5 20q33 -3 56 -21t38.5 -45.5t23.5 -61.5t11.5 -69.5t3 -69.5t-2.5 -61q-1 -14 -11.5 -21.5t-22.5 -8t-21 5.5t-7 19q18 132 -3.5 201.5t-72.5 74.5
q-39 3 -70.5 -19.5t-57 -61t-44.5 -88.5t-32 -101t-20.5 -99t-9.5 -83q-3 -57 0.5 -110.5t20.5 -96t50 -69t88 -27.5q30 -1 62 7.5t61 30.5t51.5 60.5t33.5 97.5q3 19 14.5 26.5t22.5 5.5t18.5 -13.5t3.5 -31.5q-15 -68 -43.5 -114t-65.5 -74t-79 -40t-83 -12zM318 885
q-18 0 -27.5 11t-9.5 24t9 24t28 11q18 0 27 -11t9 -24t-9 -24t-27 -11z" />
    <glyph glyph-name="cdotaccent" unicode="&#x10b;" horiz-adv-x="400" 
d="M75 44q-29 33 -40.5 78t-8.5 94q2 33 10.5 66t21.5 63.5t30 57.5t38 47q29 28 65.5 41t78.5 4q22 -5 35 -24t19 -45t6 -56.5t-2 -58.5q-1 -14 -10 -20.5t-19 -6.5t-18 6.5t-7 18.5q1 19 1.5 40t-0.5 39t-4.5 31.5t-9.5 17.5q-30 19 -58.5 6t-51.5 -44
q-12 -17 -24.5 -38.5t-22.5 -46t-17 -51t-9 -52.5q-3 -39 7.5 -74.5t38.5 -61.5q23 -21 53 -24q44 -4 85 19.5t64 81.5q6 14 16 18.5t19.5 2t15 -10.5t1.5 -19q-15 -43 -37 -71t-48 -44t-55 -22.5t-59 -6.5q-33 0 -59 12.5t-45 32.5zM232 527q-18 0 -27.5 11t-9.5 24t9 24
t28 11q18 0 27 -11t9 -24t-9 -24t-27 -11z" />
    <glyph glyph-name="Ccaron" unicode="&#x10c;" horiz-adv-x="541" 
d="M244 -4q-70 0 -113 34.5t-66.5 88.5t-30.5 119.5t-4 126.5q3 46 12 101.5t25 112t40 109.5t56.5 93.5t74 63.5t93.5 20q33 -3 56 -21t38.5 -45.5t23.5 -61.5t11.5 -69.5t3 -69.5t-2.5 -61q-1 -14 -11.5 -21.5t-22.5 -8t-21 5.5t-7 19q18 132 -3.5 201.5t-72.5 74.5
q-39 3 -70.5 -19.5t-57 -61t-44.5 -88.5t-32 -101t-20.5 -99t-9.5 -83q-3 -57 0.5 -110.5t20.5 -96t50 -69t88 -27.5q30 -1 62 7.5t61 30.5t51.5 60.5t33.5 97.5q3 19 14.5 26.5t22.5 5.5t18.5 -13.5t3.5 -31.5q-15 -68 -43.5 -114t-65.5 -74t-79 -40t-83 -12zM279 899
q-1 3 -5 11t-10 19t-12.5 23t-12.5 23q-5 9 -1 16.5t12 11.5t17 3t15 -10q4 -7 8.5 -16.5t16.5 -35.5q5 12 7.5 17l4.5 9t4 8.5t6 14.5t13.5 12.5t18 -0.5t12 -12t-3.5 -22q-6 -13 -10.5 -22t-8.5 -16.5t-7.5 -15t-6.5 -16.5t-11.5 -13t-17.5 -4t-17 3.5t-11 11.5z" />
    <glyph glyph-name="ccaron" unicode="&#x10d;" horiz-adv-x="400" 
d="M75 44q-29 33 -40.5 78t-8.5 94q2 33 10.5 66t21.5 63.5t30 57.5t38 47q29 28 65.5 41t78.5 4q22 -5 35 -24t19 -45t6 -56.5t-2 -58.5q-1 -14 -10 -20.5t-19 -6.5t-18 6.5t-7 18.5q1 19 1.5 40t-0.5 39t-4.5 31.5t-9.5 17.5q-30 19 -58.5 6t-51.5 -44
q-12 -17 -24.5 -38.5t-22.5 -46t-17 -51t-9 -52.5q-3 -39 7.5 -74.5t38.5 -61.5q23 -21 53 -24q44 -4 85 19.5t64 81.5q6 14 16 18.5t19.5 2t15 -10.5t1.5 -19q-15 -43 -37 -71t-48 -44t-55 -22.5t-59 -6.5q-33 0 -59 12.5t-45 32.5zM209 537q-1 3 -5 11t-10 19t-12.5 23
t-12.5 23q-5 9 -1 16.5t12 11.5t17 3t15 -10q4 -7 8.5 -16.5t16.5 -35.5q5 12 7.5 17l4.5 9t4 8.5t6 14.5t13.5 12.5t18 -0.5t12 -12t-3.5 -22q-6 -13 -10.5 -22t-8.5 -16.5t-7.5 -15t-6.5 -16.5t-11.5 -13t-17.5 -4t-17 3.5t-11 11.5z" />
    <glyph glyph-name="Dcaron" unicode="&#x10e;" horiz-adv-x="533" 
d="M129 19q-2 -13 -11 -19.5t-19.5 -7.5t-20 4t-12.5 16q-16 -5 -28 -8q-12 -2 -18.5 5t-8 17.5t2.5 20t14 12.5l20 6t21 5q3 46 3.5 107.5t-0.5 129.5t-3 138.5t-4.5 135t-6 118.5t-6.5 89q-5 -2 -10 -3t-10 -3q-10 -3 -15.5 3.5t-6 16.5t5 20t18.5 13q3 1 6.5 1.5t6.5 1.5
q3 9 11 14.5t17.5 7t18 -1.5t12.5 -11q47 4 93 -1t87.5 -18.5t77 -35.5t62.5 -52q31 -35 49 -76t24.5 -85.5t2.5 -91.5t-17 -93q-20 -67 -55.5 -122t-83 -99.5t-103 -78.5t-115.5 -59q0 -5 0.5 -8.5t0.5 -7.5zM383 709q-25 25 -56.5 43.5t-67.5 30t-74 15.5t-75 1
q1 -42 3 -118.5t4.5 -172.5t4.5 -204.5t5 -214.5q48 19 95 49.5t88 71t73 90t50 106.5q12 40 16.5 81.5t-1 81t-21.5 75t-44 65.5zM237 894q-1 3 -5 11t-10 19t-12.5 23t-12.5 23q-5 9 -1 16.5t12 11.5t17 3t15 -10q4 -7 8.5 -16.5t16.5 -35.5q5 12 7.5 17l4.5 9t4 8.5
t6 14.5t13.5 12.5t18 -0.5t12 -12t-3.5 -22q-6 -13 -10.5 -22t-8.5 -16.5t-7.5 -15t-6.5 -16.5t-11.5 -13t-17.5 -4t-17 3.5t-11 11.5z" />
    <glyph glyph-name="dcaron" unicode="&#x10f;" horiz-adv-x="565" 
d="M373 17q0 28 1.5 58t-3.5 78q-34 -65 -82.5 -103.5t-117.5 -38.5q-39 0 -65.5 15t-42.5 40t-22.5 58t-6.5 68q0 54 15 106t41 93t59.5 65t71.5 22q25 -2 44.5 -6.5t36.5 -13.5t33 -22.5t33 -32.5q3 25 5.5 60t4 75t2.5 81.5t1.5 80.5t0.5 72v56q2 17 13.5 26t24.5 10
t25 -7t15 -24q-8 -50 -13 -124t-9.5 -152.5t-8 -152.5t-7.5 -125q-2 -24 -2 -55.5t1.5 -65t5 -66.5t9.5 -60q3 -17 -6 -27t-22 -12.5t-24 3.5t-11 21zM82 201q0 -20 3 -44t12 -45.5t25.5 -36t43.5 -14.5q47 0 83.5 25t62.5 62.5t40.5 81t16.5 81.5q-29 54 -65 85.5t-90 29.5
q-24 -1 -47.5 -20.5t-42 -51.5t-30.5 -72t-12 -81zM478 411q8 19 11 34.5t2 32t-6.5 35t-15.5 42.5q-7 17 -1.5 27.5t15 13.5t20 -1t13.5 -16q4 -13 10.5 -32t10.5 -42.5t2 -51t-15 -57.5q-4 -9 -13.5 -12t-18.5 -1t-14 9.5t0 18.5z" />
    <glyph glyph-name="Dcroat" unicode="&#x110;" horiz-adv-x="565" 
d="M49 448q-14 2 -20.5 12t-6.5 21t6.5 20t19.5 9q27 -3 51 -6q-3 88 -7 163t-8 121q-5 -2 -10 -3t-10 -3q-10 -3 -15.5 3.5t-6 16.5t5 20t18.5 13q3 1 6.5 1.5t6.5 1.5q3 9 11 14.5t17.5 7t18 -1.5t12.5 -11q47 4 93 -1t87.5 -18.5t77 -35.5t62.5 -52q31 -35 49 -76
t24.5 -85.5t2.5 -91.5t-17 -93q-20 -67 -55.5 -122t-83 -99.5t-103 -78.5t-115.5 -59q0 -5 0.5 -8.5t0.5 -7.5q-2 -13 -11 -19.5t-19.5 -7.5t-20 4t-12.5 16q-16 -5 -28 -8q-12 -2 -18.5 5t-8 17.5t2.5 20t14 12.5l20 6t21 5q2 35 2.5 79t0.5 93t-1 101.5t-2 105.5
q-13 -1 -25.5 -1h-26.5zM415 709q-25 25 -56.5 43.5t-67.5 30t-74 15.5t-75 1q2 -43 3.5 -121t3.5 -178q79 -5 133.5 0t100.5 13q13 0 20 -10t8 -21.5t-5 -21t-19 -9.5h-16h-13t-19 0.5t-34.5 0.5t-59.5 -0.5t-94 -1.5q2 -87 4 -178.5t4 -182.5q48 19 95 49.5t88 71t73 90
t50 106.5q12 40 16.5 81.5t-1 81t-21.5 75t-44 65.5z" />
    <glyph glyph-name="dcroat" unicode="&#x111;" horiz-adv-x="583" 
d="M373 17q0 28 1.5 58t-3.5 78q-34 -65 -82.5 -103.5t-117.5 -38.5q-39 0 -65.5 15t-42.5 40t-22.5 58t-6.5 68q0 54 15 106t41 93t59.5 65t71.5 22q25 -2 44.5 -6.5t36.5 -13.5t33 -22.5t33 -32.5q5 39 7.5 100t4.5 126q-22 -1 -47.5 -1t-57.5 -1q-14 2 -20.5 12t-6.5 21
t6.5 20t19.5 9q34 -5 60 -7t47 -4q1 46 1.5 85t-0.5 65q2 17 13.5 26t24.5 10t25 -7t15 -24q-5 -31 -8.5 -71t-6.5 -85q27 1 49.5 5t51.5 9q13 0 20 -10t8 -21.5t-5 -21t-19 -9.5q-9 -1 -11.5 -1t-3.5 0.5t-3.5 0.5t-11.5 0.5t-27.5 0.5h-51.5q-3 -48 -5.5 -97t-5 -95
t-4.5 -87t-4 -72q-2 -24 -2 -55.5t1.5 -65t5 -66.5t9.5 -60q3 -17 -6 -27t-22 -12.5t-24 3.5t-11 21zM82 201q0 -20 3 -44t12 -45.5t25.5 -36t43.5 -14.5q47 0 83.5 25t62.5 62.5t40.5 81t16.5 81.5q-29 54 -65 85.5t-90 29.5q-24 -1 -47.5 -20.5t-42 -51.5t-30.5 -72
t-12 -81z" />
    <glyph glyph-name="Emacron" unicode="&#x112;" horiz-adv-x="512" 
d="M409 497q13 -1 20.5 -10t8.5 -20t-4.5 -20.5t-18.5 -11.5q-96 3 -171.5 -5t-144.5 -20q2 -86 4.5 -175t4.5 -177q17 1 38 3.5t59 6.5t100 10.5t161 17.5q13 -1 20.5 -10t8.5 -20t-4.5 -20.5t-18.5 -11.5q-62 2 -118.5 -1t-105.5 -9t-89.5 -14t-70.5 -16q-14 -5 -28 1
t-15 23q5 42 6.5 113t0.5 155t-3.5 172.5t-6 165t-7.5 132.5t-8 76q0 13 10 20t21.5 8t21 -5t9.5 -19v-13q17 2 37.5 4t58.5 6.5t101 11t165 17.5q13 -1 20.5 -10t8.5 -20t-4.5 -20.5t-18.5 -11.5q-116 4 -208.5 -8.5t-157.5 -26.5q2 -51 3.5 -129.5t3.5 -172.5q21 1 44.5 4
t58 7t84.5 9.5t124 13.5zM87 873q-14 2 -20.5 12t-6.5 21t6.5 20t19.5 9q63 -8 112 -10t89 -1t72.5 5t61.5 9q13 0 20 -10t8 -21.5t-5 -21t-19 -9.5h-17.5h-14.5t-26 0.5t-50.5 0t-89 -1t-140.5 -2.5z" />
    <glyph glyph-name="emacron" unicode="&#x113;" horiz-adv-x="462" 
d="M366 28q-27 -22 -64.5 -35.5t-76 -13t-73 19t-53.5 60.5q-11 23 -16 49t-6.5 51t-1 47.5t1.5 39.5q-8 -1 -23.5 -0.5t-23.5 0.5q-10 0 -15 8t-4 17t7 17t18 8h30t18 1q8 39 24 73.5t39.5 61t54.5 42.5t69 17q42 1 68 -20t41 -52t21.5 -66t9.5 -63q1 -14 -10 -24t-28 -12
q-88 -9 -147 -11t-97 -1q-9 -51 -2 -91t21 -72q15 -31 39.5 -42t52.5 -7.5t56 18t50 34.5q37 32 55 75q5 10 15.5 10t19.5 -6.5t13.5 -16.5t-2.5 -20q-8 -12 -18 -25.5t-21 -26.5t-21.5 -25t-20.5 -19zM268 438q-48 -2 -81.5 -36.5t-48.5 -105.5h27.5h43t49.5 1t47.5 3t35 6
t14.5 10q0 12 -4.5 33t-15 41t-27 34.5t-40.5 13.5zM78 523q-14 2 -20.5 12t-6.5 21t6.5 20t19.5 9q63 -8 112 -10t89 -1t72.5 5t61.5 9q13 0 20 -10t8 -21.5t-5 -21t-19 -9.5h-17.5h-14.5t-26 0.5t-50.5 0t-89 -1t-140.5 -2.5z" />
    <glyph glyph-name="Ebreve" unicode="&#x114;" horiz-adv-x="512" 
d="M409 497q13 -1 20.5 -10t8.5 -20t-4.5 -20.5t-18.5 -11.5q-96 3 -171.5 -5t-144.5 -20q2 -86 4.5 -175t4.5 -177q17 1 38 3.5t59 6.5t100 10.5t161 17.5q13 -1 20.5 -10t8.5 -20t-4.5 -20.5t-18.5 -11.5q-62 2 -118.5 -1t-105.5 -9t-89.5 -14t-70.5 -16q-14 -5 -28 1
t-15 23q5 42 6.5 113t0.5 155t-3.5 172.5t-6 165t-7.5 132.5t-8 76q0 13 10 20t21.5 8t21 -5t9.5 -19v-13q17 2 37.5 4t58.5 6.5t101 11t165 17.5q13 -1 20.5 -10t8.5 -20t-4.5 -20.5t-18.5 -11.5q-116 4 -208.5 -8.5t-157.5 -26.5q2 -51 3.5 -129.5t3.5 -172.5q21 1 44.5 4
t58 7t84.5 9.5t124 13.5zM315 964q2 8 9.5 10.5t15 0.5t13 -8.5t3.5 -15.5q-8 -39 -37.5 -59t-63 -21t-62.5 18.5t-37 59.5q-2 9 4 15.5t14 8.5t16 -1t10 -12q6 -25 22 -36.5t35 -10.5t35.5 14t22.5 37z" />
    <glyph glyph-name="ebreve" unicode="&#x115;" horiz-adv-x="462" 
d="M366 28q-27 -22 -64.5 -35.5t-76 -13t-73 19t-53.5 60.5q-11 23 -16 49t-6.5 51t-1 47.5t1.5 39.5q-8 -1 -23.5 -0.5t-23.5 0.5q-10 0 -15 8t-4 17t7 17t18 8h30t18 1q8 39 24 73.5t39.5 61t54.5 42.5t69 17q42 1 68 -20t41 -52t21.5 -66t9.5 -63q1 -14 -10 -24t-28 -12
q-88 -9 -147 -11t-97 -1q-9 -51 -2 -91t21 -72q15 -31 39.5 -42t52.5 -7.5t56 18t50 34.5q37 32 55 75q5 10 15.5 10t19.5 -6.5t13.5 -16.5t-2.5 -20q-8 -12 -18 -25.5t-21 -26.5t-21.5 -25t-20.5 -19zM268 438q-48 -2 -81.5 -36.5t-48.5 -105.5h27.5h43t49.5 1t47.5 3t35 6
t14.5 10q0 12 -4.5 33t-15 41t-27 34.5t-40.5 13.5zM341 617q2 8 9.5 10.5t15 0.5t13 -8.5t3.5 -15.5q-8 -39 -37.5 -59t-63 -21t-62.5 18.5t-37 59.5q-2 9 4 15.5t14 8.5t16 -1t10 -12q6 -25 22 -36.5t35 -10.5t35.5 14t22.5 37z" />
    <glyph glyph-name="Edotaccent" unicode="&#x116;" horiz-adv-x="512" 
d="M409 497q13 -1 20.5 -10t8.5 -20t-4.5 -20.5t-18.5 -11.5q-96 3 -171.5 -5t-144.5 -20q2 -86 4.5 -175t4.5 -177q17 1 38 3.5t59 6.5t100 10.5t161 17.5q13 -1 20.5 -10t8.5 -20t-4.5 -20.5t-18.5 -11.5q-62 2 -118.5 -1t-105.5 -9t-89.5 -14t-70.5 -16q-14 -5 -28 1
t-15 23q5 42 6.5 113t0.5 155t-3.5 172.5t-6 165t-7.5 132.5t-8 76q0 13 10 20t21.5 8t21 -5t9.5 -19v-13q17 2 37.5 4t58.5 6.5t101 11t165 17.5q13 -1 20.5 -10t8.5 -20t-4.5 -20.5t-18.5 -11.5q-116 4 -208.5 -8.5t-157.5 -26.5q2 -51 3.5 -129.5t3.5 -172.5q21 1 44.5 4
t58 7t84.5 9.5t124 13.5zM256 865q-18 0 -27.5 11t-9.5 24t9 24t28 11q18 0 27 -11t9 -24t-9 -24t-27 -11z" />
    <glyph glyph-name="edotaccent" unicode="&#x117;" horiz-adv-x="462" 
d="M366 28q-27 -22 -64.5 -35.5t-76 -13t-73 19t-53.5 60.5q-11 23 -16 49t-6.5 51t-1 47.5t1.5 39.5q-8 -1 -23.5 -0.5t-23.5 0.5q-10 0 -15 8t-4 17t7 17t18 8h30t18 1q8 39 24 73.5t39.5 61t54.5 42.5t69 17q42 1 68 -20t41 -52t21.5 -66t9.5 -63q1 -14 -10 -24t-28 -12
q-88 -9 -147 -11t-97 -1q-9 -51 -2 -91t21 -72q15 -31 39.5 -42t52.5 -7.5t56 18t50 34.5q37 32 55 75q5 10 15.5 10t19.5 -6.5t13.5 -16.5t-2.5 -20q-8 -12 -18 -25.5t-21 -26.5t-21.5 -25t-20.5 -19zM268 438q-48 -2 -81.5 -36.5t-48.5 -105.5h27.5h43t49.5 1t47.5 3t35 6
t14.5 10q0 12 -4.5 33t-15 41t-27 34.5t-40.5 13.5zM287 515q-18 0 -27.5 11t-9.5 24t9 24t28 11q18 0 27 -11t9 -24t-9 -24t-27 -11z" />
    <glyph glyph-name="Eogonek" unicode="&#x118;" horiz-adv-x="512" 
d="M409 497q13 -1 20.5 -10t8.5 -20t-4.5 -20.5t-18.5 -11.5q-96 3 -171.5 -5t-144.5 -20q2 -86 4.5 -175t4.5 -177q17 1 38 3.5t59 6.5t100 10.5t161 17.5q13 -1 20.5 -10t8.5 -20t-4.5 -20.5t-18.5 -11.5q-62 2 -118.5 -1t-105.5 -9t-89.5 -14t-70.5 -16q-14 -5 -28 1
t-15 23q5 42 6.5 113t0.5 155t-3.5 172.5t-6 165t-7.5 132.5t-8 76q0 13 10 20t21.5 8t21 -5t9.5 -19v-13q17 2 37.5 4t58.5 6.5t101 11t165 17.5q13 -1 20.5 -10t8.5 -20t-4.5 -20.5t-18.5 -11.5q-116 4 -208.5 -8.5t-157.5 -26.5q2 -51 3.5 -129.5t3.5 -172.5q21 1 44.5 4
t58 7t84.5 9.5t124 13.5zM456 -55q9 0 12 -8t1.5 -17t-7.5 -16.5t-16 -6.5q-32 4 -49 25.5t-18 49t13.5 56t45.5 45.5q9 5 15.5 1t10 -11.5t2 -16.5t-9.5 -13q-18 -11 -26.5 -25.5t-8 -28t9 -23.5t25.5 -11z" />
    <glyph glyph-name="eogonek" unicode="&#x119;" horiz-adv-x="462" 
d="M366 28q-27 -22 -64.5 -35.5t-76 -13t-73 19t-53.5 60.5q-11 23 -16 49t-6.5 51t-1 47.5t1.5 39.5q-8 -1 -23.5 -0.5t-23.5 0.5q-10 0 -15 8t-4 17t7 17t18 8h30t18 1q8 39 24 73.5t39.5 61t54.5 42.5t69 17q42 1 68 -20t41 -52t21.5 -66t9.5 -63q1 -14 -10 -24t-28 -12
q-88 -9 -147 -11t-97 -1q-9 -51 -2 -91t21 -72q15 -31 39.5 -42t52.5 -7.5t56 18t50 34.5q37 32 55 75q5 10 15.5 10t19.5 -6.5t13.5 -16.5t-2.5 -20q-8 -12 -18 -25.5t-21 -26.5t-21.5 -25t-20.5 -19zM268 438q-48 -2 -81.5 -36.5t-48.5 -105.5h27.5h43t49.5 1t47.5 3t35 6
t14.5 10q0 12 -4.5 33t-15 41t-27 34.5t-40.5 13.5zM348 -73q9 0 12 -8t1.5 -17t-7.5 -16.5t-16 -6.5q-32 4 -49 25.5t-18 49t13.5 56t45.5 45.5q9 5 15.5 1t10 -11.5t2 -16.5t-9.5 -13q-18 -11 -26.5 -25.5t-8 -28t9 -23.5t25.5 -11z" />
    <glyph glyph-name="Ecaron" unicode="&#x11a;" horiz-adv-x="512" 
d="M409 497q13 -1 20.5 -10t8.5 -20t-4.5 -20.5t-18.5 -11.5q-96 3 -171.5 -5t-144.5 -20q2 -86 4.5 -175t4.5 -177q17 1 38 3.5t59 6.5t100 10.5t161 17.5q13 -1 20.5 -10t8.5 -20t-4.5 -20.5t-18.5 -11.5q-62 2 -118.5 -1t-105.5 -9t-89.5 -14t-70.5 -16q-14 -5 -28 1
t-15 23q5 42 6.5 113t0.5 155t-3.5 172.5t-6 165t-7.5 132.5t-8 76q0 13 10 20t21.5 8t21 -5t9.5 -19v-13q17 2 37.5 4t58.5 6.5t101 11t165 17.5q13 -1 20.5 -10t8.5 -20t-4.5 -20.5t-18.5 -11.5q-116 4 -208.5 -8.5t-157.5 -26.5q2 -51 3.5 -129.5t3.5 -172.5q21 1 44.5 4
t58 7t84.5 9.5t124 13.5zM227 894q-1 3 -5 11t-10 19t-12.5 23t-12.5 23q-5 9 -1 16.5t12 11.5t17 3t15 -10q4 -7 8.5 -16.5t16.5 -35.5q5 12 7.5 17l4.5 9t4 8.5t6 14.5t13.5 12.5t18 -0.5t12 -12t-3.5 -22q-6 -13 -10.5 -22t-8.5 -16.5t-7.5 -15t-6.5 -16.5t-11.5 -13
t-17.5 -4t-17 3.5t-11 11.5z" />
    <glyph glyph-name="ecaron" unicode="&#x11b;" horiz-adv-x="462" 
d="M366 28q-27 -22 -64.5 -35.5t-76 -13t-73 19t-53.5 60.5q-11 23 -16 49t-6.5 51t-1 47.5t1.5 39.5q-8 -1 -23.5 -0.5t-23.5 0.5q-10 0 -15 8t-4 17t7 17t18 8h30t18 1q8 39 24 73.5t39.5 61t54.5 42.5t69 17q42 1 68 -20t41 -52t21.5 -66t9.5 -63q1 -14 -10 -24t-28 -12
q-88 -9 -147 -11t-97 -1q-9 -51 -2 -91t21 -72q15 -31 39.5 -42t52.5 -7.5t56 18t50 34.5q37 32 55 75q5 10 15.5 10t19.5 -6.5t13.5 -16.5t-2.5 -20q-8 -12 -18 -25.5t-21 -26.5t-21.5 -25t-20.5 -19zM268 438q-48 -2 -81.5 -36.5t-48.5 -105.5h27.5h43t49.5 1t47.5 3t35 6
t14.5 10q0 12 -4.5 33t-15 41t-27 34.5t-40.5 13.5zM267 535q-1 3 -5 11t-10 19t-12.5 23t-12.5 23q-5 9 -1 16.5t12 11.5t17 3t15 -10q4 -7 8.5 -16.5t16.5 -35.5q5 12 7.5 17l4.5 9t4 8.5t6 14.5t13.5 12.5t18 -0.5t12 -12t-3.5 -22q-6 -13 -10.5 -22t-8.5 -16.5t-7.5 -15
t-6.5 -16.5t-11.5 -13t-17.5 -4t-17 3.5t-11 11.5z" />
    <glyph glyph-name="Gcircumflex" unicode="&#x11c;" horiz-adv-x="600" 
d="M551 451q13 -2 20 -11.5t7 -20.5t-6.5 -20t-19.5 -10q-53 6 -94 6q29 -30 37 -73t-2 -90q-9 -44 -31 -86t-54.5 -75.5t-74 -54t-89.5 -20.5q-70 0 -113 34.5t-66.5 88.5t-30.5 119.5t-4 126.5q3 46 12 101.5t25 112t40 109.5t56.5 93.5t74 63.5t93.5 20q39 -3 65.5 -27.5
t42 -60t21.5 -78.5t4 -83q-1 -14 -10.5 -22t-20 -9.5t-19.5 4t-8 19.5q5 95 -17.5 145.5t-65.5 54.5q-39 3 -71 -19t-57.5 -60t-45 -86.5t-33 -99t-21 -98t-9.5 -82.5q-3 -57 1.5 -111t21.5 -97t48.5 -70.5t81.5 -31.5q38 -3 71 13t59 43t43.5 62.5t25.5 71.5q11 51 -2 85.5
t-38 47.5q-13 7 -35 9t-47 0.5t-50.5 -6t-45.5 -11.5q-14 -2 -21 7.5t-7.5 22t5.5 22.5t19 10q12 1 17.5 2t14 2.5t25 3.5t50 4t88 4.5t140.5 4.5zM329 994q1 -3 5 -11t10 -19t12.5 -23t12.5 -23q4 -9 0.5 -16.5t-11.5 -11.5t-17 -3t-15 10q-4 7 -8.5 16.5t-16.5 35.5
q-5 -12 -7.5 -17l-4.5 -9t-4 -8.5t-6 -14.5t-13.5 -12.5t-18 0.5t-12.5 12t4 22q12 25 19 38.5t14 31.5q3 9 11.5 13t17.5 4t17 -4t11 -11z" />
    <glyph glyph-name="gcircumflex" unicode="&#x11d;" horiz-adv-x="417" 
d="M19 -63q1 18 9.5 26t17.5 7.5t15.5 -9.5t5.5 -24q-3 -34 -0.5 -71.5t14.5 -69t34.5 -53t57.5 -24.5q27 -2 49.5 12t40 38t31 54.5t23 62t15 60t7.5 48.5q7 66 8.5 120t-1.5 105q-11 -37 -29.5 -74t-43 -66.5t-53 -48t-57.5 -18.5q-39 0 -65.5 16t-42.5 42.5t-22.5 60.5
t-6.5 69q0 81 26.5 143.5t70 100t99 46.5t113.5 -16q19 -8 31.5 -44.5t20 -86t10.5 -106.5t2.5 -106.5t-3 -85t-5.5 -43.5q-4 -32 -11 -71t-19.5 -77.5t-31 -74t-43.5 -61.5t-58 -39.5t-74 -8.5q-41 4 -68.5 30t-43.5 64.5t-21.5 83.5t-1.5 89zM74 209q0 -20 3 -45.5t12 -48
t25.5 -37.5t43.5 -13q28 2 53.5 21.5t47 51t37.5 71.5t24 83q3 17 5.5 37.5t1 39.5t-8 34t-21.5 23q-40 20 -79.5 11.5t-71.5 -38.5t-52 -79t-20 -111zM253 629q1 -3 5 -11t10 -19t12.5 -23t12.5 -23q4 -9 0.5 -16.5t-11.5 -11.5t-17 -3t-15 10q-4 7 -8.5 16.5t-16.5 35.5
q-5 -12 -7.5 -17l-4.5 -9t-4 -8.5t-6 -14.5t-13.5 -12.5t-18 0.5t-12.5 12t4 22q12 25 19 38.5t14 31.5q3 9 11.5 13t17.5 4t17 -4t11 -11z" />
    <glyph glyph-name="Gbreve" unicode="&#x11e;" horiz-adv-x="600" 
d="M551 451q13 -2 20 -11.5t7 -20.5t-6.5 -20t-19.5 -10q-53 6 -94 6q29 -30 37 -73t-2 -90q-9 -44 -31 -86t-54.5 -75.5t-74 -54t-89.5 -20.5q-70 0 -113 34.5t-66.5 88.5t-30.5 119.5t-4 126.5q3 46 12 101.5t25 112t40 109.5t56.5 93.5t74 63.5t93.5 20q39 -3 65.5 -27.5
t42 -60t21.5 -78.5t4 -83q-1 -14 -10.5 -22t-20 -9.5t-19.5 4t-8 19.5q5 95 -17.5 145.5t-65.5 54.5q-39 3 -71 -19t-57.5 -60t-45 -86.5t-33 -99t-21 -98t-9.5 -82.5q-3 -57 1.5 -111t21.5 -97t48.5 -70.5t81.5 -31.5q38 -3 71 13t59 43t43.5 62.5t25.5 71.5q11 51 -2 85.5
t-38 47.5q-13 7 -35 9t-47 0.5t-50.5 -6t-45.5 -11.5q-14 -2 -21 7.5t-7.5 22t5.5 22.5t19 10q12 1 17.5 2t14 2.5t25 3.5t50 4t88 4.5t140.5 4.5zM375 975q2 8 9.5 10.5t15 0.5t13 -8.5t3.5 -15.5q-8 -39 -37.5 -59t-63 -21t-62.5 18.5t-37 59.5q-2 9 4 15.5t14 8.5t16 -1
t10 -12q6 -25 22 -36.5t35 -10.5t35.5 14t22.5 37z" />
    <glyph glyph-name="gbreve" unicode="&#x11f;" horiz-adv-x="417" 
d="M19 -63q1 18 9.5 26t17.5 7.5t15.5 -9.5t5.5 -24q-3 -34 -0.5 -71.5t14.5 -69t34.5 -53t57.5 -24.5q27 -2 49.5 12t40 38t31 54.5t23 62t15 60t7.5 48.5q7 66 8.5 120t-1.5 105q-11 -37 -29.5 -74t-43 -66.5t-53 -48t-57.5 -18.5q-39 0 -65.5 16t-42.5 42.5t-22.5 60.5
t-6.5 69q0 81 26.5 143.5t70 100t99 46.5t113.5 -16q19 -8 31.5 -44.5t20 -86t10.5 -106.5t2.5 -106.5t-3 -85t-5.5 -43.5q-4 -32 -11 -71t-19.5 -77.5t-31 -74t-43.5 -61.5t-58 -39.5t-74 -8.5q-41 4 -68.5 30t-43.5 64.5t-21.5 83.5t-1.5 89zM74 209q0 -20 3 -45.5t12 -48
t25.5 -37.5t43.5 -13q28 2 53.5 21.5t47 51t37.5 71.5t24 83q3 17 5.5 37.5t1 39.5t-8 34t-21.5 23q-40 20 -79.5 11.5t-71.5 -38.5t-52 -79t-20 -111zM294 625q2 8 9.5 10.5t15 0.5t13 -8.5t3.5 -15.5q-8 -39 -37.5 -59t-63 -21t-62.5 18.5t-37 59.5q-2 9 4 15.5t14 8.5
t16 -1t10 -12q6 -25 22 -36.5t35 -10.5t35.5 14t22.5 37z" />
    <glyph glyph-name="Gdotaccent" unicode="&#x120;" horiz-adv-x="600" 
d="M551 451q13 -2 20 -11.5t7 -20.5t-6.5 -20t-19.5 -10q-53 6 -94 6q29 -30 37 -73t-2 -90q-9 -44 -31 -86t-54.5 -75.5t-74 -54t-89.5 -20.5q-70 0 -113 34.5t-66.5 88.5t-30.5 119.5t-4 126.5q3 46 12 101.5t25 112t40 109.5t56.5 93.5t74 63.5t93.5 20q39 -3 65.5 -27.5
t42 -60t21.5 -78.5t4 -83q-1 -14 -10.5 -22t-20 -9.5t-19.5 4t-8 19.5q5 95 -17.5 145.5t-65.5 54.5q-39 3 -71 -19t-57.5 -60t-45 -86.5t-33 -99t-21 -98t-9.5 -82.5q-3 -57 1.5 -111t21.5 -97t48.5 -70.5t81.5 -31.5q38 -3 71 13t59 43t43.5 62.5t25.5 71.5q11 51 -2 85.5
t-38 47.5q-13 7 -35 9t-47 0.5t-50.5 -6t-45.5 -11.5q-14 -2 -21 7.5t-7.5 22t5.5 22.5t19 10q12 1 17.5 2t14 2.5t25 3.5t50 4t88 4.5t140.5 4.5zM327 892q-18 0 -27.5 11t-9.5 24t9 24t28 11q18 0 27 -11t9 -24t-9 -24t-27 -11z" />
    <glyph glyph-name="gdotaccent" unicode="&#x121;" horiz-adv-x="417" 
d="M19 -63q1 18 9.5 26t17.5 7.5t15.5 -9.5t5.5 -24q-3 -34 -0.5 -71.5t14.5 -69t34.5 -53t57.5 -24.5q27 -2 49.5 12t40 38t31 54.5t23 62t15 60t7.5 48.5q7 66 8.5 120t-1.5 105q-11 -37 -29.5 -74t-43 -66.5t-53 -48t-57.5 -18.5q-39 0 -65.5 16t-42.5 42.5t-22.5 60.5
t-6.5 69q0 81 26.5 143.5t70 100t99 46.5t113.5 -16q19 -8 31.5 -44.5t20 -86t10.5 -106.5t2.5 -106.5t-3 -85t-5.5 -43.5q-4 -32 -11 -71t-19.5 -77.5t-31 -74t-43.5 -61.5t-58 -39.5t-74 -8.5q-41 4 -68.5 30t-43.5 64.5t-21.5 83.5t-1.5 89zM74 209q0 -20 3 -45.5t12 -48
t25.5 -37.5t43.5 -13q28 2 53.5 21.5t47 51t37.5 71.5t24 83q3 17 5.5 37.5t1 39.5t-8 34t-21.5 23q-40 20 -79.5 11.5t-71.5 -38.5t-52 -79t-20 -111zM260 522q-18 0 -27.5 11t-9.5 24t9 24t28 11q18 0 27 -11t9 -24t-9 -24t-27 -11z" />
    <glyph glyph-name="Gcommaaccent" unicode="&#x122;" horiz-adv-x="600" 
d="M551 451q13 -2 20 -11.5t7 -20.5t-6.5 -20t-19.5 -10q-53 6 -94 6q29 -30 37 -73t-2 -90q-9 -44 -31 -86t-54.5 -75.5t-74 -54t-89.5 -20.5q-70 0 -113 34.5t-66.5 88.5t-30.5 119.5t-4 126.5q3 46 12 101.5t25 112t40 109.5t56.5 93.5t74 63.5t93.5 20q39 -3 65.5 -27.5
t42 -60t21.5 -78.5t4 -83q-1 -14 -10.5 -22t-20 -9.5t-19.5 4t-8 19.5q5 95 -17.5 145.5t-65.5 54.5q-39 3 -71 -19t-57.5 -60t-45 -86.5t-33 -99t-21 -98t-9.5 -82.5q-3 -57 1.5 -111t21.5 -97t48.5 -70.5t81.5 -31.5q38 -3 71 13t59 43t43.5 62.5t25.5 71.5q11 51 -2 85.5
t-38 47.5q-13 7 -35 9t-47 0.5t-50.5 -6t-45.5 -11.5q-14 -2 -21 7.5t-7.5 22t5.5 22.5t19 10q12 1 17.5 2t14 2.5t25 3.5t50 4t88 4.5t140.5 4.5zM242 -219q8 19 11 34.5t2 32t-6.5 35t-15.5 42.5q-7 17 -1.5 27.5t15 13.5t20 -1t13.5 -16q4 -13 10.5 -32t10.5 -42.5t2 -51
t-15 -57.5q-4 -9 -13.5 -12t-18.5 -1t-14 9.5t0 18.5z" />
    <glyph glyph-name="gcommaaccent" unicode="&#x123;" horiz-adv-x="417" 
d="M19 -63q1 18 9.5 26t17.5 7.5t15.5 -9.5t5.5 -24q-3 -34 -0.5 -71.5t14.5 -69t34.5 -53t57.5 -24.5q27 -2 49.5 12t40 38t31 54.5t23 62t15 60t7.5 48.5q7 66 8.5 120t-1.5 105q-11 -37 -29.5 -74t-43 -66.5t-53 -48t-57.5 -18.5q-39 0 -65.5 16t-42.5 42.5t-22.5 60.5
t-6.5 69q0 81 26.5 143.5t70 100t99 46.5t113.5 -16q19 -8 31.5 -44.5t20 -86t10.5 -106.5t2.5 -106.5t-3 -85t-5.5 -43.5q-4 -32 -11 -71t-19.5 -77.5t-31 -74t-43.5 -61.5t-58 -39.5t-74 -8.5q-41 4 -68.5 30t-43.5 64.5t-21.5 83.5t-1.5 89zM74 209q0 -20 3 -45.5t12 -48
t25.5 -37.5t43.5 -13q28 2 53.5 21.5t47 51t37.5 71.5t24 83q3 17 5.5 37.5t1 39.5t-8 34t-21.5 23q-40 20 -79.5 11.5t-71.5 -38.5t-52 -79t-20 -111zM239 723q-8 -19 -11 -34.5t-2 -32t6.5 -35t15.5 -42.5q7 -17 1.5 -27.5t-15 -13.5t-20 1t-13.5 16q-4 13 -10.5 32
t-10.5 42.5t-2 51t15 57.5q4 9 13.5 12t18.5 0.5t14 -9.5t0 -18z" />
    <glyph glyph-name="Hcircumflex" unicode="&#x124;" horiz-adv-x="643" 
d="M469 28q3 116 5.5 239t5.5 234q-44 -10 -90.5 -22.5t-91 -25t-85.5 -25.5t-74 -24q2 -94 4.5 -192.5t5.5 -192.5q-2 -14 -12 -20.5t-21 -6.5t-20.5 6.5t-10.5 19.5q3 27 4.5 67t2 88t0 102t-1.5 110q-15 -6 -28 -11q-13 -3 -22.5 5t-13 19.5t0 22t16.5 13.5q7 2 18.5 5
t27.5 8q-2 66 -4.5 129t-5.5 115t-6 89t-6 52q0 13 10 20t21.5 8t21 -5t9.5 -19q0 -10 1 -43l2.5 -82.5t2.5 -113.5t3 -136q56 16 140.5 39t202.5 55q1 57 2 106t2 87t2 63t2 34q0 13 9.5 19t21 5t21.5 -8t10 -20q-2 -12 -4.5 -37.5t-5 -61t-5 -80t-4.5 -93.5q14 4 28 7.5
t29 7.5q13 1 22 -6.5t12 -18t-1.5 -21t-16.5 -14.5q-35 -5 -75 -12q-2 -69 -3.5 -141t-1.5 -137t2 -119t6 -88q-1 -13 -10.5 -19.5t-20.5 -6.5t-21 6.5t-12 20.5zM350 994q1 -3 5 -11t10 -19t12.5 -23t12.5 -23q4 -9 0.5 -16.5t-11.5 -11.5t-17 -3t-15 10q-4 7 -8.5 16.5
t-16.5 35.5q-5 -12 -7.5 -17l-4.5 -9t-4 -8.5t-6 -14.5t-13.5 -12.5t-18 0.5t-12.5 12t4 22q12 25 19 38.5t14 31.5q3 9 11.5 13t17.5 4t17 -4t11 -11z" />
    <glyph glyph-name="hcircumflex" unicode="&#x125;" horiz-adv-x="438" 
d="M403 12q-1 -13 -10.5 -18t-20 -4t-19 7t-7.5 16q6 78 10 154.5t0.5 137.5t-18.5 97t-48 33q-19 -2 -38.5 -18t-38 -39.5t-35 -52t-29.5 -55.5t-22.5 -49.5t-12.5 -33.5l-6 -174q-2 -13 -11 -18.5t-19 -4t-18.5 9.5t-9.5 21q5 41 6 112t-1 154.5t-6 171.5t-8.5 164.5
t-9 132.5t-8.5 76q0 13 9 20t20.5 8.5t20.5 -3.5t9 -15q1 -12 3 -52t4.5 -95.5t5.5 -118t5.5 -118t4 -97.5t2.5 -56q14 26 34.5 59t45 62t52.5 49.5t58 21.5q45 1 70 -35.5t36 -102t9.5 -154.5t-9.5 -193zM314 708q1 -3 5 -11t10 -19t12.5 -23t12.5 -23q4 -9 0.5 -16.5
t-11.5 -11.5t-17 -3t-15 10q-4 7 -8.5 16.5t-16.5 35.5q-5 -12 -7.5 -17l-4.5 -9t-4 -8.5t-6 -14.5t-13.5 -12.5t-18 0.5t-12.5 12t4 22q12 25 19 38.5t14 31.5q3 9 11.5 13t17.5 4t17 -4t11 -11z" />
    <glyph glyph-name="Hbar" unicode="&#x126;" horiz-adv-x="643" 
d="M469 28q3 116 5.5 239t5.5 234q-44 -10 -90.5 -22.5t-91 -25t-85.5 -25.5t-74 -24q2 -94 4.5 -192.5t5.5 -192.5q-2 -14 -12 -20.5t-21 -6.5t-20.5 6.5t-10.5 19.5q3 27 4.5 67t2 88t0 102t-1.5 110q-15 -6 -28 -11q-13 -3 -22.5 5t-13 19.5t0 22t16.5 13.5q7 2 18.5 5
t27.5 8q-1 10 -1 20v20q-10 -3 -19 -6.5t-19 -6.5q-14 -2 -23 5t-12.5 17.5t0 20.5t15.5 15q13 2 27 5.5t29 6.5q-2 52 -4.5 98.5t-5 84.5t-5 65.5t-4.5 39.5q0 13 10 20t21.5 8t21 -5t9.5 -19q0 -9 1 -33t2 -60.5t2 -84t2 -102.5q43 11 89 23.5t91.5 26t88 27t78.5 25.5
q2 75 3 124t3 63q0 13 9.5 19t21 5t21.5 -8t10 -20q-3 -17 -7 -60.5t-7 -103.5q14 6 25 10.5t19 9.5q12 4 22 -3.5t14.5 -18t1.5 -21.5t-15 -15q-9 -4 -26.5 -8.5t-43.5 -11.5q-1 -12 -1.5 -24.5t-0.5 -25.5q14 4 28 7.5t29 7.5q13 1 22 -6.5t12 -18t-1.5 -21t-16.5 -14.5
q-35 -5 -75 -12q-2 -69 -3.5 -141t-1.5 -137t2 -119t6 -88q-1 -13 -10.5 -19.5t-20.5 -6.5t-21 6.5t-12 20.5zM482 606q-60 -15 -146.5 -39.5t-198.5 -62.5v-21.5t1 -21.5q56 16 140.5 39t202.5 55v26t1 25z" />
    <glyph glyph-name="hbar" unicode="&#x127;" horiz-adv-x="479" 
d="M444 12q-1 -13 -10.5 -18t-20 -4t-19 7t-7.5 16q6 78 10 154.5t0.5 137.5t-18.5 97t-48 33q-19 -2 -38.5 -18t-38 -39.5t-35 -52t-29.5 -55.5t-22.5 -49.5t-12.5 -33.5l-6 -174q-2 -13 -11 -18.5t-19 -4t-18.5 9.5t-9.5 21q5 41 6 112t-1 154.5t-6 171.5t-8.5 164.5
t-9 132.5t-8.5 76q0 13 9 20t20.5 8.5t20.5 -3.5t9 -15q1 -12 3 -52t4.5 -95.5t5.5 -118t5.5 -118t4 -97.5t2.5 -56q14 26 34.5 59t45 62t52.5 49.5t58 21.5q45 1 70 -35.5t36 -102t9.5 -154.5t-9.5 -193zM39 532q-14 2 -20.5 12t-6.5 21t6.5 20t19.5 9q63 -8 112 -10t89 -1
t72.5 5t61.5 9q13 0 20 -10t8 -21.5t-5 -21t-19 -9.5h-17.5h-14.5t-26 0.5t-50.5 0t-89 -1t-140.5 -2.5z" />
    <glyph glyph-name="Itilde" unicode="&#x128;" horiz-adv-x="593" 
d="M545 104q14 0 22 -9t9.5 -20t-4 -20.5t-18.5 -11.5q-67 -1 -135.5 -7.5t-131 -15.5t-115.5 -19t-89 -19q-13 -3 -21.5 5.5t-10.5 20t2.5 22t17.5 12.5q10 1 25 3t37 4.5t52.5 6t73.5 8.5q3 52 3.5 115.5t0 131.5t-2 136.5t-4 130.5t-6 113.5t-6.5 85.5q-30 -4 -59 -8.5
t-54.5 -9.5t-46.5 -9.5t-34 -8.5q-13 -2 -21.5 7.5t-10.5 21t2.5 21.5t17.5 10q10 0 41 3.5t74 9t93.5 12t100.5 13.5t93.5 13t73.5 11q14 0 22 -9t9.5 -20t-4 -20.5t-18.5 -11.5q-54 -1 -109.5 -5.5t-112.5 -11.5q1 -45 2.5 -123.5t4 -175.5t4.5 -204t5 -210q45 5 101 13
t127 19zM410 969q1 9 8.5 13.5t16 5t15 -4t6.5 -14.5q-2 -42 -25.5 -65.5t-55.5 -27.5q-31 -3 -50.5 8.5t-35 26.5t-29.5 27.5t-34 11.5q-17 -2 -29 -15.5t-14 -36.5q-1 -9 -8.5 -13.5t-16 -5t-15 4t-6.5 14.5q1 23 9 40.5t20.5 29.5t29 17.5t34.5 5.5q27 -1 46 -14.5
t34.5 -28.5t30.5 -25.5t34 -4.5q14 4 23.5 17t11.5 34z" />
    <glyph glyph-name="itilde" unicode="&#x129;" horiz-adv-x="136" 
d="M107 19q-2 -14 -11.5 -20.5t-20.5 -6.5t-20 6.5t-10 19.5q7 63 9 126.5t0 121t-6.5 104.5t-10.5 76q0 13 10 20t21.5 8t21 -5t9.5 -19q1 -17 1 -38.5t0.5 -66t2 -121.5t4.5 -205zM183 590q1 9 8.5 13.5t16 5t15 -4t6.5 -14.5q-2 -42 -25.5 -65.5t-55.5 -27.5
q-31 -3 -50.5 8.5t-35 26.5t-29.5 27.5t-34 11.5q-17 -2 -29 -15.5t-14 -36.5q-1 -9 -8.5 -13.5t-16 -5t-15 4t-6.5 14.5q1 23 9 40.5t20.5 29.5t29 17.5t34.5 5.5q27 -1 46 -14.5t34.5 -28.5t30.5 -25.5t34 -4.5q14 4 23.5 17t11.5 34z" />
    <glyph glyph-name="Imacron" unicode="&#x12a;" horiz-adv-x="593" 
d="M545 104q14 0 22 -9t9.5 -20t-4 -20.5t-18.5 -11.5q-67 -1 -135.5 -7.5t-131 -15.5t-115.5 -19t-89 -19q-13 -3 -21.5 5.5t-10.5 20t2.5 22t17.5 12.5q10 1 25 3t37 4.5t52.5 6t73.5 8.5q3 52 3.5 115.5t0 131.5t-2 136.5t-4 130.5t-6 113.5t-6.5 85.5q-30 -4 -59 -8.5
t-54.5 -9.5t-46.5 -9.5t-34 -8.5q-13 -2 -21.5 7.5t-10.5 21t2.5 21.5t17.5 10q10 0 41 3.5t74 9t93.5 12t100.5 13.5t93.5 13t73.5 11q14 0 22 -9t9.5 -20t-4 -20.5t-18.5 -11.5q-54 -1 -109.5 -5.5t-112.5 -11.5q1 -45 2.5 -123.5t4 -175.5t4.5 -204t5 -210q45 5 101 13
t127 19zM112 886q-14 2 -20.5 12t-6.5 21t6.5 20t19.5 9q63 -8 112 -10t89 -1t72.5 5t61.5 9q13 0 20 -10t8 -21.5t-5 -21t-19 -9.5h-17.5h-14.5t-26 0.5t-50.5 0t-89 -1t-140.5 -2.5z" />
    <glyph glyph-name="imacron" unicode="&#x12b;" horiz-adv-x="136" 
d="M107 19q-2 -14 -11.5 -20.5t-20.5 -6.5t-20 6.5t-10 19.5q7 63 9 126.5t0 121t-6.5 104.5t-10.5 76q0 13 10 20t21.5 8t21 -5t9.5 -19q1 -17 1 -38.5t0.5 -66t2 -121.5t4.5 -205zM-99 494q-14 2 -20.5 12t-6.5 21t6.5 20t19.5 9q63 -8 112 -10t89 -1t72.5 5t61.5 9
q13 0 20 -10t8 -21.5t-5 -21t-19 -9.5h-17.5h-14.5t-26 0.5t-50.5 0t-89 -1t-140.5 -2.5z" />
    <glyph glyph-name="Ibreve" unicode="&#x12c;" horiz-adv-x="593" 
d="M545 104q14 0 22 -9t9.5 -20t-4 -20.5t-18.5 -11.5q-67 -1 -135.5 -7.5t-131 -15.5t-115.5 -19t-89 -19q-13 -3 -21.5 5.5t-10.5 20t2.5 22t17.5 12.5q10 1 25 3t37 4.5t52.5 6t73.5 8.5q3 52 3.5 115.5t0 131.5t-2 136.5t-4 130.5t-6 113.5t-6.5 85.5q-30 -4 -59 -8.5
t-54.5 -9.5t-46.5 -9.5t-34 -8.5q-13 -2 -21.5 7.5t-10.5 21t2.5 21.5t17.5 10q10 0 41 3.5t74 9t93.5 12t100.5 13.5t93.5 13t73.5 11q14 0 22 -9t9.5 -20t-4 -20.5t-18.5 -11.5q-54 -1 -109.5 -5.5t-112.5 -11.5q1 -45 2.5 -123.5t4 -175.5t4.5 -204t5 -210q45 5 101 13
t127 19zM355 964q2 8 9.5 10.5t15 0.5t13 -8.5t3.5 -15.5q-8 -39 -37.5 -59t-63 -21t-62.5 18.5t-37 59.5q-2 9 4 15.5t14 8.5t16 -1t10 -12q6 -25 22 -36.5t35 -10.5t35.5 14t22.5 37z" />
    <glyph glyph-name="ibreve" unicode="&#x12d;" horiz-adv-x="136" 
d="M107 19q-2 -14 -11.5 -20.5t-20.5 -6.5t-20 6.5t-10 19.5q7 63 9 126.5t0 121t-6.5 104.5t-10.5 76q0 13 10 20t21.5 8t21 -5t9.5 -19q1 -17 1 -38.5t0.5 -66t2 -121.5t4.5 -205zM128 585q2 8 9.5 10.5t15 0.5t13 -8.5t3.5 -15.5q-8 -39 -37.5 -59t-63 -21t-62.5 18.5
t-37 59.5q-2 9 4 15.5t14 8.5t16 -1t10 -12q6 -25 22 -36.5t35 -10.5t35.5 14t22.5 37z" />
    <glyph glyph-name="Iogonek" unicode="&#x12e;" horiz-adv-x="593" 
d="M545 104q14 0 22 -9t9.5 -20t-4 -20.5t-18.5 -11.5q-67 -1 -135.5 -7.5t-131 -15.5t-115.5 -19t-89 -19q-13 -3 -21.5 5.5t-10.5 20t2.5 22t17.5 12.5q10 1 25 3t37 4.5t52.5 6t73.5 8.5q3 52 3.5 115.5t0 131.5t-2 136.5t-4 130.5t-6 113.5t-6.5 85.5q-30 -4 -59 -8.5
t-54.5 -9.5t-46.5 -9.5t-34 -8.5q-13 -2 -21.5 7.5t-10.5 21t2.5 21.5t17.5 10q10 0 41 3.5t74 9t93.5 12t100.5 13.5t93.5 13t73.5 11q14 0 22 -9t9.5 -20t-4 -20.5t-18.5 -11.5q-54 -1 -109.5 -5.5t-112.5 -11.5q1 -45 2.5 -123.5t4 -175.5t4.5 -204t5 -210q45 5 101 13
t127 19zM547 -42q9 0 12 -8t1.5 -17t-7.5 -16.5t-16 -6.5q-32 4 -49 25.5t-18 49t13.5 56t45.5 45.5q9 5 15.5 1t10 -11.5t2 -16.5t-9.5 -13q-18 -11 -26.5 -25.5t-8 -28t9 -23.5t25.5 -11z" />
    <glyph glyph-name="iogonek" unicode="&#x12f;" horiz-adv-x="136" 
d="M107 19q-2 -14 -11.5 -20.5t-20.5 -6.5t-20 6.5t-10 19.5q7 63 9 126.5t0 121t-6.5 104.5t-10.5 76q0 13 10 20t21.5 8t21 -5t9.5 -19q1 -17 1 -38.5t0.5 -66t2 -121.5t4.5 -205zM61 541q-18 0 -27.5 11t-9.5 24t9 24t28 11q18 0 27 -11t9 -24t-9 -24t-27 -11zM80 -89
q9 0 12 -8t1.5 -17t-7.5 -16.5t-16 -6.5q-32 4 -49 25.5t-18 49t13.5 56t45.5 45.5q9 5 15.5 1t10 -11.5t2 -16.5t-9.5 -13q-18 -11 -26.5 -25.5t-8 -28t9 -23.5t25.5 -11z" />
    <glyph glyph-name="Idotaccent" unicode="&#x130;" horiz-adv-x="593" 
d="M545 104q14 0 22 -9t9.5 -20t-4 -20.5t-18.5 -11.5q-67 -1 -135.5 -7.5t-131 -15.5t-115.5 -19t-89 -19q-13 -3 -21.5 5.5t-10.5 20t2.5 22t17.5 12.5q10 1 25 3t37 4.5t52.5 6t73.5 8.5q3 52 3.5 115.5t0 131.5t-2 136.5t-4 130.5t-6 113.5t-6.5 85.5q-30 -4 -59 -8.5
t-54.5 -9.5t-46.5 -9.5t-34 -8.5q-13 -2 -21.5 7.5t-10.5 21t2.5 21.5t17.5 10q10 0 41 3.5t74 9t93.5 12t100.5 13.5t93.5 13t73.5 11q14 0 22 -9t9.5 -20t-4 -20.5t-18.5 -11.5q-54 -1 -109.5 -5.5t-112.5 -11.5q1 -45 2.5 -123.5t4 -175.5t4.5 -204t5 -210q45 5 101 13
t127 19zM265 876q-18 0 -27.5 11t-9.5 24t9 24t28 11q18 0 27 -11t9 -24t-9 -24t-27 -11z" />
    <glyph glyph-name="dotlessi" unicode="&#x131;" horiz-adv-x="136" 
d="M107 19q-2 -14 -11.5 -20.5t-20.5 -6.5t-20 6.5t-10 19.5q7 63 9 126.5t0 121t-6.5 104.5t-10.5 76q0 13 10 20t21.5 8t21 -5t9.5 -19q1 -17 1 -38.5t0.5 -66t2 -121.5t4.5 -205z" />
    <glyph glyph-name="Jcircumflex" unicode="&#x134;" horiz-adv-x="441" 
d="M54 334q4 13 13.5 17t18.5 1.5t15 -11t3 -20.5q-14 -53 -13.5 -103t17 -89t50 -62.5t85.5 -24.5q24 0 41.5 8.5t30.5 23.5t21 35t13 43q16 75 13.5 161.5t-16 175.5t-34.5 174.5t-43 159.5q-4 15 4.5 25.5t21 14t24.5 -1.5t15 -22q14 -84 33 -170t32.5 -173t16.5 -175.5
t-14 -178.5q-6 -32 -17.5 -59.5t-30 -48t-46 -32.5t-66.5 -12q-66 0 -111 31t-68.5 80.5t-26 111t17.5 121.5zM316 998q1 -3 5 -11t10 -19t12.5 -23t12.5 -23q4 -9 0.5 -16.5t-11.5 -11.5t-17 -3t-15 10q-4 7 -8.5 16.5t-16.5 35.5q-5 -12 -7.5 -17l-4.5 -9t-4 -8.5
t-6 -14.5t-13.5 -12.5t-18 0.5t-12.5 12t4 22q12 25 19 38.5t14 31.5q3 9 11.5 13t17.5 4t17 -4t11 -11z" />
    <glyph glyph-name="jcircumflex" unicode="&#x135;" horiz-adv-x="196" 
d="M-221 -95q0 18 7.5 26.5t16.5 8.5t16.5 -8t7.5 -23q0 -34 12 -66.5t33 -57.5t50.5 -40t64.5 -15q41 0 67 31t41 74t21 88.5t6 75.5q0 66 -4.5 119.5t-13 104.5t-21 103.5t-28.5 115.5q-4 16 4 26.5t20 13t23.5 -4t13.5 -24.5q22 -120 33.5 -202t16.5 -133t5.5 -75.5
t0.5 -28.5q0 -32 -3 -70t-11.5 -76t-22.5 -72.5t-36 -61t-53 -41.5t-73 -13q-41 1 -76 20.5t-61 50.5t-41 71t-16 83zM108 638q1 -3 5 -11t10 -19t12.5 -23t12.5 -23q4 -9 0.5 -16.5t-11.5 -11.5t-17 -3t-15 10q-4 7 -8.5 16.5t-16.5 35.5q-5 -12 -7.5 -17l-4.5 -9t-4 -8.5
t-6 -14.5t-13.5 -12.5t-18 0.5t-12.5 12t4 22q12 25 19 38.5t14 31.5q3 9 11.5 13t17.5 4t17 -4t11 -11z" />
    <glyph glyph-name="Kcommaaccent" unicode="&#x136;" horiz-adv-x="512" 
d="M436 11q-20 39 -53.5 93.5t-74.5 109.5t-86 103.5t-89 76.5q1 -15 -1.5 -45t-6 -67t-8 -78t-9 -78t-8 -67t-4.5 -44q-4 -13 -15 -18t-22.5 -3.5t-19.5 9.5t-7 21q19 50 29.5 124t14 157.5t2 169t-5.5 159t-9 127t-9 73.5q0 13 10 20t21.5 8t21 -5t9.5 -19
q1 -13 2.5 -34.5t3.5 -62t4.5 -106.5t4.5 -168q17 12 42.5 41t55 66.5t60 79.5t56.5 81t45.5 71.5t26.5 50.5q4 11 15.5 10.5t22 -7.5t16 -18.5t-1.5 -21.5q-5 -8 -21.5 -32.5t-41 -59.5t-54 -76t-60.5 -81t-61.5 -76t-55.5 -60q28 -21 60.5 -54t65 -72t63.5 -80t57 -77
t44 -65t26 -43q6 -12 1.5 -22t-14 -16t-21.5 -5.5t-21 10.5zM229 -211q8 19 11 34.5t2 32t-6.5 35t-15.5 42.5q-7 17 -1.5 27.5t15 13.5t20 -1t13.5 -16q4 -13 10.5 -32t10.5 -42.5t2 -51t-15 -57.5q-4 -9 -13.5 -12t-18.5 -1t-14 9.5t0 18.5z" />
    <glyph glyph-name="kcommaaccent" unicode="&#x137;" horiz-adv-x="434" 
d="M343 3q-64 75 -124.5 121.5t-114.5 71.5q2 -45 2.5 -89.5t2.5 -87.5q-2 -14 -12 -20.5t-21 -6.5t-20.5 6.5t-10.5 19.5q5 42 6.5 113t0.5 155t-3.5 172.5t-6 165t-7.5 132.5t-8 76q0 13 10 20t21.5 8t21 -5t9.5 -19q1 -13 2 -65t3 -129.5t4 -174t4 -198.5
q25 18 54.5 51.5t57.5 71t51 72.5t35 56q6 10 16.5 9t19.5 -8.5t13 -19.5t-3 -22q-8 -12 -25.5 -37.5t-44 -59t-59.5 -71.5t-71 -74q77 -50 141 -98.5t102 -90.5q9 -10 7 -21t-10 -19t-20 -10.5t-23 5.5zM190 -211q8 19 11 34.5t2 32t-6.5 35t-15.5 42.5q-7 17 -1.5 27.5
t15 13.5t20 -1t13.5 -16q4 -13 10.5 -32t10.5 -42.5t2 -51t-15 -57.5q-4 -9 -13.5 -12t-18.5 -1t-14 9.5t0 18.5z" />
    <glyph glyph-name="Lacute" unicode="&#x139;" horiz-adv-x="507" 
d="M89 836q1 -11 2 -50l2.5 -97.5t3 -133t3.5 -157t4 -169.5t4 -171q119 -2 207.5 11.5t142.5 27.5q13 1 21 -8.5t9.5 -21t-3.5 -21.5t-18 -10q-17 -3 -46 -4.5t-73.5 -5t-106.5 -10t-144 -17.5q-8 -1 -17.5 0t-17 5.5t-11.5 13.5t-2 23q6 42 7.5 111.5t0.5 150.5
t-4.5 166.5t-8 159.5t-9 128.5t-8.5 74.5q0 13 10 20t21.5 8t21 -5t9.5 -19zM273 977q5 6 12.5 4.5t13.5 -7.5t7.5 -14t-6.5 -15q-29 -26 -44 -43.5t-21 -22.5q-8 -8 -16.5 -6t-14 8.5t-6.5 15t6 15.5q9 9 20 19.5t21.5 20t18 16.5t9.5 9z" />
    <glyph glyph-name="lacute" unicode="&#x13a;" horiz-adv-x="147" 
d="M109 19q-2 -14 -12 -20.5t-21 -6.5t-20.5 6.5t-10.5 19.5q5 42 6.5 113t0.5 155t-3.5 172.5t-6 165t-7.5 132.5t-8 76q0 13 10 20t21.5 8t21 -5t9.5 -19q1 -11 2 -52.5t2.5 -104t3.5 -141t3.5 -165.5t4 -178t4.5 -176zM84 983q5 6 12.5 4.5t13.5 -7.5t7.5 -14t-6.5 -15
q-29 -26 -44 -43.5t-21 -22.5q-8 -8 -16.5 -6t-14 8.5t-6.5 15t6 15.5q9 9 20 19.5t21.5 20t18 16.5t9.5 9z" />
    <glyph glyph-name="Lcommaaccent" unicode="&#x13b;" horiz-adv-x="507" 
d="M89 836q1 -11 2 -50l2.5 -97.5t3 -133t3.5 -157t4 -169.5t4 -171q119 -2 207.5 11.5t142.5 27.5q13 1 21 -8.5t9.5 -21t-3.5 -21.5t-18 -10q-17 -3 -46 -4.5t-73.5 -5t-106.5 -10t-144 -17.5q-8 -1 -17.5 0t-17 5.5t-11.5 13.5t-2 23q6 42 7.5 111.5t0.5 150.5
t-4.5 166.5t-8 159.5t-9 128.5t-8.5 74.5q0 13 10 20t21.5 8t21 -5t9.5 -19zM226 -211q8 19 11 34.5t2 32t-6.5 35t-15.5 42.5q-7 17 -1.5 27.5t15 13.5t20 -1t13.5 -16q4 -13 10.5 -32t10.5 -42.5t2 -51t-15 -57.5q-4 -9 -13.5 -12t-18.5 -1t-14 9.5t0 18.5z" />
    <glyph glyph-name="lcommaaccent" unicode="&#x13c;" horiz-adv-x="147" 
d="M109 19q-2 -14 -12 -20.5t-21 -6.5t-20.5 6.5t-10.5 19.5q5 42 6.5 113t0.5 155t-3.5 172.5t-6 165t-7.5 132.5t-8 76q0 13 10 20t21.5 8t21 -5t9.5 -19q1 -11 2 -52.5t2.5 -104t3.5 -141t3.5 -165.5t4 -178t4.5 -176zM59 -224q8 19 11 34.5t2 32t-6.5 35t-15.5 42.5
q-7 17 -1.5 27.5t15 13.5t20 -1t13.5 -16q4 -13 10.5 -32t10.5 -42.5t2 -51t-15 -57.5q-4 -9 -13.5 -12t-18.5 -1t-14 9.5t0 18.5z" />
    <glyph glyph-name="Lcaron" unicode="&#x13d;" horiz-adv-x="507" 
d="M89 836q1 -11 2 -50l2.5 -97.5t3 -133t3.5 -157t4 -169.5t4 -171q119 -2 207.5 11.5t142.5 27.5q13 1 21 -8.5t9.5 -21t-3.5 -21.5t-18 -10q-17 -3 -46 -4.5t-73.5 -5t-106.5 -10t-144 -17.5q-8 -1 -17.5 0t-17 5.5t-11.5 13.5t-2 23q6 42 7.5 111.5t0.5 150.5
t-4.5 166.5t-8 159.5t-9 128.5t-8.5 74.5q0 13 10 20t21.5 8t21 -5t9.5 -19zM235 628q8 19 11 34.5t2 32t-6.5 35t-15.5 42.5q-7 17 -1.5 27.5t15 13.5t20 -1t13.5 -16q4 -13 10.5 -32t10.5 -42.5t2 -51t-15 -57.5q-4 -9 -13.5 -12t-18.5 -1t-14 9.5t0 18.5z" />
    <glyph glyph-name="lcaron" unicode="&#x13e;" horiz-adv-x="256" 
d="M109 19q-2 -14 -12 -20.5t-21 -6.5t-20.5 6.5t-10.5 19.5q5 42 6.5 113t0.5 155t-3.5 172.5t-6 165t-7.5 132.5t-8 76q0 13 10 20t21.5 8t21 -5t9.5 -19q1 -11 2 -52.5t2.5 -104t3.5 -141t3.5 -165.5t4 -178t4.5 -176zM156 585q8 19 11 34.5t2 32t-6.5 35t-15.5 42.5
q-7 17 -1.5 27.5t15 13.5t20 -1t13.5 -16q4 -13 10.5 -32t10.5 -42.5t2 -51t-15 -57.5q-4 -9 -13.5 -12t-18.5 -1t-14 9.5t0 18.5z" />
    <glyph glyph-name="Ldot" unicode="&#x13f;" horiz-adv-x="507" 
d="M89 836q1 -11 2 -50l2.5 -97.5t3 -133t3.5 -157t4 -169.5t4 -171q119 -2 207.5 11.5t142.5 27.5q13 1 21 -8.5t9.5 -21t-3.5 -21.5t-18 -10q-17 -3 -46 -4.5t-73.5 -5t-106.5 -10t-144 -17.5q-8 -1 -17.5 0t-17 5.5t-11.5 13.5t-2 23q6 42 7.5 111.5t0.5 150.5
t-4.5 166.5t-8 159.5t-9 128.5t-8.5 74.5q0 13 10 20t21.5 8t21 -5t9.5 -19zM252 396q-18 0 -27.5 11t-9.5 24t9 24t28 11q18 0 27 -11t9 -24t-9 -24t-27 -11z" />
    <glyph glyph-name="ldot" unicode="&#x140;" horiz-adv-x="218" 
d="M109 19q-2 -14 -12 -20.5t-21 -6.5t-20.5 6.5t-10.5 19.5q5 42 6.5 113t0.5 155t-3.5 172.5t-6 165t-7.5 132.5t-8 76q0 13 10 20t21.5 8t21 -5t9.5 -19q1 -11 2 -52.5t2.5 -104t3.5 -141t3.5 -165.5t4 -178t4.5 -176zM164 339q-18 0 -27.5 11t-9.5 24t9 24t28 11
q18 0 27 -11t9 -24t-9 -24t-27 -11z" />
    <glyph glyph-name="Lslash" unicode="&#x141;" horiz-adv-x="557" 
d="M139 836q1 -12 2 -55l2.5 -107.5t3 -146.5t3.5 -171q42 20 80 41t71 40.5t59.5 37t44.5 31.5q12 6 23 0.5t17 -15.5t5 -21t-13 -17q-14 -8 -30 -16.5t-46 -24t-79.5 -42t-129.5 -70.5q2 -60 3 -121t3 -121q119 -2 207.5 11.5t142.5 27.5q13 1 21 -8.5t9.5 -21t-3.5 -21.5
t-18 -10q-17 -3 -46 -4.5t-73.5 -5t-106.5 -10t-144 -17.5q-8 -1 -17.5 0t-17 5.5t-11.5 13.5t-2 23q5 38 7 99.5t1 135.5q-12 -7 -23.5 -13t-25.5 -14q-13 -4 -24 1.5t-16 15t-3.5 20.5t13.5 17q20 8 39 16t39 16q-2 79 -5 159.5t-7.5 149t-9 119t-7.5 69.5q0 13 10 20
t21.5 8t21 -5t9.5 -19z" />
    <glyph glyph-name="lslash" unicode="&#x142;" horiz-adv-x="349" 
d="M206 19q-2 -14 -12 -20.5t-21 -6.5t-20.5 6.5t-10.5 19.5q3 30 5 74.5t2.5 99t-0.5 115t-3 122.5q-19 -8 -40 -18.5t-47 -22.5q-13 -3 -23 3t-14.5 16t-2.5 20.5t14 16.5q36 11 63 20.5t49 18.5q-2 61 -4.5 118t-5.5 103.5t-5.5 80t-5.5 47.5q0 13 10 20t21.5 8t21 -5
t9.5 -19q0 -9 1 -38t2 -72.5t2 -100t3 -120.5q27 14 47.5 28t46.5 31q12 5 22.5 -1t16 -16t4 -21.5t-13.5 -16.5q-8 -4 -10.5 -5t-4 -2t-5.5 -2.5t-14.5 -6.5t-31.5 -14.5t-56 -26.5q2 -104 5 -215.5t6 -217.5z" />
    <glyph glyph-name="Nacute" unicode="&#x143;" horiz-adv-x="560" 
d="M445 19q-21 46 -49.5 105.5t-61.5 125.5t-67.5 134.5t-67 132.5t-60.5 120t-47 96q1 -60 3 -144t4.5 -180t4.5 -196.5t5 -193.5q-2 -14 -12 -20.5t-21 -6.5t-20.5 6.5t-10.5 19.5q5 42 7 110.5t1.5 150t-2.5 167.5t-5.5 162t-8 134.5t-9.5 85.5q-3 15 5 24t20 11.5
t23.5 -1.5t16.5 -14q4 -9 23 -48t48 -97.5t66 -133t77 -154.5t81.5 -162t79.5 -155q3 70 5 146.5t3 152.5t2 147.5t1 131t-0.5 103t-0.5 64.5q0 13 9.5 19t21 5t21.5 -8t10 -20q-1 -7 -3 -46t-4.5 -100.5t-5.5 -140t-5 -164.5t-3.5 -173.5t-0.5 -167.5q0 -21 -8.5 -33.5
t-20.5 -16t-24.5 1.5t-19.5 20zM299 977q5 6 12.5 4.5t13.5 -7.5t7.5 -14t-6.5 -15q-29 -26 -44 -43.5t-21 -22.5q-8 -8 -16.5 -6t-14 8.5t-6.5 15t6 15.5q9 9 20 19.5t21.5 20t18 16.5t9.5 9z" />
    <glyph glyph-name="nacute" unicode="&#x144;" horiz-adv-x="443" 
d="M423 13q-1 -13 -10.5 -18.5t-20.5 -4.5t-19.5 7t-7.5 16q8 78 8 152t-10.5 131.5t-33 90.5t-59.5 28q-29 -3 -58 -31.5t-53 -64.5t-40.5 -71t-22.5 -52l-11 -182q-2 -13 -11 -18t-19 -3.5t-18.5 9.5t-8.5 21q9 62 12 125.5t2.5 120.5t-4.5 104t-9 77q1 13 10.5 20t20.5 8
t20 -4t9 -15q2 -35 1.5 -73t0.5 -80q15 25 34.5 54.5t43.5 54.5t51.5 41.5t57.5 16.5q45 0 75.5 -34t48.5 -95.5t23 -146t-2 -184.5zM241 598q5 6 12.5 4.5t13.5 -7.5t7.5 -14t-6.5 -15q-29 -26 -44 -43.5t-21 -22.5q-8 -8 -16.5 -6t-14 8.5t-6.5 15t6 15.5q9 9 20 19.5
t21.5 20t18 16.5t9.5 9z" />
    <glyph glyph-name="Ncommaaccent" unicode="&#x145;" horiz-adv-x="560" 
d="M445 19q-21 46 -49.5 105.5t-61.5 125.5t-67.5 134.5t-67 132.5t-60.5 120t-47 96q1 -60 3 -144t4.5 -180t4.5 -196.5t5 -193.5q-2 -14 -12 -20.5t-21 -6.5t-20.5 6.5t-10.5 19.5q5 42 7 110.5t1.5 150t-2.5 167.5t-5.5 162t-8 134.5t-9.5 85.5q-3 15 5 24t20 11.5
t23.5 -1.5t16.5 -14q4 -9 23 -48t48 -97.5t66 -133t77 -154.5t81.5 -162t79.5 -155q3 70 5 146.5t3 152.5t2 147.5t1 131t-0.5 103t-0.5 64.5q0 13 9.5 19t21 5t21.5 -8t10 -20q-1 -7 -3 -46t-4.5 -100.5t-5.5 -140t-5 -164.5t-3.5 -173.5t-0.5 -167.5q0 -21 -8.5 -33.5
t-20.5 -16t-24.5 1.5t-19.5 20zM253 -211q8 19 11 34.5t2 32t-6.5 35t-15.5 42.5q-7 17 -1.5 27.5t15 13.5t20 -1t13.5 -16q4 -13 10.5 -32t10.5 -42.5t2 -51t-15 -57.5q-4 -9 -13.5 -12t-18.5 -1t-14 9.5t0 18.5z" />
    <glyph glyph-name="ncommaaccent" unicode="&#x146;" horiz-adv-x="443" 
d="M423 13q-1 -13 -10.5 -18.5t-20.5 -4.5t-19.5 7t-7.5 16q8 78 8 152t-10.5 131.5t-33 90.5t-59.5 28q-29 -3 -58 -31.5t-53 -64.5t-40.5 -71t-22.5 -52l-11 -182q-2 -13 -11 -18t-19 -3.5t-18.5 9.5t-8.5 21q9 62 12 125.5t2.5 120.5t-4.5 104t-9 77q1 13 10.5 20t20.5 8
t20 -4t9 -15q2 -35 1.5 -73t0.5 -80q15 25 34.5 54.5t43.5 54.5t51.5 41.5t57.5 16.5q45 0 75.5 -34t48.5 -95.5t23 -146t-2 -184.5zM194 -211q8 19 11 34.5t2 32t-6.5 35t-15.5 42.5q-7 17 -1.5 27.5t15 13.5t20 -1t13.5 -16q4 -13 10.5 -32t10.5 -42.5t2 -51t-15 -57.5
q-4 -9 -13.5 -12t-18.5 -1t-14 9.5t0 18.5z" />
    <glyph glyph-name="Ncaron" unicode="&#x147;" horiz-adv-x="560" 
d="M445 19q-21 46 -49.5 105.5t-61.5 125.5t-67.5 134.5t-67 132.5t-60.5 120t-47 96q1 -60 3 -144t4.5 -180t4.5 -196.5t5 -193.5q-2 -14 -12 -20.5t-21 -6.5t-20.5 6.5t-10.5 19.5q5 42 7 110.5t1.5 150t-2.5 167.5t-5.5 162t-8 134.5t-9.5 85.5q-3 15 5 24t20 11.5
t23.5 -1.5t16.5 -14q4 -9 23 -48t48 -97.5t66 -133t77 -154.5t81.5 -162t79.5 -155q3 70 5 146.5t3 152.5t2 147.5t1 131t-0.5 103t-0.5 64.5q0 13 9.5 19t21 5t21.5 -8t10 -20q-1 -7 -3 -46t-4.5 -100.5t-5.5 -140t-5 -164.5t-3.5 -173.5t-0.5 -167.5q0 -21 -8.5 -33.5
t-20.5 -16t-24.5 1.5t-19.5 20zM251 894q-1 3 -5 11t-10 19t-12.5 23t-12.5 23q-5 9 -1 16.5t12 11.5t17 3t15 -10q4 -7 8.5 -16.5t16.5 -35.5q5 12 7.5 17l4.5 9t4 8.5t6 14.5t13.5 12.5t18 -0.5t12 -12t-3.5 -22q-6 -13 -10.5 -22t-8.5 -16.5t-7.5 -15t-6.5 -16.5
t-11.5 -13t-17.5 -4t-17 3.5t-11 11.5z" />
    <glyph glyph-name="ncaron" unicode="&#x148;" horiz-adv-x="443" 
d="M423 13q-1 -13 -10.5 -18.5t-20.5 -4.5t-19.5 7t-7.5 16q8 78 8 152t-10.5 131.5t-33 90.5t-59.5 28q-29 -3 -58 -31.5t-53 -64.5t-40.5 -71t-22.5 -52l-11 -182q-2 -13 -11 -18t-19 -3.5t-18.5 9.5t-8.5 21q9 62 12 125.5t2.5 120.5t-4.5 104t-9 77q1 13 10.5 20t20.5 8
t20 -4t9 -15q2 -35 1.5 -73t0.5 -80q15 25 34.5 54.5t43.5 54.5t51.5 41.5t57.5 16.5q45 0 75.5 -34t48.5 -95.5t23 -146t-2 -184.5zM249 526q-1 3 -5 11t-10 19t-12.5 23t-12.5 23q-5 9 -1 16.5t12 11.5t17 3t15 -10q4 -7 8.5 -16.5t16.5 -35.5q5 12 7.5 17l4.5 9t4 8.5
t6 14.5t13.5 12.5t18 -0.5t12 -12t-3.5 -22q-6 -13 -10.5 -22t-8.5 -16.5t-7.5 -15t-6.5 -16.5t-11.5 -13t-17.5 -4t-17 3.5t-11 11.5z" />
    <glyph glyph-name="napostrophe" unicode="&#x149;" horiz-adv-x="443" 
d="M423 13q-1 -13 -10.5 -18.5t-20.5 -4.5t-19.5 7t-7.5 16q8 78 8 152t-10.5 131.5t-33 90.5t-59.5 28q-29 -3 -58 -31.5t-53 -64.5t-40.5 -71t-22.5 -52l-11 -182q-2 -13 -11 -18t-19 -3.5t-18.5 9.5t-8.5 21q9 62 12 125.5t2.5 120.5t-4.5 104t-9 77q1 13 10.5 20t20.5 8
t20 -4t9 -15q2 -35 1.5 -73t0.5 -80q15 25 34.5 54.5t43.5 54.5t51.5 41.5t57.5 16.5q45 0 75.5 -34t48.5 -95.5t23 -146t-2 -184.5zM49 553q8 19 11 34.5t2 32t-6.5 35t-15.5 42.5q-7 17 -1.5 27.5t15 13.5t20 -1t13.5 -16q4 -13 10.5 -32t10.5 -42.5t2 -51t-15 -57.5
q-4 -9 -13.5 -12t-18.5 -1t-14 9.5t0 18.5z" />
    <glyph glyph-name="Omacron" unicode="&#x14c;" horiz-adv-x="490" 
d="M204 -3q-62 5 -101 43t-59.5 97.5t-23.5 135t9 155.5q12 84 39 165.5t64 144.5t82 99t94 30q51 -7 85.5 -52.5t53 -114.5t22 -153.5t-7.5 -169.5q-10 -77 -32.5 -147.5t-55.5 -123.5t-75.5 -83t-93.5 -26zM291 808q-23 1 -45.5 -16.5t-44 -47.5t-40.5 -70t-34.5 -84.5
t-27 -90.5t-17.5 -88q-9 -61 -8.5 -122.5t13.5 -112.5t40 -85.5t71 -41.5q37 -6 71 21t62 74.5t48.5 108.5t29.5 124q10 72 8 147.5t-16.5 138t-42 103t-67.5 42.5zM112 892q-14 2 -20.5 12t-6.5 21t6.5 20t19.5 9q63 -8 112 -10t89 -1t72.5 5t61.5 9q13 0 20 -10t8 -21.5
t-5 -21t-19 -9.5h-17.5h-14.5t-26 0.5t-50.5 0t-89 -1t-140.5 -2.5z" />
    <glyph glyph-name="omacron" unicode="&#x14d;" horiz-adv-x="386" 
d="M162 -15q-48 3 -78.5 25t-46 56.5t-18 78t6.5 88.5q9 48 30 94t50 81.5t64 56t73 17.5q39 -4 66 -30t41.5 -65t17.5 -86.5t-6 -95.5q-8 -44 -25.5 -84.5t-43 -71.5t-59 -48.5t-72.5 -15.5zM225 427q-27 -2 -51 -20t-43.5 -46t-33.5 -62.5t-21 -70.5q-7 -35 -6.5 -68
t10.5 -59.5t29.5 -44.5t51.5 -21q28 -3 52 10t43 37.5t32 57t20 67.5q8 40 7.5 80.5t-10.5 72t-30 50.5t-50 17zM26 494q-14 2 -20.5 12t-6.5 21t6.5 20t19.5 9q63 -8 112 -10t89 -1t72.5 5t61.5 9q13 0 20 -10t8 -21.5t-5 -21t-19 -9.5h-17.5h-14.5t-26 0.5t-50.5 0t-89 -1
t-140.5 -2.5z" />
    <glyph glyph-name="Obreve" unicode="&#x14e;" horiz-adv-x="490" 
d="M204 -3q-62 5 -101 43t-59.5 97.5t-23.5 135t9 155.5q12 84 39 165.5t64 144.5t82 99t94 30q51 -7 85.5 -52.5t53 -114.5t22 -153.5t-7.5 -169.5q-10 -77 -32.5 -147.5t-55.5 -123.5t-75.5 -83t-93.5 -26zM291 808q-23 1 -45.5 -16.5t-44 -47.5t-40.5 -70t-34.5 -84.5
t-27 -90.5t-17.5 -88q-9 -61 -8.5 -122.5t13.5 -112.5t40 -85.5t71 -41.5q37 -6 71 21t62 74.5t48.5 108.5t29.5 124q10 72 8 147.5t-16.5 138t-42 103t-67.5 42.5zM368 983q2 8 9.5 10.5t15 0.5t13 -8.5t3.5 -15.5q-8 -39 -37.5 -59t-63 -21t-62.5 18.5t-37 59.5
q-2 9 4 15.5t14 8.5t16 -1t10 -12q6 -25 22 -36.5t35 -10.5t35.5 14t22.5 37z" />
    <glyph glyph-name="obreve" unicode="&#x14f;" horiz-adv-x="386" 
d="M162 -15q-48 3 -78.5 25t-46 56.5t-18 78t6.5 88.5q9 48 30 94t50 81.5t64 56t73 17.5q39 -4 66 -30t41.5 -65t17.5 -86.5t-6 -95.5q-8 -44 -25.5 -84.5t-43 -71.5t-59 -48.5t-72.5 -15.5zM225 427q-27 -2 -51 -20t-43.5 -46t-33.5 -62.5t-21 -70.5q-7 -35 -6.5 -68
t10.5 -59.5t29.5 -44.5t51.5 -21q28 -3 52 10t43 37.5t32 57t20 67.5q8 40 7.5 80.5t-10.5 72t-30 50.5t-50 17zM282 601q2 8 9.5 10.5t15 0.5t13 -8.5t3.5 -15.5q-8 -39 -37.5 -59t-63 -21t-62.5 18.5t-37 59.5q-2 9 4 15.5t14 8.5t16 -1t10 -12q6 -25 22 -36.5t35 -10.5
t35.5 14t22.5 37z" />
    <glyph glyph-name="Ohungarumlaut" unicode="&#x150;" horiz-adv-x="490" 
d="M204 -3q-62 5 -101 43t-59.5 97.5t-23.5 135t9 155.5q12 84 39 165.5t64 144.5t82 99t94 30q51 -7 85.5 -52.5t53 -114.5t22 -153.5t-7.5 -169.5q-10 -77 -32.5 -147.5t-55.5 -123.5t-75.5 -83t-93.5 -26zM291 808q-23 1 -45.5 -16.5t-44 -47.5t-40.5 -70t-34.5 -84.5
t-27 -90.5t-17.5 -88q-9 -61 -8.5 -122.5t13.5 -112.5t40 -85.5t71 -41.5q37 -6 71 21t62 74.5t48.5 108.5t29.5 124q10 72 8 147.5t-16.5 138t-42 103t-67.5 42.5zM277 989q5 6 12.5 4.5t13.5 -7.5t7.5 -14t-6.5 -15q-29 -26 -44 -43.5t-21 -22.5q-8 -8 -16.5 -6t-14 8.5
t-6.5 15t6 15.5q9 9 20 19.5t21.5 20t18 16.5t9.5 9zM372 985q5 6 12.5 4.5t13.5 -7.5t7.5 -14t-6.5 -15q-29 -26 -44 -43.5t-21 -22.5q-8 -8 -16.5 -6t-14 8.5t-6.5 15t6 15.5q9 9 20 19.5t21.5 20t18 16.5t9.5 9z" />
    <glyph glyph-name="ohungarumlaut" unicode="&#x151;" horiz-adv-x="386" 
d="M162 -15q-48 3 -78.5 25t-46 56.5t-18 78t6.5 88.5q9 48 30 94t50 81.5t64 56t73 17.5q39 -4 66 -30t41.5 -65t17.5 -86.5t-6 -95.5q-8 -44 -25.5 -84.5t-43 -71.5t-59 -48.5t-72.5 -15.5zM225 427q-27 -2 -51 -20t-43.5 -46t-33.5 -62.5t-21 -70.5q-7 -35 -6.5 -68
t10.5 -59.5t29.5 -44.5t51.5 -21q28 -3 52 10t43 37.5t32 57t20 67.5q8 40 7.5 80.5t-10.5 72t-30 50.5t-50 17zM239 614q5 6 12.5 4.5t13.5 -7.5t7.5 -14t-6.5 -15q-29 -26 -44 -43.5t-21 -22.5q-8 -8 -16.5 -6t-14 8.5t-6.5 15t6 15.5q9 9 20 19.5t21.5 20t18 16.5t9.5 9z
M334 610q5 6 12.5 4.5t13.5 -7.5t7.5 -14t-6.5 -15q-29 -26 -44 -43.5t-21 -22.5q-8 -8 -16.5 -6t-14 8.5t-6.5 15t6 15.5q9 9 20 19.5t21.5 20t18 16.5t9.5 9z" />
    <glyph glyph-name="OE" unicode="&#x152;" horiz-adv-x="838" 
d="M735 497q13 -1 20.5 -10t8.5 -20t-4.5 -20.5t-18.5 -11.5q-96 3 -171.5 -5t-144.5 -20q2 -88 4.5 -176t4.5 -176q17 1 38 3.5t59 6.5t100 10.5t161 17.5q13 -1 20.5 -10t8.5 -20t-4.5 -20.5t-18.5 -11.5q-62 2 -118.5 -1t-105.5 -9t-89.5 -14t-70.5 -16q-9 -3 -18.5 9.5
t-16.5 18.5q-15 -13 -35.5 -21t-42.5 -11.5t-44.5 -4t-41.5 0.5q-62 5 -101 43t-59.5 97.5t-23.5 135t9 155.5q12 84 39 165.5t64 144.5t82 99t94 30q21 -3 37 -12q5 9 15 13t20 3t17 -7t7 -17v-13q17 2 37.5 4t58.5 6.5t101 11t165 17.5q13 -1 20.5 -10t8.5 -20t-4.5 -20.5
t-18.5 -11.5q-116 4 -208.5 -8.5t-157.5 -26.5q1 -24 1.5 -61t1.5 -78.5t2 -84t2 -78.5q21 1 44.5 4t58 7t84.5 9.5t124 13.5zM302 797q-23 1 -45.5 -16.5t-44 -47.5t-40.5 -70t-34.5 -84.5t-27 -90.5t-17.5 -88q-9 -61 -8.5 -123t13.5 -113t40 -85.5t71 -40.5q54 -8 98 5
t69 43q2 23 2 50v56v19q0 71 -1.5 150t-4 155t-6 142t-6.5 111q-27 27 -58 28z" />
    <glyph glyph-name="oe" unicode="&#x153;" horiz-adv-x="661" 
d="M565 28q-25 -20 -59.5 -33.5t-70.5 -15t-69.5 11.5t-55.5 46q-31 -22 -70 -34t-71 -10q-48 3 -78.5 25t-46 56.5t-18 78t6.5 88.5q9 48 30 94t50 81.5t64 56t73 17.5q31 -3 53.5 -20t38.5 -43q24 29 56 45.5t72 18.5q42 1 68 -20t41 -52t21.5 -66t9.5 -63q1 -14 -10 -24
t-28 -12q-88 -9 -147 -11t-97 -1q-9 -51 -2 -91t21 -72q15 -31 39.5 -42t52.5 -7.5t56 18t50 34.5q37 32 55 75q5 10 15.5 10t19.5 -6.5t13.5 -16.5t-2.5 -20q-8 -12 -18 -25.5t-21 -26.5t-21.5 -25t-20.5 -19zM168 43q13 -2 29 0t32.5 7t32 13t27.5 18q-10 34 -14 71.5
t-1.5 76t11 76t24.5 70.5q-11 29 -29.5 45.5t-47.5 14.5q-27 -2 -51 -20t-43.5 -46t-33.5 -62.5t-21 -70.5q-7 -35 -6.5 -68t10.5 -59.5t29.5 -44.5t51.5 -21zM467 438q-48 -2 -81.5 -36.5t-48.5 -105.5h27.5h43t49.5 1t47.5 3t35 6t14.5 10q0 12 -4.5 33t-15 41t-27 34.5
t-40.5 13.5z" />
    <glyph glyph-name="Racute" unicode="&#x154;" 
d="M109 19q-2 -14 -12 -20.5t-21 -6.5t-20.5 6.5t-10.5 19.5q5 42 6.5 112.5t0.5 153.5t-3.5 170t-6 162.5t-7.5 131t-8 75.5q0 13 10 20t21.5 8t21 -5t9.5 -19q1 -9 1 -41t2 -74q15 19 39.5 44t56 48.5t66.5 42t69.5 24.5t66 -3.5t56.5 -41.5q17 -22 23.5 -53.5t3.5 -66.5
q-6 -61 -43 -115.5t-89.5 -99t-110.5 -78t-106 -52.5q9 -21 35.5 -49.5t61.5 -59t74.5 -61.5t76 -57.5t65.5 -47t42 -30.5q9 -6 7.5 -19.5t-10 -25t-23 -15t-31.5 9.5q-10 7 -33.5 28t-55.5 49t-67 60t-68 62.5t-59 56t-38 39.5q2 -75 4 -142.5t4 -139.5zM406 780
q-17 26 -43 33t-56 -2q-28 -8 -57.5 -27.5t-57.5 -45t-53.5 -56t-44.5 -61.5q2 -46 2.5 -99t2.5 -110q46 14 100 42.5t101.5 67.5t80.5 87.5t38 103.5q4 42 -13 67zM270 977q5 6 12.5 4.5t13.5 -7.5t7.5 -14t-6.5 -15q-29 -26 -44 -43.5t-21 -22.5q-8 -8 -16.5 -6t-14 8.5
t-6.5 15t6 15.5q9 9 20 19.5t21.5 20t18 16.5t9.5 9z" />
    <glyph glyph-name="racute" unicode="&#x155;" horiz-adv-x="460" 
d="M428 315q2 -12 -4.5 -19t-16 -8.5t-18 2.5t-11.5 16q-9 44 -22 69.5t-28 37.5t-31 14t-30 -1q-19 -4 -36 -20.5t-31.5 -39.5t-26.5 -50t-20.5 -52.5t-14 -46.5t-7.5 -33l18 -166q0 -14 -7.5 -22.5t-18 -11t-20 2t-12.5 18.5q-2 63 -9.5 131t-18.5 129.5t-23 112t-22 79.5
q-2 13 6.5 21.5t19.5 10.5t21 -2t11 -14q4 -18 8 -40t8 -46l8 -48t8 -45q10 28 25.5 59t35.5 58.5t45 47.5t55 25q26 4 51.5 -2.5t47 -26.5t37.5 -54.5t23 -85.5zM294 613q5 6 12.5 4.5t13.5 -7.5t7.5 -14t-6.5 -15q-29 -26 -44 -43.5t-21 -22.5q-8 -8 -16.5 -6t-14 8.5
t-6.5 15t6 15.5q9 9 20 19.5t21.5 20t18 16.5t9.5 9z" />
    <glyph glyph-name="Rcommaaccent" unicode="&#x156;" 
d="M109 19q-2 -14 -12 -20.5t-21 -6.5t-20.5 6.5t-10.5 19.5q5 42 6.5 112.5t0.5 153.5t-3.5 170t-6 162.5t-7.5 131t-8 75.5q0 13 10 20t21.5 8t21 -5t9.5 -19q1 -9 1 -41t2 -74q15 19 39.5 44t56 48.5t66.5 42t69.5 24.5t66 -3.5t56.5 -41.5q17 -22 23.5 -53.5t3.5 -66.5
q-6 -61 -43 -115.5t-89.5 -99t-110.5 -78t-106 -52.5q9 -21 35.5 -49.5t61.5 -59t74.5 -61.5t76 -57.5t65.5 -47t42 -30.5q9 -6 7.5 -19.5t-10 -25t-23 -15t-31.5 9.5q-10 7 -33.5 28t-55.5 49t-67 60t-68 62.5t-59 56t-38 39.5q2 -75 4 -142.5t4 -139.5zM406 780
q-17 26 -43 33t-56 -2q-28 -8 -57.5 -27.5t-57.5 -45t-53.5 -56t-44.5 -61.5q2 -46 2.5 -99t2.5 -110q46 14 100 42.5t101.5 67.5t80.5 87.5t38 103.5q4 42 -13 67zM223 -211q8 19 11 34.5t2 32t-6.5 35t-15.5 42.5q-7 17 -1.5 27.5t15 13.5t20 -1t13.5 -16q4 -13 10.5 -32
t10.5 -42.5t2 -51t-15 -57.5q-4 -9 -13.5 -12t-18.5 -1t-14 9.5t0 18.5z" />
    <glyph glyph-name="rcommaaccent" unicode="&#x157;" horiz-adv-x="460" 
d="M428 315q2 -12 -4.5 -19t-16 -8.5t-18 2.5t-11.5 16q-9 44 -22 69.5t-28 37.5t-31 14t-30 -1q-19 -4 -36 -20.5t-31.5 -39.5t-26.5 -50t-20.5 -52.5t-14 -46.5t-7.5 -33l18 -166q0 -14 -7.5 -22.5t-18 -11t-20 2t-12.5 18.5q-2 63 -9.5 131t-18.5 129.5t-23 112t-22 79.5
q-2 13 6.5 21.5t19.5 10.5t21 -2t11 -14q4 -18 8 -40t8 -46l8 -48t8 -45q10 28 25.5 59t35.5 58.5t45 47.5t55 25q26 4 51.5 -2.5t47 -26.5t37.5 -54.5t23 -85.5zM203 -211q8 19 11 34.5t2 32t-6.5 35t-15.5 42.5q-7 17 -1.5 27.5t15 13.5t20 -1t13.5 -16q4 -13 10.5 -32
t10.5 -42.5t2 -51t-15 -57.5q-4 -9 -13.5 -12t-18.5 -1t-14 9.5t0 18.5z" />
    <glyph glyph-name="Rcaron" unicode="&#x158;" 
d="M109 19q-2 -14 -12 -20.5t-21 -6.5t-20.5 6.5t-10.5 19.5q5 42 6.5 112.5t0.5 153.5t-3.5 170t-6 162.5t-7.5 131t-8 75.5q0 13 10 20t21.5 8t21 -5t9.5 -19q1 -9 1 -41t2 -74q15 19 39.5 44t56 48.5t66.5 42t69.5 24.5t66 -3.5t56.5 -41.5q17 -22 23.5 -53.5t3.5 -66.5
q-6 -61 -43 -115.5t-89.5 -99t-110.5 -78t-106 -52.5q9 -21 35.5 -49.5t61.5 -59t74.5 -61.5t76 -57.5t65.5 -47t42 -30.5q9 -6 7.5 -19.5t-10 -25t-23 -15t-31.5 9.5q-10 7 -33.5 28t-55.5 49t-67 60t-68 62.5t-59 56t-38 39.5q2 -75 4 -142.5t4 -139.5zM406 780
q-17 26 -43 33t-56 -2q-28 -8 -57.5 -27.5t-57.5 -45t-53.5 -56t-44.5 -61.5q2 -46 2.5 -99t2.5 -110q46 14 100 42.5t101.5 67.5t80.5 87.5t38 103.5q4 42 -13 67zM221 894q-1 3 -5 11t-10 19t-12.5 23t-12.5 23q-5 9 -1 16.5t12 11.5t17 3t15 -10q4 -7 8.5 -16.5
t16.5 -35.5q5 12 7.5 17l4.5 9t4 8.5t6 14.5t13.5 12.5t18 -0.5t12 -12t-3.5 -22q-6 -13 -10.5 -22t-8.5 -16.5t-7.5 -15t-6.5 -16.5t-11.5 -13t-17.5 -4t-17 3.5t-11 11.5z" />
    <glyph glyph-name="rcaron" unicode="&#x159;" horiz-adv-x="460" 
d="M428 315q2 -12 -4.5 -19t-16 -8.5t-18 2.5t-11.5 16q-9 44 -22 69.5t-28 37.5t-31 14t-30 -1q-19 -4 -36 -20.5t-31.5 -39.5t-26.5 -50t-20.5 -52.5t-14 -46.5t-7.5 -33l18 -166q0 -14 -7.5 -22.5t-18 -11t-20 2t-12.5 18.5q-2 63 -9.5 131t-18.5 129.5t-23 112t-22 79.5
q-2 13 6.5 21.5t19.5 10.5t21 -2t11 -14q4 -18 8 -40t8 -46l8 -48t8 -45q10 28 25.5 59t35.5 58.5t45 47.5t55 25q26 4 51.5 -2.5t47 -26.5t37.5 -54.5t23 -85.5zM264 530q-1 3 -5 11t-10 19t-12.5 23t-12.5 23q-5 9 -1 16.5t12 11.5t17 3t15 -10q4 -7 8.5 -16.5t16.5 -35.5
q5 12 7.5 17l4.5 9t4 8.5t6 14.5t13.5 12.5t18 -0.5t12 -12t-3.5 -22q-6 -13 -10.5 -22t-8.5 -16.5t-7.5 -15t-6.5 -16.5t-11.5 -13t-17.5 -4t-17 3.5t-11 11.5z" />
    <glyph glyph-name="Sacute" unicode="&#x15a;" horiz-adv-x="508" 
d="M29 296q-2 12 3 20t12.5 11.5t17 2.5t16.5 -6q8 -6 10 -19q6 -60 26.5 -108t52 -81t72 -51t84.5 -19q22 0 39.5 8.5t30.5 23.5t20.5 34.5t10.5 40.5q7 57 -16.5 99.5t-62 78t-85 68.5t-87 70t-67.5 83t-26 108q1 36 12.5 71t34 62t56 44t77.5 19q54 2 91 -21.5t59 -63
t29.5 -89t1.5 -100.5q-1 -9 -9.5 -14t-17.5 -5t-16.5 5t-7.5 14q2 49 -4.5 92t-23 73.5t-44.5 46.5t-69 10q-28 -4 -49.5 -17.5t-35.5 -33t-21.5 -43.5t-7.5 -49q-1 -59 27 -102t70.5 -78.5t90.5 -68t86.5 -71t59.5 -87.5t9 -116q-6 -30 -20 -56.5t-35.5 -46t-49 -30.5
t-60.5 -11q-48 1 -93.5 20t-83.5 56.5t-66 94t-41 131.5zM273 977q5 6 12.5 4.5t13.5 -7.5t7.5 -14t-6.5 -15q-29 -26 -44 -43.5t-21 -22.5q-8 -8 -16.5 -6t-14 8.5t-6.5 15t6 15.5q9 9 20 19.5t21.5 20t18 16.5t9.5 9z" />
    <glyph glyph-name="sacute" unicode="&#x15b;" horiz-adv-x="397" 
d="M21 160q-4 16 3.5 24.5t18.5 10t21 -4.5t12 -19q3 -28 18 -53.5t39 -45t56 -31t69 -11.5q23 0 39.5 8.5t24 22t4.5 29.5t-20 31q-24 21 -67 45.5t-85 55.5t-71.5 69.5t-26.5 87.5q1 22 12 44t30.5 38.5t47.5 27t63 10.5q42 0 71.5 -17t48 -41.5t27.5 -53t9 -52.5
q0 -12 -8.5 -18t-18.5 -7t-18.5 4.5t-8.5 17.5q-1 19 -5.5 40.5t-16.5 39.5t-32.5 30t-51.5 12q-43 0 -70 -24t-29 -67q-1 -24 11 -44.5t33 -38.5t47.5 -34.5t53.5 -32t52 -31t43 -32.5q27 -25 31 -53.5t-10 -53t-42.5 -40.5t-65.5 -16q-41 0 -79.5 10t-70 31t-55 53.5
t-33.5 78.5zM230 641q5 6 12.5 4.5t13.5 -7.5t7.5 -14t-6.5 -15q-29 -26 -44 -43.5t-21 -22.5q-8 -8 -16.5 -6t-14 8.5t-6.5 15t6 15.5q9 9 20 19.5t21.5 20t18 16.5t9.5 9z" />
    <glyph glyph-name="Scircumflex" unicode="&#x15c;" horiz-adv-x="508" 
d="M29 296q-2 12 3 20t12.5 11.5t17 2.5t16.5 -6q8 -6 10 -19q6 -60 26.5 -108t52 -81t72 -51t84.5 -19q22 0 39.5 8.5t30.5 23.5t20.5 34.5t10.5 40.5q7 57 -16.5 99.5t-62 78t-85 68.5t-87 70t-67.5 83t-26 108q1 36 12.5 71t34 62t56 44t77.5 19q54 2 91 -21.5t59 -63
t29.5 -89t1.5 -100.5q-1 -9 -9.5 -14t-17.5 -5t-16.5 5t-7.5 14q2 49 -4.5 92t-23 73.5t-44.5 46.5t-69 10q-28 -4 -49.5 -17.5t-35.5 -33t-21.5 -43.5t-7.5 -49q-1 -59 27 -102t70.5 -78.5t90.5 -68t86.5 -71t59.5 -87.5t9 -116q-6 -30 -20 -56.5t-35.5 -46t-49 -30.5
t-60.5 -11q-48 1 -93.5 20t-83.5 56.5t-66 94t-41 131.5zM283 994q1 -3 5 -11t10 -19t12.5 -23t12.5 -23q4 -9 0.5 -16.5t-11.5 -11.5t-17 -3t-15 10q-4 7 -8.5 16.5t-16.5 35.5q-5 -12 -7.5 -17l-4.5 -9t-4 -8.5t-6 -14.5t-13.5 -12.5t-18 0.5t-12.5 12t4 22q12 25 19 38.5
t14 31.5q3 9 11.5 13t17.5 4t17 -4t11 -11z" />
    <glyph glyph-name="scircumflex" unicode="&#x15d;" horiz-adv-x="397" 
d="M21 160q-4 16 3.5 24.5t18.5 10t21 -4.5t12 -19q3 -28 18 -53.5t39 -45t56 -31t69 -11.5q23 0 39.5 8.5t24 22t4.5 29.5t-20 31q-24 21 -67 45.5t-85 55.5t-71.5 69.5t-26.5 87.5q1 22 12 44t30.5 38.5t47.5 27t63 10.5q42 0 71.5 -17t48 -41.5t27.5 -53t9 -52.5
q0 -12 -8.5 -18t-18.5 -7t-18.5 4.5t-8.5 17.5q-1 19 -5.5 40.5t-16.5 39.5t-32.5 30t-51.5 12q-43 0 -70 -24t-29 -67q-1 -24 11 -44.5t33 -38.5t47.5 -34.5t53.5 -32t52 -31t43 -32.5q27 -25 31 -53.5t-10 -53t-42.5 -40.5t-65.5 -16q-41 0 -79.5 10t-70 31t-55 53.5
t-33.5 78.5zM234 627q1 -3 5 -11t10 -19t12.5 -23t12.5 -23q4 -9 0.5 -16.5t-11.5 -11.5t-17 -3t-15 10q-4 7 -8.5 16.5t-16.5 35.5q-5 -12 -7.5 -17l-4.5 -9t-4 -8.5t-6 -14.5t-13.5 -12.5t-18 0.5t-12.5 12t4 22q12 25 19 38.5t14 31.5q3 9 11.5 13t17.5 4t17 -4t11 -11z
" />
    <glyph glyph-name="Scedilla" unicode="&#x15e;" horiz-adv-x="508" 
d="M29 296q-2 12 3 20t12.5 11.5t17 2.5t16.5 -6q8 -6 10 -19q6 -60 26.5 -108t52 -81t72 -51t84.5 -19q22 0 39.5 8.5t30.5 23.5t20.5 34.5t10.5 40.5q7 57 -16.5 99.5t-62 78t-85 68.5t-87 70t-67.5 83t-26 108q1 36 12.5 71t34 62t56 44t77.5 19q54 2 91 -21.5t59 -63
t29.5 -89t1.5 -100.5q-1 -9 -9.5 -14t-17.5 -5t-16.5 5t-7.5 14q2 49 -4.5 92t-23 73.5t-44.5 46.5t-69 10q-28 -4 -49.5 -17.5t-35.5 -33t-21.5 -43.5t-7.5 -49q-1 -59 27 -102t70.5 -78.5t90.5 -68t86.5 -71t59.5 -87.5t9 -116q-6 -30 -20 -56.5t-35.5 -46t-49 -30.5
t-60.5 -11q-48 1 -93.5 20t-83.5 56.5t-66 94t-41 131.5zM324 -25q49 -11 69 -38.5t16 -57.5t-29.5 -55t-67.5 -30q-10 -1 -16 6.5t-7.5 17t1.5 17t12 7.5q24 -1 40 12t19 29.5t-10 30.5t-49 16q-5 0 -10.5 2.5t-9.5 10t-6 21t1 36.5q0 13 7.5 20t16.5 8t16 -5t7 -19v-29z
" />
    <glyph glyph-name="scedilla" unicode="&#x15f;" horiz-adv-x="397" 
d="M21 160q-4 16 3.5 24.5t18.5 10t21 -4.5t12 -19q3 -28 18 -53.5t39 -45t56 -31t69 -11.5q23 0 39.5 8.5t24 22t4.5 29.5t-20 31q-24 21 -67 45.5t-85 55.5t-71.5 69.5t-26.5 87.5q1 22 12 44t30.5 38.5t47.5 27t63 10.5q42 0 71.5 -17t48 -41.5t27.5 -53t9 -52.5
q0 -12 -8.5 -18t-18.5 -7t-18.5 4.5t-8.5 17.5q-1 19 -5.5 40.5t-16.5 39.5t-32.5 30t-51.5 12q-43 0 -70 -24t-29 -67q-1 -24 11 -44.5t33 -38.5t47.5 -34.5t53.5 -32t52 -31t43 -32.5q27 -25 31 -53.5t-10 -53t-42.5 -40.5t-65.5 -16q-41 0 -79.5 10t-70 31t-55 53.5
t-33.5 78.5zM252 -37q49 -11 69 -38.5t16 -57.5t-29.5 -55t-67.5 -30q-10 -1 -16 6.5t-7.5 17t1.5 17t12 7.5q24 -1 40 12t19 29.5t-10 30.5t-49 16q-5 0 -10.5 2.5t-9.5 10t-6 21t1 36.5q0 13 7.5 20t16.5 8t16 -5t7 -19v-29z" />
    <glyph glyph-name="Scaron" unicode="&#x160;" horiz-adv-x="508" 
d="M29 296q-2 12 3 20t12.5 11.5t17 2.5t16.5 -6q8 -6 10 -19q6 -60 26.5 -108t52 -81t72 -51t84.5 -19q22 0 39.5 8.5t30.5 23.5t20.5 34.5t10.5 40.5q7 57 -16.5 99.5t-62 78t-85 68.5t-87 70t-67.5 83t-26 108q1 36 12.5 71t34 62t56 44t77.5 19q54 2 91 -21.5t59 -63
t29.5 -89t1.5 -100.5q-1 -9 -9.5 -14t-17.5 -5t-16.5 5t-7.5 14q2 49 -4.5 92t-23 73.5t-44.5 46.5t-69 10q-28 -4 -49.5 -17.5t-35.5 -33t-21.5 -43.5t-7.5 -49q-1 -59 27 -102t70.5 -78.5t90.5 -68t86.5 -71t59.5 -87.5t9 -116q-6 -30 -20 -56.5t-35.5 -46t-49 -30.5
t-60.5 -11q-48 1 -93.5 20t-83.5 56.5t-66 94t-41 131.5zM225 894q-1 3 -5 11t-10 19t-12.5 23t-12.5 23q-5 9 -1 16.5t12 11.5t17 3t15 -10q4 -7 8.5 -16.5t16.5 -35.5q5 12 7.5 17l4.5 9t4 8.5t6 14.5t13.5 12.5t18 -0.5t12 -12t-3.5 -22q-6 -13 -10.5 -22t-8.5 -16.5
t-7.5 -15t-6.5 -16.5t-11.5 -13t-17.5 -4t-17 3.5t-11 11.5z" />
    <glyph glyph-name="scaron" unicode="&#x161;" horiz-adv-x="397" 
d="M21 160q-4 16 3.5 24.5t18.5 10t21 -4.5t12 -19q3 -28 18 -53.5t39 -45t56 -31t69 -11.5q23 0 39.5 8.5t24 22t4.5 29.5t-20 31q-24 21 -67 45.5t-85 55.5t-71.5 69.5t-26.5 87.5q1 22 12 44t30.5 38.5t47.5 27t63 10.5q42 0 71.5 -17t48 -41.5t27.5 -53t9 -52.5
q0 -12 -8.5 -18t-18.5 -7t-18.5 4.5t-8.5 17.5q-1 19 -5.5 40.5t-16.5 39.5t-32.5 30t-51.5 12q-43 0 -70 -24t-29 -67q-1 -24 11 -44.5t33 -38.5t47.5 -34.5t53.5 -32t52 -31t43 -32.5q27 -25 31 -53.5t-10 -53t-42.5 -40.5t-65.5 -16q-41 0 -79.5 10t-70 31t-55 53.5
t-33.5 78.5zM184 555q-1 3 -5 11t-10 19t-12.5 23t-12.5 23q-5 9 -1 16.5t12 11.5t17 3t15 -10q4 -7 8.5 -16.5t16.5 -35.5q5 12 7.5 17l4.5 9t4 8.5t6 14.5t13.5 12.5t18 -0.5t12 -12t-3.5 -22q-6 -13 -10.5 -22t-8.5 -16.5t-7.5 -15t-6.5 -16.5t-11.5 -13t-17.5 -4
t-17 3.5t-11 11.5z" />
    <glyph glyph-name="Tcommaaccent" unicode="&#x162;" horiz-adv-x="738" 
d="M637 862q13 0 21.5 -8.5t10.5 -19.5t-2.5 -21.5t-17.5 -13.5q-31 1 -72.5 -3.5t-84 -12t-81 -15.5t-62.5 -14q1 -34 2 -91.5t3 -127.5t3.5 -146t3.5 -146t3.5 -128t2.5 -92q-2 -14 -12 -20.5t-21 -6.5t-20.5 6.5t-10.5 19.5q2 20 3 69.5t1 116t-1 143t-2 150.5t-2.5 138
t-2.5 105q-20 -2 -55.5 -8t-73.5 -14t-73 -18t-55 -20q-13 -2 -21.5 6.5t-11.5 19.5t1.5 21.5t17.5 12.5q34 8 82 17t103 19t114 20.5t115.5 21t107 21t87.5 19.5zM318 -216q8 19 11 34.5t2 32t-6.5 35t-15.5 42.5q-7 17 -1.5 27.5t15 13.5t20 -1t13.5 -16q4 -13 10.5 -32
t10.5 -42.5t2 -51t-15 -57.5q-4 -9 -13.5 -12t-18.5 -1t-14 9.5t0 18.5z" />
    <glyph glyph-name="tcommaaccent" unicode="&#x163;" horiz-adv-x="404" 
d="M410 533q13 0 21.5 -8.5t10.5 -19.5t-2.5 -21.5t-17.5 -13.5q-56 -4 -111 -11.5t-106 -17.5q2 -102 4.5 -210.5t5.5 -211.5q-2 -14 -12 -20.5t-21 -6.5t-20.5 6.5t-10.5 19.5q3 30 5 75t2.5 99.5t-0.5 115.5t-3 123q-49 -11 -88.5 -22.5t-65.5 -20.5q-13 -2 -21.5 6.5
t-11.5 19.5t1.5 21.5t17.5 12.5q11 3 23 5.5t30.5 6t45.5 8.5t68 13q-2 61 -4.5 118.5t-5.5 104.5t-5.5 80.5t-5.5 47.5q0 13 10 20t21.5 8t21 -5t9.5 -19q0 -9 1 -39t2.5 -76t2.5 -104.5t3 -125.5l90 18t116 24zM175 -211q8 19 11 34.5t2 32t-6.5 35t-15.5 42.5
q-7 17 -1.5 27.5t15 13.5t20 -1t13.5 -16q4 -13 10.5 -32t10.5 -42.5t2 -51t-15 -57.5q-4 -9 -13.5 -12t-18.5 -1t-14 9.5t0 18.5z" />
    <glyph glyph-name="Tcaron" unicode="&#x164;" horiz-adv-x="738" 
d="M637 862q13 0 21.5 -8.5t10.5 -19.5t-2.5 -21.5t-17.5 -13.5q-31 1 -72.5 -3.5t-84 -12t-81 -15.5t-62.5 -14q1 -34 2 -91.5t3 -127.5t3.5 -146t3.5 -146t3.5 -128t2.5 -92q-2 -14 -12 -20.5t-21 -6.5t-20.5 6.5t-10.5 19.5q2 20 3 69.5t1 116t-1 143t-2 150.5t-2.5 138
t-2.5 105q-20 -2 -55.5 -8t-73.5 -14t-73 -18t-55 -20q-13 -2 -21.5 6.5t-11.5 19.5t1.5 21.5t17.5 12.5q34 8 82 17t103 19t114 20.5t115.5 21t107 21t87.5 19.5zM297 847q-1 3 -5 11t-10 19t-12.5 23t-12.5 23q-5 9 -1 16.5t12 11.5t17 3t15 -10q4 -7 8.5 -16.5
t16.5 -35.5q5 12 7.5 17l4.5 9t4 8.5t6 14.5t13.5 12.5t18 -0.5t12 -12t-3.5 -22q-6 -13 -10.5 -22t-8.5 -16.5t-7.5 -15t-6.5 -16.5t-11.5 -13t-17.5 -4t-17 3.5t-11 11.5z" />
    <glyph glyph-name="tcaron" unicode="&#x165;" horiz-adv-x="551" 
d="M410 533q13 0 21.5 -8.5t10.5 -19.5t-2.5 -21.5t-17.5 -13.5q-56 -4 -111 -11.5t-106 -17.5q2 -102 4.5 -210.5t5.5 -211.5q-2 -14 -12 -20.5t-21 -6.5t-20.5 6.5t-10.5 19.5q3 30 5 75t2.5 99.5t-0.5 115.5t-3 123q-49 -11 -88.5 -22.5t-65.5 -20.5q-13 -2 -21.5 6.5
t-11.5 19.5t1.5 21.5t17.5 12.5q11 3 23 5.5t30.5 6t45.5 8.5t68 13q-2 61 -4.5 118.5t-5.5 104.5t-5.5 80.5t-5.5 47.5q0 13 10 20t21.5 8t21 -5t9.5 -19q0 -9 1 -39t2.5 -76t2.5 -104.5t3 -125.5l90 18t116 24zM464 426q8 19 11 34.5t2 32t-6.5 35t-15.5 42.5
q-7 17 -1.5 27.5t15 13.5t20 -1t13.5 -16q4 -13 10.5 -32t10.5 -42.5t2 -51t-15 -57.5q-4 -9 -13.5 -12t-18.5 -1t-14 9.5t0 18.5z" />
    <glyph glyph-name="Tbar" unicode="&#x166;" horiz-adv-x="738" 
d="M699 869q13 0 21.5 -8.5t10.5 -19.5t-2.5 -21.5t-17.5 -13.5q-20 1 -50.5 -1.5t-65.5 -7t-71.5 -10.5t-70 -12t-61 -11.5t-43.5 -9.5q0 -22 1 -56.5t2 -74.5q42 12 74.5 24t61.5 28q13 4 23 -3t14.5 -17.5t1.5 -21.5t-15 -15q-13 -5 -19 -5.5t-18.5 -2t-39.5 -8
t-82 -23.5q1 -72 3 -154t4 -158.5t4 -141.5t3 -102q-2 -14 -12 -20.5t-21 -6.5t-20.5 6.5t-10.5 19.5q2 22 3 80t1 134.5t-1.5 162.5t-2.5 164q-23 -8 -50.5 -18t-60.5 -21q-14 -2 -23.5 5t-13 17.5t0 21t15.5 15.5q38 8 70.5 14.5t60.5 13.5q-1 39 -1.5 73.5t-1.5 59.5
q-20 -2 -55.5 -8t-73.5 -14t-73 -18t-55 -20q-13 -2 -21.5 6.5t-11.5 19.5t1.5 21.5t17.5 12.5q34 8 86.5 17.5t114.5 20.5t129.5 22.5t130.5 22.5t118 22t92 20z" />
    <glyph glyph-name="tbar" unicode="&#x167;" horiz-adv-x="404" 
d="M410 533q13 0 21.5 -8.5t10.5 -19.5t-2.5 -21.5t-17.5 -13.5q-56 -4 -111 -11.5t-106 -17.5q2 -102 4.5 -210.5t5.5 -211.5q-2 -14 -12 -20.5t-21 -6.5t-20.5 6.5t-10.5 19.5q3 30 5 75t2.5 99.5t-0.5 115.5t-3 123q-49 -11 -88.5 -22.5t-65.5 -20.5q-13 -2 -21.5 6.5
t-11.5 19.5t1.5 21.5t17.5 12.5q11 3 23 5.5t30.5 6t45.5 8.5t68 13q-1 11 -1 23t-1 23q-26 -5 -56 -10t-66 -12q-14 0 -22.5 8.5t-10.5 19.5t3 20.5t18 12.5q38 2 70.5 4.5t61.5 6.5q-4 93 -8.5 162.5t-8.5 92.5q0 13 10 20t21.5 8t21 -5t9.5 -19q0 -8 1 -29.5t2 -54.5
t2 -75.5t2 -91.5q45 8 80 18t66 21q13 2 22 -6.5t11.5 -20t-2 -22t-17.5 -12.5q-13 -3 -19 -3.5t-19 -2.5t-40 -6t-81 -14v-23t1 -23l90 18t116 24z" />
    <glyph glyph-name="Utilde" unicode="&#x168;" 
d="M31 837q1 16 11 24.5t21 8.5t19.5 -8.5t5.5 -26.5q-14 -109 -20 -223t-1 -218q4 -79 20 -148t42.5 -117.5t62 -71t77.5 -7.5q141 49 159 334q6 94 -1.5 207.5t-30.5 241.5q-3 18 5 25.5t19.5 8t21.5 -5.5t10 -16q19 -145 25.5 -258.5t1.5 -201.5q-5 -108 -29 -179.5
t-56.5 -115t-67 -63.5t-61.5 -25q-60 -12 -104.5 16t-74.5 82.5t-46.5 129t-20.5 155.5q-3 65 -2.5 130.5t3 125.5t6 110.5t5.5 85.5zM364 969q1 9 8.5 13.5t16 5t15 -4t6.5 -14.5q-2 -42 -25.5 -65.5t-55.5 -27.5q-31 -3 -50.5 8.5t-35 26.5t-29.5 27.5t-34 11.5
q-17 -2 -29 -15.5t-14 -36.5q-1 -9 -8.5 -13.5t-16 -5t-15 4t-6.5 14.5q1 23 9 40.5t20.5 29.5t29 17.5t34.5 5.5q27 -1 46 -14.5t34.5 -28.5t30.5 -25.5t34 -4.5q14 4 23.5 17t11.5 34z" />
    <glyph glyph-name="utilde" unicode="&#x169;" horiz-adv-x="365" 
d="M24 446q0 16 9 24.5t20 8.5t20 -8.5t8 -26.5q-1 -12 -2 -45.5t-0.5 -77t4.5 -91t14.5 -87t29.5 -65t49 -25.5q27 0 46.5 21.5t33 56.5t21.5 79.5t11.5 90t4 88.5t-1.5 75q-1 18 8.5 24.5t20.5 5t20.5 -9.5t8.5 -18q-2 -143 -18 -234t-41 -143t-55.5 -71t-61.5 -18
q-41 1 -68.5 27t-44 66t-24.5 90t-10.5 99.5t-2 92.5t0.5 71zM296 590q1 9 8.5 13.5t16 5t15 -4t6.5 -14.5q-2 -42 -25.5 -65.5t-55.5 -27.5q-31 -3 -50.5 8.5t-35 26.5t-29.5 27.5t-34 11.5q-17 -2 -29 -15.5t-14 -36.5q-1 -9 -8.5 -13.5t-16 -5t-15 4t-6.5 14.5
q1 23 9 40.5t20.5 29.5t29 17.5t34.5 5.5q27 -1 46 -14.5t34.5 -28.5t30.5 -25.5t34 -4.5q14 4 23.5 17t11.5 34z" />
    <glyph glyph-name="Umacron" unicode="&#x16a;" 
d="M31 837q1 16 11 24.5t21 8.5t19.5 -8.5t5.5 -26.5q-14 -109 -20 -223t-1 -218q4 -79 20 -148t42.5 -117.5t62 -71t77.5 -7.5q141 49 159 334q6 94 -1.5 207.5t-30.5 241.5q-3 18 5 25.5t19.5 8t21.5 -5.5t10 -16q19 -145 25.5 -258.5t1.5 -201.5q-5 -108 -29 -179.5
t-56.5 -115t-67 -63.5t-61.5 -25q-60 -12 -104.5 16t-74.5 82.5t-46.5 129t-20.5 155.5q-3 65 -2.5 130.5t3 125.5t6 110.5t5.5 85.5zM82 873q-14 2 -20.5 12t-6.5 21t6.5 20t19.5 9q63 -8 112 -10t89 -1t72.5 5t61.5 9q13 0 20 -10t8 -21.5t-5 -21t-19 -9.5h-17.5h-14.5
t-26 0.5t-50.5 0t-89 -1t-140.5 -2.5z" />
    <glyph glyph-name="umacron" unicode="&#x16b;" horiz-adv-x="365" 
d="M24 446q0 16 9 24.5t20 8.5t20 -8.5t8 -26.5q-1 -12 -2 -45.5t-0.5 -77t4.5 -91t14.5 -87t29.5 -65t49 -25.5q27 0 46.5 21.5t33 56.5t21.5 79.5t11.5 90t4 88.5t-1.5 75q-1 18 8.5 24.5t20.5 5t20.5 -9.5t8.5 -18q-2 -143 -18 -234t-41 -143t-55.5 -71t-61.5 -18
q-41 1 -68.5 27t-44 66t-24.5 90t-10.5 99.5t-2 92.5t0.5 71zM15 533q-14 2 -20.5 12t-6.5 21t6.5 20t19.5 9q63 -8 112 -10t89 -1t72.5 5t61.5 9q13 0 20 -10t8 -21.5t-5 -21t-19 -9.5h-17.5h-14.5t-26 0.5t-50.5 0t-89 -1t-140.5 -2.5z" />
    <glyph glyph-name="Ubreve" unicode="&#x16c;" 
d="M31 837q1 16 11 24.5t21 8.5t19.5 -8.5t5.5 -26.5q-14 -109 -20 -223t-1 -218q4 -79 20 -148t42.5 -117.5t62 -71t77.5 -7.5q141 49 159 334q6 94 -1.5 207.5t-30.5 241.5q-3 18 5 25.5t19.5 8t21.5 -5.5t10 -16q19 -145 25.5 -258.5t1.5 -201.5q-5 -108 -29 -179.5
t-56.5 -115t-67 -63.5t-61.5 -25q-60 -12 -104.5 16t-74.5 82.5t-46.5 129t-20.5 155.5q-3 65 -2.5 130.5t3 125.5t6 110.5t5.5 85.5zM309 964q2 8 9.5 10.5t15 0.5t13 -8.5t3.5 -15.5q-8 -39 -37.5 -59t-63 -21t-62.5 18.5t-37 59.5q-2 9 4 15.5t14 8.5t16 -1t10 -12
q6 -25 22 -36.5t35 -10.5t35.5 14t22.5 37z" />
    <glyph glyph-name="ubreve" unicode="&#x16d;" horiz-adv-x="365" 
d="M24 446q0 16 9 24.5t20 8.5t20 -8.5t8 -26.5q-1 -12 -2 -45.5t-0.5 -77t4.5 -91t14.5 -87t29.5 -65t49 -25.5q27 0 46.5 21.5t33 56.5t21.5 79.5t11.5 90t4 88.5t-1.5 75q-1 18 8.5 24.5t20.5 5t20.5 -9.5t8.5 -18q-2 -143 -18 -234t-41 -143t-55.5 -71t-61.5 -18
q-41 1 -68.5 27t-44 66t-24.5 90t-10.5 99.5t-2 92.5t0.5 71zM241 585q2 8 9.5 10.5t15 0.5t13 -8.5t3.5 -15.5q-8 -39 -37.5 -59t-63 -21t-62.5 18.5t-37 59.5q-2 9 4 15.5t14 8.5t16 -1t10 -12q6 -25 22 -36.5t35 -10.5t35.5 14t22.5 37z" />
    <glyph glyph-name="Uring" unicode="&#x16e;" 
d="M31 837q1 16 11 24.5t21 8.5t19.5 -8.5t5.5 -26.5q-14 -109 -20 -223t-1 -218q4 -79 20 -148t42.5 -117.5t62 -71t77.5 -7.5q141 49 159 334q6 94 -1.5 207.5t-30.5 241.5q-3 18 5 25.5t19.5 8t21.5 -5.5t10 -16q19 -145 25.5 -258.5t1.5 -201.5q-5 -108 -29 -179.5
t-56.5 -115t-67 -63.5t-61.5 -25q-60 -12 -104.5 16t-74.5 82.5t-46.5 129t-20.5 155.5q-3 65 -2.5 130.5t3 125.5t6 110.5t5.5 85.5zM250 904q15 0 22.5 9t7.5 19.5t-7.5 19.5t-22.5 9t-22.5 -9t-7.5 -19.5t7.5 -19.5t22.5 -9zM253 870q-22 -1 -36.5 8t-22.5 23t-8 30
t7 30.5t21.5 24t37.5 9.5q32 0 47.5 -19t15.5 -42t-16 -43t-46 -21z" />
    <glyph glyph-name="uring" unicode="&#x16f;" horiz-adv-x="365" 
d="M24 446q0 16 9 24.5t20 8.5t20 -8.5t8 -26.5q-1 -12 -2 -45.5t-0.5 -77t4.5 -91t14.5 -87t29.5 -65t49 -25.5q27 0 46.5 21.5t33 56.5t21.5 79.5t11.5 90t4 88.5t-1.5 75q-1 18 8.5 24.5t20.5 5t20.5 -9.5t8.5 -18q-2 -143 -18 -234t-41 -143t-55.5 -71t-61.5 -18
q-41 1 -68.5 27t-44 66t-24.5 90t-10.5 99.5t-2 92.5t0.5 71zM182 525q15 0 22.5 9t7.5 19.5t-7.5 19.5t-22.5 9t-22.5 -9t-7.5 -19.5t7.5 -19.5t22.5 -9zM185 491q-22 -1 -36.5 8t-22.5 23t-8 30t7 30.5t21.5 24t37.5 9.5q32 0 47.5 -19t15.5 -42t-16 -43t-46 -21z" />
    <glyph glyph-name="Uhungarumlaut" unicode="&#x170;" 
d="M31 837q1 16 11 24.5t21 8.5t19.5 -8.5t5.5 -26.5q-14 -109 -20 -223t-1 -218q4 -79 20 -148t42.5 -117.5t62 -71t77.5 -7.5q141 49 159 334q6 94 -1.5 207.5t-30.5 241.5q-3 18 5 25.5t19.5 8t21.5 -5.5t10 -16q19 -145 25.5 -258.5t1.5 -201.5q-5 -108 -29 -179.5
t-56.5 -115t-67 -63.5t-61.5 -25q-60 -12 -104.5 16t-74.5 82.5t-46.5 129t-20.5 155.5q-3 65 -2.5 130.5t3 125.5t6 110.5t5.5 85.5zM222 977q5 6 12.5 4.5t13.5 -7.5t7.5 -14t-6.5 -15q-29 -26 -44 -43.5t-21 -22.5q-8 -8 -16.5 -6t-14 8.5t-6.5 15t6 15.5q9 9 20 19.5
t21.5 20t18 16.5t9.5 9zM317 973q5 6 12.5 4.5t13.5 -7.5t7.5 -14t-6.5 -15q-29 -26 -44 -43.5t-21 -22.5q-8 -8 -16.5 -6t-14 8.5t-6.5 15t6 15.5q9 9 20 19.5t21.5 20t18 16.5t9.5 9z" />
    <glyph glyph-name="uhungarumlaut" unicode="&#x171;" horiz-adv-x="365" 
d="M24 446q0 16 9 24.5t20 8.5t20 -8.5t8 -26.5q-1 -12 -2 -45.5t-0.5 -77t4.5 -91t14.5 -87t29.5 -65t49 -25.5q27 0 46.5 21.5t33 56.5t21.5 79.5t11.5 90t4 88.5t-1.5 75q-1 18 8.5 24.5t20.5 5t20.5 -9.5t8.5 -18q-2 -143 -18 -234t-41 -143t-55.5 -71t-61.5 -18
q-41 1 -68.5 27t-44 66t-24.5 90t-10.5 99.5t-2 92.5t0.5 71zM154 598q5 6 12.5 4.5t13.5 -7.5t7.5 -14t-6.5 -15q-29 -26 -44 -43.5t-21 -22.5q-8 -8 -16.5 -6t-14 8.5t-6.5 15t6 15.5q9 9 20 19.5t21.5 20t18 16.5t9.5 9zM249 594q5 6 12.5 4.5t13.5 -7.5t7.5 -14
t-6.5 -15q-29 -26 -44 -43.5t-21 -22.5q-8 -8 -16.5 -6t-14 8.5t-6.5 15t6 15.5q9 9 20 19.5t21.5 20t18 16.5t9.5 9z" />
    <glyph glyph-name="Uogonek" unicode="&#x172;" 
d="M31 837q1 16 11 24.5t21 8.5t19.5 -8.5t5.5 -26.5q-14 -109 -20 -223t-1 -218q4 -79 20 -148t42.5 -117.5t62 -71t77.5 -7.5q141 49 159 334q6 94 -1.5 207.5t-30.5 241.5q-3 18 5 25.5t19.5 8t21.5 -5.5t10 -16q19 -145 25.5 -258.5t1.5 -201.5q-5 -108 -29 -179.5
t-56.5 -115t-67 -63.5t-61.5 -25q-60 -12 -104.5 16t-74.5 82.5t-46.5 129t-20.5 155.5q-3 65 -2.5 130.5t3 125.5t6 110.5t5.5 85.5zM338 -53q9 0 12 -8t1.5 -17t-7.5 -16.5t-16 -6.5q-32 4 -49 25.5t-18 49t13.5 56t45.5 45.5q9 5 15.5 1t10 -11.5t2 -16.5t-9.5 -13
q-18 -11 -26.5 -25.5t-8 -28t9 -23.5t25.5 -11z" />
    <glyph glyph-name="uogonek" unicode="&#x173;" horiz-adv-x="365" 
d="M24 446q0 16 9 24.5t20 8.5t20 -8.5t8 -26.5q-1 -12 -2 -45.5t-0.5 -77t4.5 -91t14.5 -87t29.5 -65t49 -25.5q27 0 46.5 21.5t33 56.5t21.5 79.5t11.5 90t4 88.5t-1.5 75q-1 18 8.5 24.5t20.5 5t20.5 -9.5t8.5 -18q-2 -143 -18 -234t-41 -143t-55.5 -71t-61.5 -18
q-41 1 -68.5 27t-44 66t-24.5 90t-10.5 99.5t-2 92.5t0.5 71zM240 -65q9 0 12 -8t1.5 -17t-7.5 -16.5t-16 -6.5q-32 4 -49 25.5t-18 49t13.5 56t45.5 45.5q9 5 15.5 1t10 -11.5t2 -16.5t-9.5 -13q-18 -11 -26.5 -25.5t-8 -28t9 -23.5t25.5 -11z" />
    <glyph glyph-name="Wcircumflex" unicode="&#x174;" horiz-adv-x="912" 
d="M245 37q-9 61 -24.5 136t-34.5 154t-40.5 157t-43 144t-41.5 115.5t-36 71.5q-8 11 -3 22t15.5 17.5t22 6t17.5 -12.5q15 -30 32 -76.5t34.5 -103t34.5 -119.5t33 -125t30.5 -119t25.5 -102.5t19 -76t12 -38.5q15 36 32 90t34.5 117t34.5 129.5t31 126.5t24.5 109.5
t15.5 78.5q1 9 8.5 16t16.5 9t18 -1.5t14 -13.5q3 -6 9 -35t14.5 -73.5t19 -100t22 -114.5t23.5 -116.5t23.5 -106t22 -83.5t19.5 -48q1 37 7.5 98.5t18 135.5t26.5 154t33 154t37.5 135.5t40.5 98.5q6 12 16.5 14t19.5 -2.5t14 -13t-1 -17.5q-23 -39 -43.5 -104t-38 -142
t-31.5 -159.5t-24 -157t-15.5 -134t-5.5 -90.5q0 -18 -12 -27t-27.5 -10t-31 6t-23.5 21q-3 5 -8 12.5t-13 28t-19 58.5t-25.5 105t-32.5 167t-40 245q-4 -17 -13.5 -61t-24 -103t-31.5 -126.5t-35 -130.5t-36 -115.5t-33 -81.5q-7 -14 -20 -22t-26 -8t-24 8.5t-14 28.5z
M485 994q1 -3 5 -11t10 -19t12.5 -23t12.5 -23q4 -9 0.5 -16.5t-11.5 -11.5t-17 -3t-15 10q-4 7 -8.5 16.5t-16.5 35.5q-5 -12 -7.5 -17l-4.5 -9t-4 -8.5t-6 -14.5t-13.5 -12.5t-18 0.5t-12.5 12t4 22q12 25 19 38.5t14 31.5q3 9 11.5 13t17.5 4t17 -4t11 -11z" />
    <glyph glyph-name="wcircumflex" unicode="&#x175;" horiz-adv-x="657" 
d="M113 8q-6 88 -18.5 157.5t-26.5 119.5t-26.5 80t-19.5 39t-2.5 19.5t14 17.5t20 7.5t16.5 -11.5q31 -60 47 -120.5t24.5 -112.5t13 -90.5t11.5 -54.5q40 94 75 196t66 192q10 30 44 13q7 -4 18.5 -29.5t24.5 -63.5t27.5 -83t29 -87.5t28 -77.5t25.5 -53q23 21 38.5 66
t25 99.5t13 113.5t2.5 109q-1 13 8 20t19.5 7t19 -8t8.5 -24v-38t-2 -64.5t-7.5 -81.5t-15.5 -87.5t-26 -84t-40 -69.5q-14 -16 -29.5 -21.5t-30 -1.5t-26.5 17t-19 34l-103 315q-13 -23 -27 -65t-31 -92.5t-37.5 -105.5t-46.5 -103q-7 -14 -20.5 -21.5t-27 -8t-24.5 8
t-12 28.5zM357 615q1 -3 5 -11t10 -19t12.5 -23t12.5 -23q4 -9 0.5 -16.5t-11.5 -11.5t-17 -3t-15 10q-4 7 -8.5 16.5t-16.5 35.5q-5 -12 -7.5 -17l-4.5 -9t-4 -8.5t-6 -14.5t-13.5 -12.5t-18 0.5t-12.5 12t4 22q12 25 19 38.5t14 31.5q3 9 11.5 13t17.5 4t17 -4t11 -11z
" />
    <glyph glyph-name="Ycircumflex" unicode="&#x176;" horiz-adv-x="488" 
d="M296 10q-5 -13 -16.5 -17t-22.5 -1t-18.5 12t-4.5 22q21 55 41 146.5t52 223.5q-40 47 -87.5 103.5t-90 111.5t-75 102t-43.5 74q-7 11 -3 22.5t13 19t20 8t18 -10.5q4 -17 24 -54t54 -86t81 -105t106 -112q15 66 28.5 127.5t24 112t17 86.5t7.5 50q4 12 15.5 16.5
t22.5 2.5t19 -10t4 -21q-2 -10 -10 -49.5t-22 -101.5t-31.5 -141.5t-37.5 -167.5t-42 -181t-43 -182zM273 994q1 -3 5 -11t10 -19t12.5 -23t12.5 -23q4 -9 0.5 -16.5t-11.5 -11.5t-17 -3t-15 10q-4 7 -8.5 16.5t-16.5 35.5q-5 -12 -7.5 -17l-4.5 -9t-4 -8.5t-6 -14.5
t-13.5 -12.5t-18 0.5t-12.5 12t4 22q12 25 19 38.5t14 31.5q3 9 11.5 13t17.5 4t17 -4t11 -11z" />
    <glyph glyph-name="ycircumflex" unicode="&#x177;" horiz-adv-x="503" 
d="M300 -312q-5 -13 -16.5 -17t-22.5 -1t-18.5 12t-4.5 22q10 27 18.5 55.5t17.5 64.5t19.5 83.5t26.5 113.5q-40 47 -87.5 103.5t-90 111.5t-75 102t-43.5 74q-7 11 -3 22.5t13 19t20 8t18 -10.5q4 -17 24 -54t54 -86t81 -105t106 -112q15 66 28.5 127.5t24 112t17 86.5
t7.5 50q4 12 15.5 16.5t22.5 2.5t19 -10t4 -21q-3 -10 -12.5 -47.5t-23 -94.5t-31 -130t-36 -155t-37 -169.5t-35.5 -173.5zM280 615q1 -3 5 -11t10 -19t12.5 -23t12.5 -23q4 -9 0.5 -16.5t-11.5 -11.5t-17 -3t-15 10q-4 7 -8.5 16.5t-16.5 35.5q-5 -12 -7.5 -17l-4.5 -9
t-4 -8.5t-6 -14.5t-13.5 -12.5t-18 0.5t-12.5 12t4 22q12 25 19 38.5t14 31.5q3 9 11.5 13t17.5 4t17 -4t11 -11z" />
    <glyph glyph-name="Ydieresis" unicode="&#x178;" horiz-adv-x="488" 
d="M296 10q-5 -13 -16.5 -17t-22.5 -1t-18.5 12t-4.5 22q21 55 41 146.5t52 223.5q-40 47 -87.5 103.5t-90 111.5t-75 102t-43.5 74q-7 11 -3 22.5t13 19t20 8t18 -10.5q4 -17 24 -54t54 -86t81 -105t106 -112q15 66 28.5 127.5t24 112t17 86.5t7.5 50q4 12 15.5 16.5
t22.5 2.5t19 -10t4 -21q-2 -10 -10 -49.5t-22 -101.5t-31.5 -141.5t-37.5 -167.5t-42 -181t-43 -182zM168 873q-18 0 -27.5 11t-9.5 24t9 24t28 11q18 0 27 -11t9 -24t-9 -24t-27 -11zM320 873q-18 0 -27.5 11t-9.5 24t9 24t28 11q18 0 27 -11t9 -24t-9 -24t-27 -11z" />
    <glyph glyph-name="Zacute" unicode="&#x179;" horiz-adv-x="637" 
d="M563 79q11 -3 16.5 -12t5.5 -19.5t-5.5 -19t-16.5 -8.5q-36 6 -85 7.5t-103 -1t-108.5 -6.5t-101.5 -8.5t-82 -8t-50 -3.5q-10 0 -15 6.5t-5.5 15.5t2.5 19t9 16q21 23 55.5 74.5t76 120t87.5 146.5t89.5 152t82 138.5t66.5 105.5q-51 -4 -116.5 -15t-128.5 -22
t-113.5 -20t-71.5 -8q-11 1 -18.5 11.5t-9 22t2.5 21t15 8.5q50 -2 103 3t111.5 14t123 20.5t138.5 22.5q7 1 14.5 -5.5t12 -15.5t5.5 -19.5t-4 -17.5q-19 -27 -56 -87t-82.5 -136t-94.5 -159t-93 -156t-78 -127.5t-48 -72.5q12 -1 38.5 1t64 5t82.5 6.5t93 6t97.5 4
t94.5 0.5zM338 977q5 6 12.5 4.5t13.5 -7.5t7.5 -14t-6.5 -15q-29 -26 -44 -43.5t-21 -22.5q-8 -8 -16.5 -6t-14 8.5t-6.5 15t6 15.5q9 9 20 19.5t21.5 20t18 16.5t9.5 9z" />
    <glyph glyph-name="zacute" unicode="&#x17a;" horiz-adv-x="406" 
d="M364 68q12 -2 18 -10.5t6 -19t-5.5 -19.5t-16.5 -10q-54 6 -103 5t-91 -4.5t-75.5 -8.5t-55.5 -7q-10 -1 -15 5t-6.5 15.5t0.5 19.5t8 16q30 36 54.5 70t52 75.5t62.5 96t85 131.5q-48 3 -84.5 1.5t-65.5 -5t-52.5 -9t-45.5 -10.5q-11 0 -17.5 9.5t-7 20.5t4.5 20.5
t16 9.5l15 1.5t13 1t22.5 1.5t43 2.5t75 4.5t118.5 8q7 0 13.5 -5t10.5 -13t4 -17.5t-5 -17.5q-25 -37 -58.5 -88t-68 -103.5t-65.5 -100.5t-50 -79q18 0 36.5 1t47 2.5t71.5 4t111 5.5zM222 598q5 6 12.5 4.5t13.5 -7.5t7.5 -14t-6.5 -15q-29 -26 -44 -43.5t-21 -22.5
q-8 -8 -16.5 -6t-14 8.5t-6.5 15t6 15.5q9 9 20 19.5t21.5 20t18 16.5t9.5 9z" />
    <glyph glyph-name="Zdotaccent" unicode="&#x17b;" horiz-adv-x="637" 
d="M563 79q11 -3 16.5 -12t5.5 -19.5t-5.5 -19t-16.5 -8.5q-36 6 -85 7.5t-103 -1t-108.5 -6.5t-101.5 -8.5t-82 -8t-50 -3.5q-10 0 -15 6.5t-5.5 15.5t2.5 19t9 16q21 23 55.5 74.5t76 120t87.5 146.5t89.5 152t82 138.5t66.5 105.5q-51 -4 -116.5 -15t-128.5 -22
t-113.5 -20t-71.5 -8q-11 1 -18.5 11.5t-9 22t2.5 21t15 8.5q50 -2 103 3t111.5 14t123 20.5t138.5 22.5q7 1 14.5 -5.5t12 -15.5t5.5 -19.5t-4 -17.5q-19 -27 -56 -87t-82.5 -136t-94.5 -159t-93 -156t-78 -127.5t-48 -72.5q12 -1 38.5 1t64 5t82.5 6.5t93 6t97.5 4
t94.5 0.5zM319 865q-18 0 -27.5 11t-9.5 24t9 24t28 11q18 0 27 -11t9 -24t-9 -24t-27 -11z" />
    <glyph glyph-name="zdotaccent" unicode="&#x17c;" horiz-adv-x="406" 
d="M364 68q12 -2 18 -10.5t6 -19t-5.5 -19.5t-16.5 -10q-54 6 -103 5t-91 -4.5t-75.5 -8.5t-55.5 -7q-10 -1 -15 5t-6.5 15.5t0.5 19.5t8 16q30 36 54.5 70t52 75.5t62.5 96t85 131.5q-48 3 -84.5 1.5t-65.5 -5t-52.5 -9t-45.5 -10.5q-11 0 -17.5 9.5t-7 20.5t4.5 20.5
t16 9.5l15 1.5t13 1t22.5 1.5t43 2.5t75 4.5t118.5 8q7 0 13.5 -5t10.5 -13t4 -17.5t-5 -17.5q-25 -37 -58.5 -88t-68 -103.5t-65.5 -100.5t-50 -79q18 0 36.5 1t47 2.5t71.5 4t111 5.5zM203 486q-18 0 -27.5 11t-9.5 24t9 24t28 11q18 0 27 -11t9 -24t-9 -24t-27 -11z" />
    <glyph glyph-name="Zcaron" unicode="&#x17d;" horiz-adv-x="637" 
d="M563 79q11 -3 16.5 -12t5.5 -19.5t-5.5 -19t-16.5 -8.5q-36 6 -85 7.5t-103 -1t-108.5 -6.5t-101.5 -8.5t-82 -8t-50 -3.5q-10 0 -15 6.5t-5.5 15.5t2.5 19t9 16q21 23 55.5 74.5t76 120t87.5 146.5t89.5 152t82 138.5t66.5 105.5q-51 -4 -116.5 -15t-128.5 -22
t-113.5 -20t-71.5 -8q-11 1 -18.5 11.5t-9 22t2.5 21t15 8.5q50 -2 103 3t111.5 14t123 20.5t138.5 22.5q7 1 14.5 -5.5t12 -15.5t5.5 -19.5t-4 -17.5q-19 -27 -56 -87t-82.5 -136t-94.5 -159t-93 -156t-78 -127.5t-48 -72.5q12 -1 38.5 1t64 5t82.5 6.5t93 6t97.5 4
t94.5 0.5zM289 894q-1 3 -5 11t-10 19t-12.5 23t-12.5 23q-5 9 -1 16.5t12 11.5t17 3t15 -10q4 -7 8.5 -16.5t16.5 -35.5q5 12 7.5 17l4.5 9t4 8.5t6 14.5t13.5 12.5t18 -0.5t12 -12t-3.5 -22q-6 -13 -10.5 -22t-8.5 -16.5t-7.5 -15t-6.5 -16.5t-11.5 -13t-17.5 -4t-17 3.5
t-11 11.5z" />
    <glyph glyph-name="zcaron" unicode="&#x17e;" horiz-adv-x="406" 
d="M364 68q12 -2 18 -10.5t6 -19t-5.5 -19.5t-16.5 -10q-54 6 -103 5t-91 -4.5t-75.5 -8.5t-55.5 -7q-10 -1 -15 5t-6.5 15.5t0.5 19.5t8 16q30 36 54.5 70t52 75.5t62.5 96t85 131.5q-48 3 -84.5 1.5t-65.5 -5t-52.5 -9t-45.5 -10.5q-11 0 -17.5 9.5t-7 20.5t4.5 20.5
t16 9.5l15 1.5t13 1t22.5 1.5t43 2.5t75 4.5t118.5 8q7 0 13.5 -5t10.5 -13t4 -17.5t-5 -17.5q-25 -37 -58.5 -88t-68 -103.5t-65.5 -100.5t-50 -79q18 0 36.5 1t47 2.5t71.5 4t111 5.5zM174 515q-1 3 -5 11t-10 19t-12.5 23t-12.5 23q-5 9 -1 16.5t12 11.5t17 3t15 -10
q4 -7 8.5 -16.5t16.5 -35.5q5 12 7.5 17l4.5 9t4 8.5t6 14.5t13.5 12.5t18 -0.5t12 -12t-3.5 -22q-6 -13 -10.5 -22t-8.5 -16.5t-7.5 -15t-6.5 -16.5t-11.5 -13t-17.5 -4t-17 3.5t-11 11.5z" />
    <glyph glyph-name="AEacute" unicode="&#x1fc;" horiz-adv-x="966" 
d="M863 497q13 -1 20.5 -10t8.5 -20t-4.5 -20.5t-18.5 -11.5q-96 3 -171.5 -5t-144.5 -20q2 -86 4.5 -175t4.5 -177q17 1 38 3.5t59 6.5t100 10.5t161 17.5q13 -1 20.5 -10t8.5 -20t-4.5 -20.5t-18.5 -11.5q-62 2 -118.5 -1t-105.5 -9t-89.5 -14t-70.5 -16q-14 -5 -28 1
t-15 23q3 28 4.5 69.5t2 92t0 107.5t-1.5 115q-60 -4 -111 -11.5t-97 -15.5q-22 -39 -49.5 -89.5t-55.5 -102t-54 -100t-45 -83.5q-8 -11 -19.5 -12t-20.5 4.5t-13.5 16t1.5 22.5q13 18 35.5 54t48.5 81.5t54 96.5t53 100q-7 -1 -12.5 -2.5t-10.5 -2.5q-14 -1 -21.5 8
t-8.5 20t4.5 21t18.5 11q13 3 27.5 5t38.5 4q40 71 76 137t65 121t49.5 96t29.5 64q3 8 12 12.5t18.5 3.5t17 -7t8.5 -19v-12q17 2 37.5 4t58.5 6.5t101 11t165 17.5q13 -1 20.5 -10t8.5 -20t-4.5 -20.5t-18.5 -11.5q-116 4 -208.5 -8.5t-157.5 -26.5q2 -51 3.5 -129.5
t3.5 -172.5q21 1 44.5 4t58 7t84.5 9.5t124 13.5zM488 743q-17 -31 -33.5 -64.5t-35.5 -71.5t-41.5 -81.5t-50.5 -94.5q32 3 72.5 8t103.5 13q-2 72 -5 144.5t-10 146.5zM681 993q5 6 12.5 4.5t13.5 -7.5t7.5 -14t-6.5 -15q-29 -26 -44 -43.5t-21 -22.5q-8 -8 -16.5 -6
t-14 8.5t-6.5 15t6 15.5q9 9 20 19.5t21.5 20t18 16.5t9.5 9z" />
    <glyph glyph-name="aeacute" unicode="&#x1fd;" horiz-adv-x="694" 
d="M598 28q-27 -22 -64.5 -35.5t-76 -13t-73 19t-53.5 60.5q-8 15 -12.5 32t-6.5 35q-28 -50 -65 -82t-94 -38q-20 -2 -41.5 2.5t-38.5 16.5q-29 19 -38.5 50.5t-7 66t13 69.5t21.5 62q17 42 42 79.5t57 66.5t70 46t82 17q17 0 38.5 -11t33.5 -34q23 24 52.5 38t65.5 16
q42 1 68 -20t41 -52t21.5 -66t9.5 -63q1 -14 -10 -24t-28 -12q-88 -9 -147 -11t-97 -1q-9 -51 -2 -91t21 -72q15 -31 39.5 -42t52.5 -7.5t56 18t50 34.5q37 32 55 75q5 10 15.5 10t19.5 -6.5t13.5 -16.5t-2.5 -20q-8 -12 -18 -25.5t-21 -26.5t-21.5 -25t-20.5 -19zM106 250
q-6 -15 -14.5 -41.5t-12.5 -55t0 -53.5t25 -37q18 -10 45 -10q29 0 53.5 16.5t44.5 43.5t35.5 61t26.5 70v2q2 7 5.5 22.5t7 35t5.5 41t0.5 39.5t-8 29.5t-18.5 12.5q-30 2 -59 -11t-54 -37t-46 -57t-36 -71zM500 438q-42 -2 -72.5 -27.5t-47.5 -77.5l-9 -37h27.5h43t49.5 1
t47 3t34.5 6t14.5 10q0 12 -4.5 33t-15 41t-27 34.5t-40.5 13.5zM474 614q5 6 12.5 4.5t13.5 -7.5t7.5 -14t-6.5 -15q-29 -26 -44 -43.5t-21 -22.5q-8 -8 -16.5 -6t-14 8.5t-6.5 15t6 15.5q9 9 20 19.5t21.5 20t18 16.5t9.5 9z" />
    <glyph glyph-name="Oslashacute" unicode="&#x1fe;" horiz-adv-x="490" 
d="M125 8q-7 -12 -18.5 -14.5t-22 2t-17 14t-2.5 21.5q4 7 7.5 15t8.5 18q-23 30 -37 70.5t-20 87.5t-4.5 99.5t9.5 106.5q12 84 39 165.5t64 144.5t82 99t94 30q30 -5 53 -22q0 1 0.5 2t0.5 2q5 12 17 15.5t23 -0.5t17.5 -13t1.5 -21q-2 -5 -5 -14t-8 -23q21 -35 35 -82.5
t20.5 -102t6 -114t-8.5 -117.5q-10 -77 -32.5 -147.5t-55.5 -123.5t-75.5 -83t-93.5 -26q-44 5 -75 23l-2 -6zM409 377q6 45 7.5 92t-1.5 92t-11.5 86t-21.5 74q-20 -57 -47 -133.5t-58 -163.5t-64.5 -178t-64.5 -176q21 -16 50 -21q37 -6 71 21t62 74.5t48.5 108.5
t29.5 124zM291 808q-23 1 -45.5 -16.5t-44 -47.5t-40.5 -70t-34.5 -84.5t-27 -90.5t-17.5 -88q-12 -80 -7.5 -158t31.5 -132q19 45 41 101.5t44.5 117.5t45 124t42.5 121.5t36.5 109.5t27.5 88q-24 24 -52 25zM305 986q5 6 12.5 4.5t13.5 -7.5t7.5 -14t-6.5 -15
q-29 -26 -44 -43.5t-21 -22.5q-8 -8 -16.5 -6t-14 8.5t-6.5 15t6 15.5q9 9 20 19.5t21.5 20t18 16.5t9.5 9z" />
    <glyph glyph-name="oslashacute" unicode="&#x1ff;" horiz-adv-x="386" 
d="M115 -36q-7 -12 -18.5 -14.5t-22 2t-17 14t-2.5 21.5q4 8 7.5 16t8.5 16q-38 35 -48 93t3 121q9 48 30 94t50 81.5t64 56t73 17.5q18 -2 33 -9q4 15 9 27t17 15.5t23 -0.5t17.5 -13t1.5 -21q-2 -8 -7.5 -18.5t-13.5 -26.5q32 -40 41 -103t-2 -128q-8 -44 -25.5 -84.5
t-43 -71.5t-59 -48.5t-72.5 -15.5q-20 1 -37 6q-3 -7 -5.5 -13.5t-4.5 -13.5zM225 427q-27 -2 -51 -20t-43.5 -46t-33.5 -62.5t-21 -70.5q-9 -45 -5 -87t25 -70q20 41 42 87.5t43 93t40.5 90.5t34.5 80q-15 6 -31 5zM296 382q-28 -54 -66.5 -138.5t-86.5 -205.5q5 -1 9 -2
t9 -1q28 -3 52 10t43 37.5t32 57t20 67.5q9 48 6.5 95.5t-18.5 79.5zM212 598q5 6 12.5 4.5t13.5 -7.5t7.5 -14t-6.5 -15q-29 -26 -44 -43.5t-21 -22.5q-8 -8 -16.5 -6t-14 8.5t-6.5 15t6 15.5q9 9 20 19.5t21.5 20t18 16.5t9.5 9z" />
    <glyph glyph-name="Scommaaccent" unicode="&#x218;" horiz-adv-x="508" 
d="M29 296q-2 12 3 20t12.5 11.5t17 2.5t16.5 -6q8 -6 10 -19q6 -60 26.5 -108t52 -81t72 -51t84.5 -19q22 0 39.5 8.5t30.5 23.5t20.5 34.5t10.5 40.5q7 57 -16.5 99.5t-62 78t-85 68.5t-87 70t-67.5 83t-26 108q1 36 12.5 71t34 62t56 44t77.5 19q54 2 91 -21.5t59 -63
t29.5 -89t1.5 -100.5q-1 -9 -9.5 -14t-17.5 -5t-16.5 5t-7.5 14q2 49 -4.5 92t-23 73.5t-44.5 46.5t-69 10q-28 -4 -49.5 -17.5t-35.5 -33t-21.5 -43.5t-7.5 -49q-1 -59 27 -102t70.5 -78.5t90.5 -68t86.5 -71t59.5 -87.5t9 -116q-6 -30 -20 -56.5t-35.5 -46t-49 -30.5
t-60.5 -11q-48 1 -93.5 20t-83.5 56.5t-66 94t-41 131.5zM272 -214q8 19 11 34.5t2 32t-6.5 35t-15.5 42.5q-7 17 -1.5 27.5t15 13.5t20 -1t13.5 -16q4 -13 10.5 -32t10.5 -42.5t2 -51t-15 -57.5q-4 -9 -13.5 -12t-18.5 -1t-14 9.5t0 18.5z" />
    <glyph glyph-name="scommaaccent" unicode="&#x219;" horiz-adv-x="397" 
d="M21 160q-4 16 3.5 24.5t18.5 10t21 -4.5t12 -19q3 -28 18 -53.5t39 -45t56 -31t69 -11.5q23 0 39.5 8.5t24 22t4.5 29.5t-20 31q-24 21 -67 45.5t-85 55.5t-71.5 69.5t-26.5 87.5q1 22 12 44t30.5 38.5t47.5 27t63 10.5q42 0 71.5 -17t48 -41.5t27.5 -53t9 -52.5
q0 -12 -8.5 -18t-18.5 -7t-18.5 4.5t-8.5 17.5q-1 19 -5.5 40.5t-16.5 39.5t-32.5 30t-51.5 12q-43 0 -70 -24t-29 -67q-1 -24 11 -44.5t33 -38.5t47.5 -34.5t53.5 -32t52 -31t43 -32.5q27 -25 31 -53.5t-10 -53t-42.5 -40.5t-65.5 -16q-41 0 -79.5 10t-70 31t-55 53.5
t-33.5 78.5zM214 -235q8 19 11 34.5t2 32t-6.5 35t-15.5 42.5q-7 17 -1.5 27.5t15 13.5t20 -1t13.5 -16q4 -13 10.5 -32t10.5 -42.5t2 -51t-15 -57.5q-4 -9 -13.5 -12t-18.5 -1t-14 9.5t0 18.5z" />
    <glyph glyph-name="dotlessj" unicode="&#x237;" horiz-adv-x="196" 
d="M-221 -95q0 18 7.5 26.5t16.5 8.5t16.5 -8t7.5 -23q0 -34 12 -66.5t33 -57.5t50.5 -40t64.5 -15q41 0 67 31t41 74t21 88.5t6 75.5q0 66 -4.5 119.5t-13 104.5t-21 103.5t-28.5 115.5q-4 16 4 26.5t20 13t23.5 -4t13.5 -24.5q22 -120 33.5 -202t16.5 -133t5.5 -75.5
t0.5 -28.5q0 -32 -3 -70t-11.5 -76t-22.5 -72.5t-36 -61t-53 -41.5t-73 -13q-41 1 -76 20.5t-61 50.5t-41 71t-16 83z" />
    <glyph glyph-name="circumflex" unicode="&#x2c6;" horiz-adv-x="217" 
d="M139 615q1 -3 5 -11t10 -19t12.5 -23t12.5 -23q4 -9 0.5 -16.5t-11.5 -11.5t-17 -3t-15 10q-4 7 -8.5 16.5t-16.5 35.5q-5 -12 -7.5 -17l-4.5 -9t-4 -8.5t-6 -14.5t-13.5 -12.5t-18 0.5t-12.5 12t4 22q12 25 19 38.5t14 31.5q3 9 11.5 13t17.5 4t17 -4t11 -11z" />
    <glyph glyph-name="caron" unicode="&#x2c7;" horiz-adv-x="217" 
d="M81 515q-1 3 -5 11t-10 19t-12.5 23t-12.5 23q-5 9 -1 16.5t12 11.5t17 3t15 -10q4 -7 8.5 -16.5t16.5 -35.5q5 12 7.5 17l4.5 9t4 8.5t6 14.5t13.5 12.5t18 -0.5t12 -12t-3.5 -22q-6 -13 -10.5 -22t-8.5 -16.5t-7.5 -15t-6.5 -16.5t-11.5 -13t-17.5 -4t-17 3.5t-11 11.5
z" />
    <glyph glyph-name="breve" unicode="&#x2d8;" horiz-adv-x="223" 
d="M166 585q2 8 9.5 10.5t15 0.5t13 -8.5t3.5 -15.5q-8 -39 -37.5 -59t-63 -21t-62.5 18.5t-37 59.5q-2 9 4 15.5t14 8.5t16 -1t10 -12q6 -25 22 -36.5t35 -10.5t35.5 14t22.5 37z" />
    <glyph glyph-name="dotaccent" unicode="&#x2d9;" horiz-adv-x="119" 
d="M59 486q-18 0 -27.5 11t-9.5 24t9 24t28 11q18 0 27 -11t9 -24t-9 -24t-27 -11z" />
    <glyph glyph-name="ring" unicode="&#x2da;" horiz-adv-x="185" 
d="M94 525q15 0 22.5 9t7.5 19.5t-7.5 19.5t-22.5 9t-22.5 -9t-7.5 -19.5t7.5 -19.5t22.5 -9zM97 491q-22 -1 -36.5 8t-22.5 23t-8 30t7 30.5t21.5 24t37.5 9.5q32 0 47.5 -19t15.5 -42t-16 -43t-46 -21z" />
    </font>
</defs>
</svg>
